<?xml version="1.0" encoding="UTF-8" standalone="no"?>
<svg width="94px" height="94px" viewBox="0 0 94 94" version="1.1" xmlns="http://www.w3.org/2000/svg" xmlns:xlink="http://www.w3.org/1999/xlink">
    <!-- Generator: Sketch 49.1 (51147) - http://www.bohemiancoding.com/sketch -->
    <title>Design Guidelines</title>
    <desc>Created with Sketch.</desc>
    <defs>
        <polygon id="path-1" points="0 0.0606346535 2.02318713 0.0606346535 2.02318713 2.08396139 0 2.08396139"></polygon>
        <polygon id="path-3" points="0 0.445057426 2.02318713 0.445057426 2.02318713 2.46838416 0 2.46838416"></polygon>
        <polygon id="path-5" points="0 0.364180198 2.02318713 0.364180198 2.02318713 2.38750693 0 2.38750693"></polygon>
        <polygon id="path-7" points="0 0.28330297 2.02318713 0.28330297 2.02318713 2.3066297 0 2.3066297"></polygon>
        <polygon id="path-9" points="0 0.141511881 2.02318713 0.141511881 2.02318713 2.16483861 0 2.16483861"></polygon>
        <polygon id="path-11" points="0 0.0606346535 2.02318713 0.0606346535 2.02318713 2.08396139 0 2.08396139"></polygon>
        <polygon id="path-13" points="0 0.384422772 2.02318713 0.384422772 2.02318713 2.4077495 0 2.4077495"></polygon>
        <polygon id="path-15" points="0 0.30349901 2.02318713 0.30349901 2.02318713 2.32673267 0 2.32673267"></polygon>
        <polygon id="path-17" points="0.384283168 0.30349901 2.4076099 0.30349901 2.4076099 2.32673267 0.384283168 2.32673267"></polygon>
        <polygon id="path-19" points="0.303405941 0.30349901 2.32673267 0.30349901 2.32673267 2.32673267 0.303405941 2.32673267"></polygon>
        <polygon id="path-21" points="0.222528713 0.30349901 2.24585545 0.30349901 2.24585545 2.32673267 0.222528713 2.32673267"></polygon>
        <polygon id="path-23" points="0.080970297 0.30349901 2.10429703 0.30349901 2.10429703 2.32673267 0.080970297 2.32673267"></polygon>
        <polygon id="path-25" points="-0.00013960396 0.30349901 2.02318713 0.30349901 2.02318713 2.32673267 -0.00013960396 2.32673267"></polygon>
        <polygon id="path-27" points="0.384283168 0.30349901 2.4076099 0.30349901 2.4076099 2.32673267 0.384283168 2.32673267"></polygon>
        <polygon id="path-29" points="0.303405941 0.30349901 2.32673267 0.30349901 2.32673267 2.32673267 0.303405941 2.32673267"></polygon>
    </defs>
    <g id="Symbols" stroke="none" stroke-width="1" fill="none" fill-rule="evenodd">
        <g id="Annotations/IDS-Home-XL" transform="translate(-263.000000, -698.000000)">
            <g id="2nd-section" transform="translate(0.000000, 467.000000)">
                <g id="Design-guidelines" transform="translate(121.000000, 231.000000)">
                    <g id="Icon/-Design-Guidelines" transform="translate(142.000000, 0.000000)">
                        <g id="Page-1">
                            <g id="Group-3" transform="translate(0.000000, 0.404851)">
                                <mask id="mask-2" fill="white">
                                    <use xlink:href="#path-1"></use>
                                </mask>
                                <g id="Clip-2"></g>
                                <path d="M2.02318713,1.07229802 C2.02318713,1.63117921 1.57040495,2.08396139 1.01152376,2.08396139 C0.452642574,2.08396139 -0.00013960396,1.63117921 -0.00013960396,1.07229802 C-0.00013960396,0.513416832 0.452642574,0.0606346535 1.01152376,0.0606346535 C1.57040495,0.0606346535 2.02318713,0.513416832 2.02318713,1.07229802" id="Fill-1" fill="#000000" mask="url(#mask-2)"></path>
                            </g>
                            <path d="M14.9719663,1.4771495 C14.9719663,2.03603069 14.5191842,2.48881287 13.960303,2.48881287 C13.4014218,2.48881287 12.9486396,2.03603069 12.9486396,1.4771495 C12.9486396,0.918268317 13.4014218,0.465486139 13.960303,0.465486139 C14.5191842,0.465486139 14.9719663,0.918268317 14.9719663,1.4771495" id="Fill-4" fill="#000000"></path>
                            <g id="Group-8" transform="translate(0.000000, 12.969208)">
                                <mask id="mask-4" fill="white">
                                    <use xlink:href="#path-3"></use>
                                </mask>
                                <g id="Clip-7"></g>
                                <path d="M2.02318713,1.45672079 C2.02318713,2.01560198 1.57040495,2.46838416 1.01152376,2.46838416 C0.452642574,2.46838416 -0.00013960396,2.01560198 -0.00013960396,1.45672079 C-0.00013960396,0.897839604 0.452642574,0.445057426 1.01152376,0.445057426 C1.57040495,0.445057426 2.02318713,0.897839604 2.02318713,1.45672079" id="Fill-6" fill="#000000" mask="url(#mask-4)"></path>
                            </g>
                            <path d="M14.9719663,14.4259287 C14.9719663,14.9848099 14.5191842,15.4375921 13.960303,15.4375921 C13.4014218,15.4375921 12.9486396,14.9848099 12.9486396,14.4259287 C12.9486396,13.8670475 13.4014218,13.4142653 13.960303,13.4142653 C14.5191842,13.4142653 14.9719663,13.8670475 14.9719663,14.4259287" id="Fill-9" fill="#000000"></path>
                            <path d="M27.9207921,1.4771495 C27.9207921,2.03603069 27.4680099,2.48881287 26.9091287,2.48881287 C26.3502475,2.48881287 25.8974653,2.03603069 25.8974653,1.4771495 C25.8974653,0.918268317 26.3502475,0.465486139 26.9091287,0.465486139 C27.4680099,0.465486139 27.9207921,0.918268317 27.9207921,1.4771495" id="Fill-11" fill="#000000"></path>
                            <path d="M40.8696178,1.4771495 C40.8696178,2.03603069 40.4168356,2.48881287 39.8579545,2.48881287 C39.2990733,2.48881287 38.8462911,2.03603069 38.8462911,1.4771495 C38.8462911,0.918268317 39.2990733,0.465486139 39.8579545,0.465486139 C40.4168356,0.465486139 40.8696178,0.918268317 40.8696178,1.4771495" id="Fill-13" fill="#000000"></path>
                            <path d="M27.9207921,14.4259287 C27.9207921,14.9848099 27.4680099,15.4375921 26.9091287,15.4375921 C26.3502475,15.4375921 25.8974653,14.9848099 25.8974653,14.4259287 C25.8974653,13.8670475 26.3502475,13.4142653 26.9091287,13.4142653 C27.4680099,13.4142653 27.9207921,13.8670475 27.9207921,14.4259287" id="Fill-15" fill="#000000"></path>
                            <path d="M40.8696178,14.4259287 C40.8696178,14.9848099 40.4168356,15.4375921 39.8579545,15.4375921 C39.2990733,15.4375921 38.8462911,14.9848099 38.8462911,14.4259287 C38.8462911,13.8670475 39.2990733,13.4142653 39.8579545,13.4142653 C40.4168356,13.4142653 40.8696178,13.8670475 40.8696178,14.4259287" id="Fill-17" fill="#000000"></path>
                            <g id="Group-21" transform="translate(0.000000, 25.998911)">
                                <mask id="mask-6" fill="white">
                                    <use xlink:href="#path-5"></use>
                                </mask>
                                <g id="Clip-20"></g>
                                <path d="M2.02318713,1.37584356 C2.02318713,1.93472475 1.57040495,2.38750693 1.01152376,2.38750693 C0.452642574,2.38750693 -0.00013960396,1.93472475 -0.00013960396,1.37584356 C-0.00013960396,0.816962376 0.452642574,0.364180198 1.01152376,0.364180198 C1.57040495,0.364180198 2.02318713,0.816962376 2.02318713,1.37584356" id="Fill-19" fill="#000000" mask="url(#mask-6)"></path>
                            </g>
                            <path d="M14.9719663,27.3747545 C14.9719663,27.9336356 14.5191842,28.3864178 13.960303,28.3864178 C13.4014218,28.3864178 12.9486396,27.9336356 12.9486396,27.3747545 C12.9486396,26.8158733 13.4014218,26.3630911 13.960303,26.3630911 C14.5191842,26.3630911 14.9719663,26.8158733 14.9719663,27.3747545" id="Fill-22" fill="#000000"></path>
                            <g id="Group-26" transform="translate(0.000000, 39.028614)">
                                <mask id="mask-8" fill="white">
                                    <use xlink:href="#path-7"></use>
                                </mask>
                                <g id="Clip-25"></g>
                                <path d="M2.02318713,1.29496634 C2.02318713,1.85384752 1.57040495,2.3066297 1.01152376,2.3066297 C0.452642574,2.3066297 -0.00013960396,1.85384752 -0.00013960396,1.29496634 C-0.00013960396,0.736085149 0.452642574,0.28330297 1.01152376,0.28330297 C1.57040495,0.28330297 2.02318713,0.736085149 2.02318713,1.29496634" id="Fill-24" fill="#000000" mask="url(#mask-8)"></path>
                            </g>
                            <path d="M14.9719663,40.3235802 C14.9719663,40.8824614 14.5191842,41.3352436 13.960303,41.3352436 C13.4014218,41.3352436 12.9486396,40.8824614 12.9486396,40.3235802 C12.9486396,39.764699 13.4014218,39.3119168 13.960303,39.3119168 C14.5191842,39.3119168 14.9719663,39.764699 14.9719663,40.3235802" id="Fill-27" fill="#000000"></path>
                            <path d="M27.9207921,27.3747545 C27.9207921,27.9336356 27.4680099,28.3864178 26.9091287,28.3864178 C26.3502475,28.3864178 25.8974653,27.9336356 25.8974653,27.3747545 C25.8974653,26.8158733 26.3502475,26.3630911 26.9091287,26.3630911 C27.4680099,26.3630911 27.9207921,26.8158733 27.9207921,27.3747545" id="Fill-29" fill="#000000"></path>
                            <path d="M40.8696178,27.3747545 C40.8696178,27.9336356 40.4168356,28.3864178 39.8579545,28.3864178 C39.2990733,28.3864178 38.8462911,27.9336356 38.8462911,27.3747545 C38.8462911,26.8158733 39.2990733,26.3630911 39.8579545,26.3630911 C40.4168356,26.3630911 40.8696178,26.8158733 40.8696178,27.3747545" id="Fill-31" fill="#000000"></path>
                            <path d="M27.9207921,40.3235802 C27.9207921,40.8824614 27.4680099,41.3352436 26.9091287,41.3352436 C26.3502475,41.3352436 25.8974653,40.8824614 25.8974653,40.3235802 C25.8974653,39.764699 26.3502475,39.3119168 26.9091287,39.3119168 C27.4680099,39.3119168 27.9207921,39.764699 27.9207921,40.3235802" id="Fill-33" fill="#000000"></path>
                            <path d="M40.8696178,40.3235802 C40.8696178,40.8824614 40.4168356,41.3352436 39.8579545,41.3352436 C39.2990733,41.3352436 38.8462911,40.8824614 38.8462911,40.3235802 C38.8462911,39.764699 39.2990733,39.3119168 39.8579545,39.3119168 C40.4168356,39.3119168 40.8696178,39.764699 40.8696178,40.3235802" id="Fill-35" fill="#000000"></path>
                            <g id="Group-39" transform="translate(0.000000, 52.523663)">
                                <mask id="mask-10" fill="white">
                                    <use xlink:href="#path-9"></use>
                                </mask>
                                <g id="Clip-38"></g>
                                <path d="M2.02318713,1.15317525 C2.02318713,1.71205644 1.57040495,2.16483861 1.01152376,2.16483861 C0.452642574,2.16483861 -0.00013960396,1.71205644 -0.00013960396,1.15317525 C-0.00013960396,0.594294059 0.452642574,0.141511881 1.01152376,0.141511881 C1.57040495,0.141511881 2.02318713,0.594294059 2.02318713,1.15317525" id="Fill-37" fill="#000000" mask="url(#mask-10)"></path>
                            </g>
                            <path d="M14.9719663,53.6768386 C14.9719663,54.2357198 14.5191842,54.688502 13.960303,54.688502 C13.4014218,54.688502 12.9486396,54.2357198 12.9486396,53.6768386 C12.9486396,53.1179574 13.4014218,52.6651752 13.960303,52.6651752 C14.5191842,52.6651752 14.9719663,53.1179574 14.9719663,53.6768386" id="Fill-40" fill="#000000"></path>
                            <g id="Group-44" transform="translate(0.000000, 65.553366)">
                                <mask id="mask-12" fill="white">
                                    <use xlink:href="#path-11"></use>
                                </mask>
                                <g id="Clip-43"></g>
                                <path d="M2.02318713,1.07229802 C2.02318713,1.63117921 1.57040495,2.08396139 1.01152376,2.08396139 C0.452642574,2.08396139 -0.00013960396,1.63117921 -0.00013960396,1.07229802 C-0.00013960396,0.513416832 0.452642574,0.0606346535 1.01152376,0.0606346535 C1.57040495,0.0606346535 2.02318713,0.513416832 2.02318713,1.07229802" id="Fill-42" fill="#000000" mask="url(#mask-12)"></path>
                            </g>
                            <path d="M14.9719663,66.6256644 C14.9719663,67.1845455 14.5191842,67.6373277 13.960303,67.6373277 C13.4014218,67.6373277 12.9486396,67.1845455 12.9486396,66.6256644 C12.9486396,66.0667832 13.4014218,65.614001 13.960303,65.614001 C14.5191842,65.614001 14.9719663,66.0667832 14.9719663,66.6256644" id="Fill-45" fill="#000000"></path>
                            <path d="M27.9207921,53.6768386 C27.9207921,54.2357198 27.4680099,54.688502 26.9091287,54.688502 C26.3502475,54.688502 25.8974653,54.2357198 25.8974653,53.6768386 C25.8974653,53.1179574 26.3502475,52.6651752 26.9091287,52.6651752 C27.4680099,52.6651752 27.9207921,53.1179574 27.9207921,53.6768386" id="Fill-47" fill="#000000"></path>
                            <path d="M40.8696178,53.6768386 C40.8696178,54.2357198 40.4168356,54.688502 39.8579545,54.688502 C39.2990733,54.688502 38.8462911,54.2357198 38.8462911,53.6768386 C38.8462911,53.1179574 39.2990733,52.6651752 39.8579545,52.6651752 C40.4168356,52.6651752 40.8696178,53.1179574 40.8696178,53.6768386" id="Fill-49" fill="#000000"></path>
                            <path d="M27.9207921,66.6256644 C27.9207921,67.1845455 27.4680099,67.6373277 26.9091287,67.6373277 C26.3502475,67.6373277 25.8974653,67.1845455 25.8974653,66.6256644 C25.8974653,66.0667832 26.3502475,65.614001 26.9091287,65.614001 C27.4680099,65.614001 27.9207921,66.0667832 27.9207921,66.6256644" id="Fill-51" fill="#000000"></path>
                            <path d="M40.8696178,66.6256644 C40.8696178,67.1845455 40.4168356,67.6373277 39.8579545,67.6373277 C39.2990733,67.6373277 38.8462911,67.1845455 38.8462911,66.6256644 C38.8462911,66.0667832 39.2990733,65.614001 39.8579545,65.614001 C40.4168356,65.614001 40.8696178,66.0667832 40.8696178,66.6256644" id="Fill-53" fill="#000000"></path>
                            <g id="Group-57" transform="translate(0.000000, 78.583069)">
                                <mask id="mask-14" fill="white">
                                    <use xlink:href="#path-13"></use>
                                </mask>
                                <g id="Clip-56"></g>
                                <path d="M2.02318713,1.39608614 C2.02318713,1.95496733 1.57040495,2.4077495 1.01152376,2.4077495 C0.452642574,2.4077495 -0.00013960396,1.95496733 -0.00013960396,1.39608614 C-0.00013960396,0.83720495 0.452642574,0.384422772 1.01152376,0.384422772 C1.57040495,0.384422772 2.02318713,0.83720495 2.02318713,1.39608614" id="Fill-55" fill="#000000" mask="url(#mask-14)"></path>
                            </g>
                            <path d="M14.9719663,79.9791554 C14.9719663,80.5380366 14.5191842,80.9908188 13.960303,80.9908188 C13.4014218,80.9908188 12.9486396,80.5380366 12.9486396,79.9791554 C12.9486396,79.4202743 13.4014218,78.9674921 13.960303,78.9674921 C14.5191842,78.9674921 14.9719663,79.4202743 14.9719663,79.9791554" id="Fill-58" fill="#000000"></path>
                            <g id="Group-62" transform="translate(0.000000, 91.612772)">
                                <mask id="mask-16" fill="white">
                                    <use xlink:href="#path-15"></use>
                                </mask>
                                <g id="Clip-61"></g>
                                <path d="M2.02318713,1.31516238 C2.02318713,1.87404356 1.57040495,2.32682574 1.01152376,2.32682574 C0.452642574,2.32682574 -0.00013960396,1.87404356 -0.00013960396,1.31516238 C-0.00013960396,0.756281188 0.452642574,0.30349901 1.01152376,0.30349901 C1.57040495,0.30349901 2.02318713,0.756281188 2.02318713,1.31516238" id="Fill-60" fill="#000000" mask="url(#mask-16)"></path>
                            </g>
                            <g id="Group-65" transform="translate(12.564356, 91.612772)">
                                <mask id="mask-18" fill="white">
                                    <use xlink:href="#path-17"></use>
                                </mask>
                                <g id="Clip-64"></g>
                                <path d="M2.4076099,1.31516238 C2.4076099,1.87404356 1.95482772,2.32682574 1.39594653,2.32682574 C0.837065347,2.32682574 0.384283168,1.87404356 0.384283168,1.31516238 C0.384283168,0.756281188 0.837065347,0.30349901 1.39594653,0.30349901 C1.95482772,0.30349901 2.4076099,0.756281188 2.4076099,1.31516238" id="Fill-63" fill="#000000" mask="url(#mask-18)"></path>
                            </g>
                            <path d="M27.9207921,79.9791554 C27.9207921,80.5380366 27.4680099,80.9908188 26.9091287,80.9908188 C26.3502475,80.9908188 25.8974653,80.5380366 25.8974653,79.9791554 C25.8974653,79.4202743 26.3502475,78.9674921 26.9091287,78.9674921 C27.4680099,78.9674921 27.9207921,79.4202743 27.9207921,79.9791554" id="Fill-66" fill="#000000"></path>
                            <path d="M40.8696178,79.9791554 C40.8696178,80.5380366 40.4168356,80.9908188 39.8579545,80.9908188 C39.2990733,80.9908188 38.8462911,80.5380366 38.8462911,79.9791554 C38.8462911,79.4202743 39.2990733,78.9674921 39.8579545,78.9674921 C40.4168356,78.9674921 40.8696178,79.4202743 40.8696178,79.9791554" id="Fill-68" fill="#000000"></path>
                            <g id="Group-72" transform="translate(25.594059, 91.612772)">
                                <mask id="mask-20" fill="white">
                                    <use xlink:href="#path-19"></use>
                                </mask>
                                <g id="Clip-71"></g>
                                <path d="M2.32673267,1.31516238 C2.32673267,1.87404356 1.8739505,2.32682574 1.31506931,2.32682574 C0.756188119,2.32682574 0.303405941,1.87404356 0.303405941,1.31516238 C0.303405941,0.756281188 0.756188119,0.30349901 1.31506931,0.30349901 C1.8739505,0.30349901 2.32673267,0.756281188 2.32673267,1.31516238" id="Fill-70" fill="#000000" mask="url(#mask-20)"></path>
                            </g>
                            <g id="Group-75" transform="translate(38.623762, 91.612772)">
                                <mask id="mask-22" fill="white">
                                    <use xlink:href="#path-21"></use>
                                </mask>
                                <g id="Clip-74"></g>
                                <path d="M2.24585545,1.31516238 C2.24585545,1.87404356 1.79307327,2.32682574 1.23419208,2.32682574 C0.675310891,2.32682574 0.222528713,1.87404356 0.222528713,1.31516238 C0.222528713,0.756281188 0.675310891,0.30349901 1.23419208,0.30349901 C1.79307327,0.30349901 2.24585545,0.756281188 2.24585545,1.31516238" id="Fill-73" fill="#000000" mask="url(#mask-22)"></path>
                            </g>
                            <path d="M54.2231089,1.4771495 C54.2231089,2.03603069 53.7698614,2.48881287 53.2114455,2.48881287 C52.6525644,2.48881287 52.1997822,2.03603069 52.1997822,1.4771495 C52.1997822,0.918268317 52.6525644,0.465486139 53.2114455,0.465486139 C53.7698614,0.465486139 54.2231089,0.918268317 54.2231089,1.4771495" id="Fill-76" fill="#000000"></path>
                            <path d="M67.171702,1.4771495 C67.171702,2.03603069 66.7189198,2.48881287 66.1600386,2.48881287 C65.6011574,2.48881287 65.1483752,2.03603069 65.1483752,1.4771495 C65.1483752,0.918268317 65.6011574,0.465486139 66.1600386,0.465486139 C66.7189198,0.465486139 67.171702,0.918268317 67.171702,1.4771495" id="Fill-78" fill="#000000"></path>
                            <path d="M54.2231089,14.4259287 C54.2231089,14.9848099 53.7698614,15.4375921 53.2114455,15.4375921 C52.6525644,15.4375921 52.1997822,14.9848099 52.1997822,14.4259287 C52.1997822,13.8670475 52.6525644,13.4142653 53.2114455,13.4142653 C53.7698614,13.4142653 54.2231089,13.8670475 54.2231089,14.4259287" id="Fill-80" fill="#000000"></path>
                            <path d="M67.171702,14.4259287 C67.171702,14.9848099 66.7189198,15.4375921 66.1600386,15.4375921 C65.6011574,15.4375921 65.1483752,14.9848099 65.1483752,14.4259287 C65.1483752,13.8670475 65.6011574,13.4142653 66.1600386,13.4142653 C66.7189198,13.4142653 67.171702,13.8670475 67.171702,14.4259287" id="Fill-82" fill="#000000"></path>
                            <path d="M80.1204812,1.4771495 C80.1204812,2.03603069 79.667699,2.48881287 79.1088178,2.48881287 C78.5499366,2.48881287 78.0971545,2.03603069 78.0971545,1.4771495 C78.0971545,0.918268317 78.5499366,0.465486139 79.1088178,0.465486139 C79.667699,0.465486139 80.1204812,0.918268317 80.1204812,1.4771495" id="Fill-84" fill="#000000"></path>
                            <path d="M93.0693069,1.4771495 C93.0693069,2.03603069 92.6165248,2.48881287 92.0576436,2.48881287 C91.4987624,2.48881287 91.0459802,2.03603069 91.0459802,1.4771495 C91.0459802,0.918268317 91.4987624,0.465486139 92.0576436,0.465486139 C92.6165248,0.465486139 93.0693069,0.918268317 93.0693069,1.4771495" id="Fill-86" fill="#000000"></path>
                            <path d="M80.1204812,14.4259287 C80.1204812,14.9848099 79.667699,15.4375921 79.1088178,15.4375921 C78.5499366,15.4375921 78.0971545,14.9848099 78.0971545,14.4259287 C78.0971545,13.8670475 78.5499366,13.4142653 79.1088178,13.4142653 C79.667699,13.4142653 80.1204812,13.8670475 80.1204812,14.4259287" id="Fill-88" fill="#000000"></path>
                            <path d="M93.0693069,14.4259287 C93.0693069,14.9848099 92.6165248,15.4375921 92.0576436,15.4375921 C91.4987624,15.4375921 91.0459802,14.9848099 91.0459802,14.4259287 C91.0459802,13.8670475 91.4987624,13.4142653 92.0576436,13.4142653 C92.6165248,13.4142653 93.0693069,13.8670475 93.0693069,14.4259287" id="Fill-90" fill="#000000"></path>
                            <path d="M54.2231089,27.3747545 C54.2231089,27.9336356 53.7698614,28.3864178 53.2114455,28.3864178 C52.6525644,28.3864178 52.1997822,27.9336356 52.1997822,27.3747545 C52.1997822,26.8158733 52.6525644,26.3630911 53.2114455,26.3630911 C53.7698614,26.3630911 54.2231089,26.8158733 54.2231089,27.3747545" id="Fill-92" fill="#000000"></path>
                            <path d="M67.171702,27.3747545 C67.171702,27.9336356 66.7189198,28.3864178 66.1600386,28.3864178 C65.6011574,28.3864178 65.1483752,27.9336356 65.1483752,27.3747545 C65.1483752,26.8158733 65.6011574,26.3630911 66.1600386,26.3630911 C66.7189198,26.3630911 67.171702,26.8158733 67.171702,27.3747545" id="Fill-94" fill="#000000"></path>
                            <path d="M54.2231089,40.3235802 C54.2231089,40.8824614 53.7698614,41.3352436 53.2114455,41.3352436 C52.6525644,41.3352436 52.1997822,40.8824614 52.1997822,40.3235802 C52.1997822,39.764699 52.6525644,39.3119168 53.2114455,39.3119168 C53.7698614,39.3119168 54.2231089,39.764699 54.2231089,40.3235802" id="Fill-96" fill="#000000"></path>
                            <path d="M67.171702,40.3235802 C67.171702,40.8824614 66.7189198,41.3352436 66.1600386,41.3352436 C65.6011574,41.3352436 65.1483752,40.8824614 65.1483752,40.3235802 C65.1483752,39.764699 65.6011574,39.3119168 66.1600386,39.3119168 C66.7189198,39.3119168 67.171702,39.764699 67.171702,40.3235802" id="Fill-98" fill="#000000"></path>
                            <path d="M80.1204812,27.3747545 C80.1204812,27.9336356 79.667699,28.3864178 79.1088178,28.3864178 C78.5499366,28.3864178 78.0971545,27.9336356 78.0971545,27.3747545 C78.0971545,26.8158733 78.5499366,26.3630911 79.1088178,26.3630911 C79.667699,26.3630911 80.1204812,26.8158733 80.1204812,27.3747545" id="Fill-100" fill="#000000"></path>
                            <path d="M93.0693069,27.3747545 C93.0693069,27.9336356 92.6165248,28.3864178 92.0576436,28.3864178 C91.4987624,28.3864178 91.0459802,27.9336356 91.0459802,27.3747545 C91.0459802,26.8158733 91.4987624,26.3630911 92.0576436,26.3630911 C92.6165248,26.3630911 93.0693069,26.8158733 93.0693069,27.3747545" id="Fill-102" fill="#000000"></path>
                            <path d="M80.1204812,40.3235802 C80.1204812,40.8824614 79.667699,41.3352436 79.1088178,41.3352436 C78.5499366,41.3352436 78.0971545,40.8824614 78.0971545,40.3235802 C78.0971545,39.764699 78.5499366,39.3119168 79.1088178,39.3119168 C79.667699,39.3119168 80.1204812,39.764699 80.1204812,40.3235802" id="Fill-104" fill="#000000"></path>
                            <path d="M93.0693069,40.3235802 C93.0693069,40.8824614 92.6165248,41.3352436 92.0576436,41.3352436 C91.4987624,41.3352436 91.0459802,40.8824614 91.0459802,40.3235802 C91.0459802,39.764699 91.4987624,39.3119168 92.0576436,39.3119168 C92.6165248,39.3119168 93.0693069,39.764699 93.0693069,40.3235802" id="Fill-106" fill="#000000"></path>
                            <path d="M54.2231089,53.6768386 C54.2231089,54.2357198 53.7698614,54.688502 53.2114455,54.688502 C52.6525644,54.688502 52.1997822,54.2357198 52.1997822,53.6768386 C52.1997822,53.1179574 52.6525644,52.6651752 53.2114455,52.6651752 C53.7698614,52.6651752 54.2231089,53.1179574 54.2231089,53.6768386" id="Fill-108" fill="#000000"></path>
                            <path d="M67.171702,53.6768386 C67.171702,54.2357198 66.7189198,54.688502 66.1600386,54.688502 C65.6011574,54.688502 65.1483752,54.2357198 65.1483752,53.6768386 C65.1483752,53.1179574 65.6011574,52.6651752 66.1600386,52.6651752 C66.7189198,52.6651752 67.171702,53.1179574 67.171702,53.6768386" id="Fill-110" fill="#000000"></path>
                            <path d="M54.2231089,66.6256644 C54.2231089,67.1845455 53.7698614,67.6373277 53.2114455,67.6373277 C52.6525644,67.6373277 52.1997822,67.1845455 52.1997822,66.6256644 C52.1997822,66.0667832 52.6525644,65.614001 53.2114455,65.614001 C53.7698614,65.614001 54.2231089,66.0667832 54.2231089,66.6256644" id="Fill-112" fill="#000000"></path>
                            <path d="M67.171702,66.6256644 C67.171702,67.1845455 66.7189198,67.6373277 66.1600386,67.6373277 C65.6011574,67.6373277 65.1483752,67.1845455 65.1483752,66.6256644 C65.1483752,66.0667832 65.6011574,65.614001 66.1600386,65.614001 C66.7189198,65.614001 67.171702,66.0667832 67.171702,66.6256644" id="Fill-114" fill="#000000"></path>
                            <path d="M80.1204812,53.6768386 C80.1204812,54.2357198 79.667699,54.688502 79.1088178,54.688502 C78.5499366,54.688502 78.0971545,54.2357198 78.0971545,53.6768386 C78.0971545,53.1179574 78.5499366,52.6651752 79.1088178,52.6651752 C79.667699,52.6651752 80.1204812,53.1179574 80.1204812,53.6768386" id="Fill-116" fill="#000000"></path>
                            <path d="M93.0693069,53.6768386 C93.0693069,54.2357198 92.6165248,54.688502 92.0576436,54.688502 C91.4987624,54.688502 91.0459802,54.2357198 91.0459802,53.6768386 C91.0459802,53.1179574 91.4987624,52.6651752 92.0576436,52.6651752 C92.6165248,52.6651752 93.0693069,53.1179574 93.0693069,53.6768386" id="Fill-118" fill="#000000"></path>
                            <path d="M80.1204812,66.6256644 C80.1204812,67.1845455 79.667699,67.6373277 79.1088178,67.6373277 C78.5499366,67.6373277 78.0971545,67.1845455 78.0971545,66.6256644 C78.0971545,66.0667832 78.5499366,65.614001 79.1088178,65.614001 C79.667699,65.614001 80.1204812,66.0667832 80.1204812,66.6256644" id="Fill-120" fill="#000000"></path>
                            <path d="M93.0693069,66.6256644 C93.0693069,67.1845455 92.6165248,67.6373277 92.0576436,67.6373277 C91.4987624,67.6373277 91.0459802,67.1845455 91.0459802,66.6256644 C91.0459802,66.0667832 91.4987624,65.614001 92.0576436,65.614001 C92.6165248,65.614001 93.0693069,66.0667832 93.0693069,66.6256644" id="Fill-122" fill="#000000"></path>
                            <path d="M54.2231089,79.9791554 C54.2231089,80.5380366 53.7698614,80.9908188 53.2114455,80.9908188 C52.6525644,80.9908188 52.1997822,80.5380366 52.1997822,79.9791554 C52.1997822,79.4202743 52.6525644,78.9674921 53.2114455,78.9674921 C53.7698614,78.9674921 54.2231089,79.4202743 54.2231089,79.9791554" id="Fill-124" fill="#000000"></path>
                            <path d="M67.171702,79.9791554 C67.171702,80.5380366 66.7189198,80.9908188 66.1600386,80.9908188 C65.6011574,80.9908188 65.1483752,80.5380366 65.1483752,79.9791554 C65.1483752,79.4202743 65.6011574,78.9674921 66.1600386,78.9674921 C66.7189198,78.9674921 67.171702,79.4202743 67.171702,79.9791554" id="Fill-126" fill="#000000"></path>
                            <g id="Group-130" transform="translate(52.118812, 91.612772)">
                                <mask id="mask-24" fill="white">
                                    <use xlink:href="#path-23"></use>
                                </mask>
                                <g id="Clip-129"></g>
                                <path d="M2.10429703,1.31516238 C2.10429703,1.87404356 1.6510495,2.32682574 1.09263366,2.32682574 C0.533752475,2.32682574 0.080970297,1.87404356 0.080970297,1.31516238 C0.080970297,0.756281188 0.533752475,0.30349901 1.09263366,0.30349901 C1.6510495,0.30349901 2.10429703,0.756281188 2.10429703,1.31516238" id="Fill-128" fill="#000000" mask="url(#mask-24)"></path>
                            </g>
                            <g id="Group-133" transform="translate(65.148515, 91.612772)">
                                <mask id="mask-26" fill="white">
                                    <use xlink:href="#path-25"></use>
                                </mask>
                                <g id="Clip-132"></g>
                                <path d="M2.02318713,1.31516238 C2.02318713,1.87404356 1.57040495,2.32682574 1.01152376,2.32682574 C0.452642574,2.32682574 -0.00013960396,1.87404356 -0.00013960396,1.31516238 C-0.00013960396,0.756281188 0.452642574,0.30349901 1.01152376,0.30349901 C1.57040495,0.30349901 2.02318713,0.756281188 2.02318713,1.31516238" id="Fill-131" fill="#000000" mask="url(#mask-26)"></path>
                            </g>
                            <path d="M80.1204812,79.9791554 C80.1204812,80.5380366 79.667699,80.9908188 79.1088178,80.9908188 C78.5499366,80.9908188 78.0971545,80.5380366 78.0971545,79.9791554 C78.0971545,79.4202743 78.5499366,78.9674921 79.1088178,78.9674921 C79.667699,78.9674921 80.1204812,79.4202743 80.1204812,79.9791554" id="Fill-134" fill="#000000"></path>
                            <path d="M93.0693069,79.9791554 C93.0693069,80.5380366 92.6165248,80.9908188 92.0576436,80.9908188 C91.4987624,80.9908188 91.0459802,80.5380366 91.0459802,79.9791554 C91.0459802,79.4202743 91.4987624,78.9674921 92.0576436,78.9674921 C92.6165248,78.9674921 93.0693069,79.4202743 93.0693069,79.9791554" id="Fill-136" fill="#000000"></path>
                            <g id="Group-140" transform="translate(77.712871, 91.612772)">
                                <mask id="mask-28" fill="white">
                                    <use xlink:href="#path-27"></use>
                                </mask>
                                <g id="Clip-139"></g>
                                <path d="M2.4076099,1.31516238 C2.4076099,1.87404356 1.95482772,2.32682574 1.39594653,2.32682574 C0.837065347,2.32682574 0.384283168,1.87404356 0.384283168,1.31516238 C0.384283168,0.756281188 0.837065347,0.30349901 1.39594653,0.30349901 C1.95482772,0.30349901 2.4076099,0.756281188 2.4076099,1.31516238" id="Fill-138" fill="#000000" mask="url(#mask-28)"></path>
                            </g>
                            <g id="Group-143" transform="translate(90.742574, 91.612772)">
                                <mask id="mask-30" fill="white">
                                    <use xlink:href="#path-29"></use>
                                </mask>
                                <g id="Clip-142"></g>
                                <path d="M2.32673267,1.31516238 C2.32673267,1.87404356 1.8739505,2.32682574 1.31506931,2.32682574 C0.756188119,2.32682574 0.303405941,1.87404356 0.303405941,1.31516238 C0.303405941,0.756281188 0.756188119,0.30349901 1.31506931,0.30349901 C1.8739505,0.30349901 2.32673267,0.756281188 2.32673267,1.31516238" id="Fill-141" fill="#000000" mask="url(#mask-30)"></path>
                            </g>
                            <path d="M13.6568505,1.3760297 L92.5633356,80.2825149" id="Stroke-144" stroke="#000000" stroke-width="0.5"></path>
                            <path d="M79.1493495,1.43666436 L1.1633198,79.8070703" id="Stroke-146" stroke="#000000" stroke-width="0.5"></path>
                            <path d="M66.6658703,0.971317822 L1.3149297,66.3222584" id="Stroke-148" stroke="#000000" stroke-width="0.5"></path>
                            <path d="M26.808102,1.1737901 L92.1590426,66.5247307" id="Stroke-150" stroke="#000000" stroke-width="0.5"></path>
                            <path d="M52.8168317,1.62889901 L1.31506931,53.3735723" id="Stroke-152" stroke="#000000" stroke-width="0.5"></path>
                            <path d="M40.3638327,0.971317822 L1.11278317,40.2223673" id="Stroke-154" stroke="#000000" stroke-width="0.5"></path>
                            <path d="M53.5148515,1.57822277 L92.765901,40.8292723" id="Stroke-156" stroke="#000000" stroke-width="0.5"></path>
                            <path d="M65.8567723,1.3760297 L92.3610495,27.8807723" id="Stroke-158" stroke="#000000" stroke-width="0.5"></path>
                            <path d="M79.2100307,1.3760297 L92.3611891,14.5271881" id="Stroke-160" stroke="#000000" stroke-width="0.5"></path>
                            <path d="M0.708257426,27.6781139 L27.2125347,1.17383663" id="Stroke-162" stroke="#000000" stroke-width="0.5"></path>
                            <path d="M0.910450495,14.3248089 L14.0616089,1.1736505" id="Stroke-164" stroke="#13333F" stroke-width="0.5"></path>
                            <path d="M40.3638327,1.78069505 L92.7655752,54.1824376" id="Stroke-166" stroke="#000000" stroke-width="0.5"></path>
                        </g>
                    </g>
                </g>
            </g>
        </g>
    </g>
</svg>