<?xml version="1.0" encoding="UTF-8" standalone="no"?>
<svg width="110px" height="108px" viewBox="0 0 110 108" version="1.1" xmlns="http://www.w3.org/2000/svg" xmlns:xlink="http://www.w3.org/1999/xlink">
    <!-- Generator: Sketch 49.1 (51147) - http://www.bohemiancoding.com/sketch -->
    <title>icons/github</title>
    <desc>Created with Sketch.</desc>
    <defs>
        <polygon id="path-1" points="0 0.187865546 109.795455 0.187865546 109.795455 107.092437 0 107.092437"></polygon>
    </defs>
    <g id="XL" stroke="none" stroke-width="1" fill="none" fill-rule="evenodd">
        <g id="IDS_Home_Landing-page-XL" transform="translate(-260.000000, -3783.000000)">
            <g id="Tools-and-Resources" transform="translate(121.000000, 3659.000000)">
                <g id="Git" transform="translate(0.000000, 124.000000)">
                    <g id="icon/github" transform="translate(139.000000, 0.000000)">
                        <g id="Page-1">
                            <g id="Group-3" transform="translate(0.000000, 0.719697)">
                                <mask id="mask-2" fill="white">
                                    <use xlink:href="#path-1"></use>
                                </mask>
                                <g id="Clip-2"></g>
                                <path d="M54.898,0.187502521 C24.5825455,0.187502521 -0.000181818182,24.7234689 -0.000181818182,54.9934185 C-0.000181818182,79.2072 15.7298182,99.7507966 37.5425455,106.997687 C40.2861818,107.505015 41.2934545,105.80878 41.2934545,104.361217 C41.2934545,103.055234 41.2425455,98.7370487 41.2189091,94.1574857 C25.9461818,97.4728134 22.7234545,87.6910992 22.7234545,87.6910992 C20.2261818,81.3572168 16.628,79.6718723 16.628,79.6718723 C11.6470909,76.2703261 17.0034545,76.3402084 17.0034545,76.3402084 C22.5161818,76.7268303 25.4189091,81.9888807 25.4189091,81.9888807 C30.3152727,90.366595 38.2616364,87.9443092 41.3943636,86.5439395 C41.8870909,83.0026286 43.3098182,80.5839731 44.8798182,79.2153681 C32.6861818,77.8304269 19.868,73.130158 19.868,52.1300571 C19.868,46.1474017 22.0125455,41.2574521 25.5243636,37.4193681 C24.9543636,36.0389647 23.0752727,30.4647126 26.0561818,22.9156034 C26.0561818,22.9156034 30.6670909,21.4435361 41.1570909,28.5343261 C45.5361818,27.3200067 50.2325455,26.7110319 54.898,26.6892504 C59.5634545,26.7110319 64.2634545,27.3200067 68.6507273,28.5343261 C79.1289091,21.4435361 83.7325455,22.9156034 83.7325455,22.9156034 C86.7207273,30.4647126 84.8416364,36.0389647 84.2716364,37.4193681 C87.7916364,41.2574521 89.9207273,46.1474017 89.9207273,52.1300571 C89.9207273,73.1809815 77.078,77.8149983 64.8534545,79.171805 C66.8225455,80.8725782 68.5770909,84.2078723 68.5770909,89.3210824 C68.5770909,96.6541916 68.5143636,102.556074 68.5143636,104.361217 C68.5143636,105.820578 69.5016364,107.528612 72.2843636,106.991334 C94.0852727,99.7362756 109.796182,79.1999395 109.796182,54.9934185 C109.796182,24.7234689 85.2170909,0.187502521 54.898,0.187502521" id="Fill-1" fill="#181717" mask="url(#mask-2)"></path>
                            </g>
                            <path d="M20.7928182,79.5957277 C20.6719091,79.8689042 20.2428182,79.9505849 19.8519091,79.7636269 C19.4528182,79.5839294 19.2300909,79.2127361 19.3591818,78.9395597 C19.4773636,78.6600303 19.9064545,78.5819798 20.3046364,78.7689378 C20.7028182,78.9477277 20.9300909,79.3225513 20.7928182,79.5957277" id="Fill-4" fill="#181717"></path>
                            <path d="M23.0167273,82.0721042 C22.7549091,82.3144235 22.2421818,82.2018857 21.8958182,81.8188941 C21.5358182,81.4368101 21.4694545,80.9249445 21.7349091,80.6799025 C22.0049091,80.4375832 22.5012727,80.5510286 22.8603636,80.9331126 C23.2203636,81.3197345 23.2903636,81.8261546 23.0167273,82.0721042" id="Fill-6" fill="#181717"></path>
                            <path d="M25.1811818,85.2281546 C24.8448182,85.4623059 24.2939091,85.2435832 23.9539091,84.7553143 C23.6175455,84.2679529 23.6175455,83.6834824 23.9620909,83.4493311 C24.3020909,83.2151798 24.8448182,83.426642 25.1893636,83.9094655 C25.5248182,84.404995 25.5248182,84.9894655 25.1811818,85.2281546" id="Fill-8" fill="#181717"></path>
                            <path d="M28.1463636,88.2779294 C27.8454545,88.6091899 27.2045455,88.5202487 26.7354545,88.0682824 C26.2554545,87.6262992 26.1218182,86.9991731 26.4227273,86.6679126 C26.7281818,86.3357445 27.3727273,86.4292235 27.8454545,86.8775597 C28.3218182,87.3186353 28.4672727,87.9502992 28.1463636,88.2779294" id="Fill-10" fill="#181717"></path>
                            <path d="M32.2372727,90.0486756 C32.1045455,90.4779529 31.4872727,90.6721714 30.8654545,90.4897513 C30.2445455,90.3018857 29.8381818,89.8000034 29.9636364,89.3661882 C30.0927273,88.9332807 30.7127273,88.7308941 31.3390909,88.9260202 C31.9590909,89.1129782 32.3663636,89.6121378 32.2372727,90.0486756" id="Fill-12" fill="#181717"></path>
                            <path d="M36.7303636,90.3766689 C36.7458182,90.8286353 36.2185455,91.2034588 35.5658182,91.2116269 C34.9094545,91.2270555 34.3776364,90.8604 34.3703636,90.4156941 C34.3703636,89.9591899 34.8867273,89.5889042 35.5421818,89.5771059 C36.1949091,89.5644 36.7303636,89.9283328 36.7303636,90.3766689" id="Fill-14" fill="#181717"></path>
                            <path d="M40.9109091,89.6666824 C40.9890909,90.1068504 40.5354545,90.5597244 39.8872727,90.6804303 C39.25,90.7975059 38.66,90.5243294 38.5790909,90.0877916 C38.5,89.6358252 38.9609091,89.1829513 39.5981818,89.0658756 C40.2472727,88.9533378 40.8281818,89.2183462 40.9109091,89.6666824" id="Fill-16" fill="#181717"></path>
                        </g>
                    </g>
                </g>
            </g>
        </g>
    </g>
</svg>