<svg width="48" height="48" xmlns="http://www.w3.org/2000/svg"><g fill="none" fill-rule="evenodd"><path d="M35.05.48c-7.352-.64-14.748-.64-22.1 0A13.71 13.71 0 0 0 .48 12.95c-.64 7.353-.64 14.747 0 22.1a13.711 13.711 0 0 0 12.47 12.47c7.352.64 14.748.64 22.1 0a13.711 13.711 0 0 0 12.47-12.47c.64-7.353.64-14.747 0-22.1A13.71 13.71 0 0 0 35.05.48" class="background"/><path d="M21.824 19.69h4.771v2.186h.068c.665-1.258 2.288-2.585 4.707-2.585 5.034 0 5.963 3.314 5.963 7.624v8.779h-4.969V27.91c0-1.857-.036-4.244-2.584-4.244-2.589 0-2.984 2.022-2.984 4.11v7.917h-4.972V19.689zm-8.096 16.003V19.689h4.976v16.004h-4.976zm2.488-23.96a2.886 2.886 0 0 1 2.883 2.884 2.883 2.883 0 0 1-5.766 0 2.883 2.883 0 0 1 2.883-2.884z" class="emblem"/></g></svg>
