<?xml version="1.0" encoding="UTF-8"?>
<svg width="24px" height="24px" viewBox="0 0 24 24" version="1.1" xmlns="http://www.w3.org/2000/svg" xmlns:xlink="http://www.w3.org/1999/xlink">
    <!-- Generator: sketchtool 54.1 (76490) - https://sketchapp.com -->
    <title>56FB03D5-AF14-433C-867C-A5B1E4F65B87</title>
    <desc>Created with sketchtool.</desc>
    <g id="Landing-Page" stroke="none" stroke-width="1" fill="none" fill-rule="evenodd">
        <g id="IDS_Blog_Landing_LG" transform="translate(-296.000000, -1704.000000)" fill="#6D6873">
            <g id="Medium-Section" transform="translate(0.000000, 1608.000000)">
                <g id="Section-Header" transform="translate(296.000000, 96.000000)">
                    <g id="Eyebrow">
                        <path d="M0,0 L24,0 L24,24 L0,24 L0,0 Z M5.89729225,7.65196943 L5.89729225,14.8894768 C5.94081024,15.1505606 5.86039232,15.4172595 5.68067227,15.6078778 L4,17.6942975 L4,17.9694297 L8.76563958,17.9694297 L8.76563958,17.6942975 L7.08496732,15.6078778 C6.90392915,15.417575 6.81853164,15.1526336 6.85340802,14.8894768 L6.85340802,8.63021753 L11.0364146,17.9694297 L11.5219421,17.9694297 L15.1148459,8.63021753 L15.1148459,16.0740741 C15.1148459,16.2727807 15.1148459,16.3109935 14.9878619,16.4409171 L13.6956116,17.7248678 L13.6956116,18 L19.9701214,18 L19.9701214,17.7248678 L18.7226891,16.4714874 C18.6125709,16.3855815 18.5579466,16.2443893 18.5807657,16.1046444 L18.5807657,6.89535568 C18.5579466,6.75561078 18.6125709,6.61441846 18.7226891,6.52851264 L20,5.27513227 L20,5 L15.5779646,5 L12.4257703,13.047619 L8.84033613,5 L4.20168067,5 L4.20168067,5.27513227 L5.69561158,7.11699 C5.84227176,7.25227888 5.91717103,7.45095715 5.89729225,7.65196943 Z" id="Medium-Logo"></path>
                    </g>
                </g>
            </g>
        </g>
    </g>
</svg>