<svg width="48" height="48" xmlns="http://www.w3.org/2000/svg"><g fill="none" fill-rule="evenodd"><path d="M35.05.48c-7.352-.64-14.748-.64-22.1 0A13.71 13.71 0 0 0 .48 12.95c-.64 7.353-.64 14.747 0 22.1a13.711 13.711 0 0 0 12.47 12.47c7.352.64 14.748.64 22.1 0a13.711 13.711 0 0 0 12.47-12.47c.64-7.353.64-14.747 0-22.1A13.71 13.71 0 0 0 35.05.48" class="background"/><path d="M24 9.6c3.91 0 4.401.017 5.937.087 1.533.07 2.58.313 3.496.669.946.368 1.75.86 2.55 1.66.8.801 1.293 1.605 1.661 2.551.356.916.6 1.963.67 3.496.07 1.536.086 2.026.086 5.937 0 3.91-.017 4.401-.087 5.937-.07 1.533-.313 2.58-.669 3.496a7.059 7.059 0 0 1-1.66 2.55c-.801.8-1.605 1.293-2.551 1.661-.916.356-1.963.6-3.496.67-1.536.07-2.026.086-5.937.086-3.91 0-4.401-.017-5.937-.087-1.533-.07-2.58-.313-3.496-.669a7.059 7.059 0 0 1-2.55-1.66 7.059 7.059 0 0 1-1.661-2.551c-.356-.916-.6-1.963-.67-3.496C9.617 28.401 9.6 27.911 9.6 24c0-3.91.017-4.401.087-5.937.07-1.533.313-2.58.669-3.496.368-.946.86-1.75 1.66-2.55.801-.8 1.604-1.293 2.551-1.661.916-.356 1.963-.6 3.496-.67C19.599 9.617 20.089 9.6 24 9.6zm0 2.595c-3.845 0-4.3.014-5.819.084-1.404.064-2.166.298-2.674.495a4.462 4.462 0 0 0-1.655 1.078 4.461 4.461 0 0 0-1.078 1.655c-.197.508-.431 1.27-.495 2.674-.07 1.519-.084 1.974-.084 5.819 0 3.845.014 4.3.084 5.819.064 1.404.298 2.166.495 2.674a4.461 4.461 0 0 0 1.078 1.655c.503.504.983.816 1.655 1.078.508.197 1.27.431 2.674.495 1.518.07 1.974.084 5.819.084 3.845 0 4.3-.014 5.819-.084 1.404-.064 2.166-.298 2.674-.495a4.461 4.461 0 0 0 1.655-1.078 4.461 4.461 0 0 0 1.078-1.655c.197-.508.431-1.27.495-2.674.07-1.519.084-1.974.084-5.819 0-3.845-.014-4.3-.084-5.819-.064-1.404-.298-2.166-.495-2.674a4.461 4.461 0 0 0-1.078-1.655 4.462 4.462 0 0 0-1.655-1.078c-.508-.197-1.27-.431-2.674-.495-1.519-.07-1.974-.084-5.819-.084zm0 4.41a7.395 7.395 0 1 1 0 14.79 7.395 7.395 0 0 1 0-14.79zM24 28.8a4.8 4.8 0 1 0 0-9.6 4.8 4.8 0 0 0 0 9.6zm9.415-12.487a1.728 1.728 0 1 1-3.456 0 1.728 1.728 0 0 1 3.456 0z" class="emblem" fill-rule="nonzero"/></g></svg>
