<svg width="48" height="48" xmlns="http://www.w3.org/2000/svg"><g fill="none" fill-rule="evenodd"><path d="M35.05.48c-7.352-.64-14.748-.64-22.1 0A13.71 13.71 0 0 0 .48 12.95c-.64 7.353-.64 14.747 0 22.1a13.711 13.711 0 0 0 12.47 12.47c7.352.64 14.748.64 22.1 0a13.711 13.711 0 0 0 12.47-12.47c.64-7.353.64-14.747 0-22.1A13.71 13.71 0 0 0 35.05.48" class="background"/><path d="M14.236 18.013a.992.992 0 0 0-.323-.837l-2.39-2.88v-.43h7.422l5.736 12.582 5.044-12.581H36.8v.43l-2.044 1.96a.597.597 0 0 0-.227.573v14.397c-.036.219.051.44.227.574l1.996 1.96v.43H26.713v-.43l2.068-2.008c.203-.203.203-.263.203-.574V19.542l-5.749 14.6h-.777l-6.693-14.6v9.785c-.055.412.081.826.37 1.124l2.69 3.261v.43H11.2v-.43l2.69-3.261c.287-.298.415-.715.346-1.124V18.013z" class="emblem"/></g></svg>
