<svg width="48" height="48" xmlns="http://www.w3.org/2000/svg"><g fill="none" fill-rule="evenodd"><path class="background" d="M35.05.48c-7.352-.64-14.748-.64-22.1 0A13.71 13.71 0 0 0 .48 12.95c-.64 7.353-.64 14.747 0 22.1a13.711 13.711 0 0 0 12.47 12.47c7.352.64 14.748.64 22.1 0a13.711 13.711 0 0 0 12.47-12.47c.64-7.353.64-14.747 0-22.1A13.71 13.71 0 0 0 35.05.48" /><path class="emblem" d="M36.06 18.128c1.453 1.577 2.34 3.47 2.34 6.058 0 11.248-9.332 11.429-11.687 11.429-.533 0-1.593 0-2.713.002l-2.713-.002c-2.355 0-11.687-.18-11.687-11.429 0-2.587.887-4.48 2.34-6.058-.233-.571-.244-3.82.992-6.928 0 0 2.835.31 7.124 3.254.9-.248 2.422-.372 3.944-.372 1.522 0 3.044.124 3.943.372 4.29-2.943 7.125-3.254 7.125-3.254 1.236 3.109 1.224 6.357.993 6.928zM24.045 34.232c5.904 0 10.501-.705 10.501-6.443 0-1.374-.484-2.65-1.636-3.708-1.922-1.764-5.174-.83-8.865-.83L24 23.25h-.044c-3.69 0-6.942-.934-8.864.83-1.152 1.06-1.637 2.335-1.637 3.71 0 5.737 4.597 6.442 10.501 6.442h.088zm4.932-8.773c1.123 0 2.035 1.26 2.034 2.816 0 1.556-.91 2.817-2.034 2.817-1.124 0-2.035-1.261-2.035-2.817 0-1.556.911-2.816 2.035-2.816zm-9.952 0c1.124 0 2.035 1.26 2.035 2.816 0 1.556-.91 2.817-2.035 2.817-1.123 0-2.034-1.261-2.034-2.817 0-1.556.91-2.816 2.034-2.816z"/></g></svg>
