<svg width="48" height="48" xmlns="http://www.w3.org/2000/svg"><g fill="none" fill-rule="evenodd"><path d="M35.05.48c-7.352-.64-14.748-.64-22.1 0A13.71 13.71 0 0 0 .48 12.95c-.64 7.353-.64 14.747 0 22.1a13.711 13.711 0 0 0 12.47 12.47c7.352.64 14.748.64 22.1 0a13.711 13.711 0 0 0 12.47-12.47c.64-7.353.64-14.747 0-22.1A13.71 13.71 0 0 0 35.05.48" class="background"/><path d="M20.851 34.671c-2.966 0-5.727-.87-8.051-2.36.41.05.829.074 1.253.074 2.46 0 4.725-.84 6.523-2.248a5.257 5.257 0 0 1-4.907-3.648 5.245 5.245 0 0 0 2.372-.09 5.255 5.255 0 0 1-4.213-5.15v-.066c.709.394 1.519.63 2.38.657a5.25 5.25 0 0 1-2.337-4.372c0-.962.26-1.864.711-2.64a14.91 14.91 0 0 0 10.826 5.488 5.252 5.252 0 0 1 8.95-4.79 10.518 10.518 0 0 0 3.335-1.275 5.268 5.268 0 0 1-2.31 2.905 10.501 10.501 0 0 0 3.017-.827 10.675 10.675 0 0 1-2.62 2.72c.01.224.014.451.014.679 0 6.94-5.282 14.943-14.943 14.943" class="emblem"/></g></svg>
