<?xml version="1.0" encoding="UTF-8"?>
<svg width="202px" height="56px" viewBox="0 0 202 56" version="1.1" xmlns="http://www.w3.org/2000/svg" xmlns:xlink="http://www.w3.org/1999/xlink">
    <!-- Generator: sketchtool 55 (78076) - https://sketchapp.com -->
    <title>88FC4DCB-4FBD-4FFD-8D9B-04E9214374A1</title>
    <desc>Created with sketchtool.</desc>
    <g id="Homepage" stroke="none" stroke-width="1" fill="none" fill-rule="evenodd">
        <g id="IDS_Home_05_LG" transform="translate(-48.000000, -32.000000)" fill="#FFFFFF">
            <g id="Header">
                <g id="IDS-Logo" transform="translate(48.000000, 32.000000)">
                    <g id="IDS-Lock-up">
                        <path d="M199.586804,27.8273834 C199.586804,27.3075268 199.466374,26.904086 199.223507,26.6110394 C198.98064,26.3199999 198.611321,26.1734767 198.11555,26.1734767 C197.706088,26.1734767 197.308668,26.2939068 196.923292,26.534767 C196.537916,26.7756272 196.240855,27.0606451 196.030102,27.3898207 L196.030102,33.8087452 L194.07512,33.8087452 L194.07512,27.8253762 C194.07512,27.3055196 193.95469,26.9020788 193.711823,26.6090322 C193.468955,26.3179928 193.093615,26.1714695 192.585801,26.1714695 C192.188382,26.1714695 191.800998,26.2918996 191.421643,26.5327598 C191.042289,26.77362 190.741213,27.0646594 190.518418,27.4058781 L190.518418,33.8067381 L188.563436,33.8067381 L188.563436,24.8126165 L190.518418,24.8126165 L190.518418,26.0410035 C190.741213,25.7058064 191.130604,25.3806451 191.682575,25.0635125 C192.234547,24.7463799 192.82064,24.5878136 193.442862,24.5878136 C194.087163,24.5878136 194.623077,24.7363441 195.044582,25.0354122 C195.466088,25.3324731 195.753113,25.7359139 195.901643,26.2457347 C196.186661,25.7981362 196.610174,25.4107527 197.168167,25.081577 C197.726159,24.7524014 198.322288,24.5878136 198.956554,24.5878136 C199.801571,24.5878136 200.443865,24.8146236 200.883435,25.2682437 C201.325012,25.7218638 201.543794,26.4002867 201.543794,27.3075268 L201.543794,33.8067381 L199.588812,33.8067381 L199.588812,27.8273834 L199.586804,27.8273834 Z M178.58982,26.9341933 C178.981217,26.2196413 179.523153,25.6496055 180.21964,25.2260929 C180.914121,24.8025804 181.696916,24.5918277 182.56602,24.5918277 C183.447167,24.5918277 184.223941,24.8025804 184.894335,25.2240857 C185.56473,25.6455911 186.082579,26.22767 186.449891,26.966308 C186.815196,27.704946 186.999855,28.5459496 186.999855,29.4893188 L186.999855,29.9549819 L180.053045,29.9549819 C180.127311,30.6996414 180.41835,31.3198565 180.928171,31.8176343 C181.437991,32.3134049 182.102364,32.5622938 182.921289,32.5622938 C183.38093,32.5622938 183.842579,32.4759856 184.308242,32.3013619 C184.773905,32.1267382 185.161289,31.885878 185.4724,31.5747669 L186.36559,32.8392831 C185.917991,33.2326881 185.378063,33.5317562 184.745805,33.7405017 C184.113547,33.9472401 183.435124,34.0516128 182.716558,34.0516128 C181.823368,34.0516128 181.018493,33.8549103 180.305948,33.4635125 C179.591397,33.0721146 179.029389,32.5161289 178.619927,31.7935483 C178.210465,31.0709676 178.005734,30.2440142 178.005734,29.312688 C178.001719,28.4415769 178.198422,27.6487453 178.58982,26.9341933 Z M180.759569,26.7997129 C180.324013,27.277419 180.08516,27.8334047 180.043009,28.4656627 L185.099067,28.4656627 C185.087024,28.0802864 184.986665,27.7049459 184.802006,27.3396412 C184.615339,26.9743366 184.336343,26.6732613 183.965017,26.4364154 C183.591683,26.2015767 183.12602,26.0831538 182.568027,26.0831538 C181.795268,26.0831538 181.193117,26.3220068 180.759569,26.7997129 Z M173.971326,33.4454476 C173.579928,33.0399996 173.385232,32.4579208 173.385232,31.6972039 L173.385232,26.3982793 L171.895913,26.3982793 L171.895913,24.8146234 L173.385232,24.8146234 L173.385232,22.3558421 L175.340214,22.3558421 L175.340214,24.8146234 L177.164731,24.8146234 L177.164731,26.3982793 L175.340214,26.3982793 L175.340214,31.3539781 C175.340214,31.6931896 175.41448,31.9641573 175.56301,32.1668813 C175.711541,32.3696054 175.922293,32.4699638 176.195268,32.4699638 C176.369892,32.4699638 176.540501,32.4398563 176.707096,32.377634 C176.873691,32.3154118 176.996128,32.2411466 177.070394,32.1548383 L177.536057,33.5257344 C177.126594,33.8769888 176.512401,34.0536197 175.691469,34.0536197 C174.936774,34.0536197 174.362723,33.8488885 173.971326,33.4454476 Z M164.68817,31.2957703 C165.023368,31.6430104 165.476988,31.9420785 166.047023,32.1889602 C166.617059,32.4378491 167.183081,32.5622936 167.741074,32.5622936 C168.311109,32.5622936 168.748672,32.4559136 169.053762,32.2451609 C169.356844,32.0324011 169.509389,31.7353402 169.509389,31.3539782 C169.509389,30.958566 169.334765,30.6615051 168.987525,30.4627954 C168.640285,30.2640857 168.130464,30.0834405 167.46007,29.9188527 C166.751539,29.7743366 166.171468,29.6217918 165.717848,29.4592112 C165.264228,29.2966305 164.876844,29.0377058 164.55369,28.682437 C164.230536,28.3271682 164.069963,27.8494621 164.069963,27.2473115 C164.069963,26.7655911 164.210464,26.3240141 164.489461,25.9205732 C164.768457,25.5171324 165.175912,25.1959854 165.709819,24.9551252 C166.243726,24.714265 166.875984,24.5938349 167.6086,24.5938349 C168.987525,24.5938349 170.15369,24.9952686 171.109102,25.8001431 L170.290177,27.1630105 C170.005159,26.8398564 169.625805,26.5789245 169.15412,26.3802148 C168.682435,26.1815051 168.172615,26.0831539 167.626665,26.0831539 C167.104801,26.0831539 166.695339,26.1754836 166.398278,26.3621503 C166.101217,26.5488169 165.950679,26.8017202 165.950679,27.1228671 C165.950679,27.4440141 166.111253,27.6888886 166.434407,27.8554836 C166.757561,28.0220786 167.24731,28.182652 167.905661,28.337204 C168.614192,28.4857345 169.202292,28.6523295 169.673977,28.8329746 C170.145661,29.0136198 170.549102,29.2966305 170.884299,29.684014 C171.219496,30.0693904 171.388098,30.5932613 171.388098,31.2536197 C171.388098,32.0765588 171.058923,32.7489602 170.400572,33.270824 C169.74222,33.794695 168.822937,34.0556269 167.644729,34.0556269 C166.873977,34.0556269 166.15541,33.9392111 165.485016,33.7063796 C164.814622,33.473548 164.248601,33.1403581 163.790966,32.710824 L164.68817,31.2957703 Z M156.23398,35.8781361 C156.557134,35.8781361 156.820073,35.817921 157.024804,35.6994981 C157.229536,35.579068 157.394123,35.3743368 157.518568,35.0853045 L157.966166,34.0475984 L154.278998,24.8166307 L156.364446,24.8166307 L158.989822,31.5587096 L161.615199,24.8166307 L163.718711,24.8166307 L159.379213,35.4305375 C159.082152,36.163154 158.676704,36.6810035 158.16889,36.9860931 C157.65907,37.2911827 157.032833,37.4477418 156.288174,37.461792 C156.1276,37.461792 155.936919,37.449749 155.720145,37.4276701 C155.503371,37.4055913 155.32674,37.3754837 155.190253,37.3433691 L155.487313,35.7296056 C155.712116,35.8279569 155.961005,35.8781361 156.23398,35.8781361 Z M145.543801,30.5892475 C146.015486,31.0990683 146.587529,31.5105379 147.257923,31.8276705 C147.928318,32.1448032 148.666956,32.3033695 149.473837,32.3033695 C150.304805,32.3033695 150.929034,32.1267386 151.344518,31.7714698 C151.760002,31.416201 151.968748,30.9967028 151.968748,30.510968 C151.968748,30.1436561 151.848318,29.8405737 151.60545,29.6057349 C151.362583,29.3688891 151.055486,29.1822224 150.68416,29.0437278 C150.310827,28.9052331 149.796991,28.7446596 149.13864,28.5600001 C148.207314,28.3351973 147.450611,28.10638 146.866525,27.8695342 C146.282439,27.6326883 145.780647,27.2693908 145.359142,26.7776345 C144.937636,26.2858782 144.726884,25.6355556 144.726884,24.8266666 C144.726884,24.1422222 144.915558,23.5240143 145.294912,22.9700357 C145.674267,22.4160572 146.208174,21.9805016 146.896633,21.663369 C147.585092,21.3462364 148.369895,21.1876701 149.253049,21.1876701 C151.163873,21.1876701 152.717422,21.7095339 153.90968,22.7532615 L152.661221,24.3529749 C152.189536,23.8812903 151.639572,23.5280286 151.013336,23.2911827 C150.387099,23.056344 149.736776,22.937921 149.066382,22.937921 C148.420074,22.937921 147.908246,23.0864515 147.530898,23.3835125 C147.151543,23.6805734 146.962869,24.0799999 146.962869,24.5817921 C146.962869,24.8989247 147.081292,25.163871 147.316131,25.3746237 C147.55097,25.5853764 147.846024,25.7579928 148.201292,25.890466 C148.554554,26.0229391 149.054339,26.1734767 149.700647,26.3460932 C150.631974,26.5829391 151.398712,26.8258065 152.000862,27.0746954 C152.603013,27.3235843 153.118855,27.700932 153.546382,28.2047313 C153.973909,28.7085306 154.188676,29.3769177 154.188676,30.2118998 C154.188676,30.9344805 154.014052,31.5848031 153.666812,32.1628677 C153.319572,32.7409322 152.785665,33.202581 152.065092,33.5437996 C151.344518,33.8850183 150.451328,34.0576348 149.383515,34.0576348 C148.277565,34.0576348 147.306095,33.9010756 146.469106,33.5859502 C145.63011,33.2708247 144.919572,32.833262 144.337493,32.2692476 L145.543801,30.5892475 Z M136.549679,28.074265 C136.549679,27.3918277 136.395127,26.9040858 136.084016,26.6130464 C135.772905,26.3220069 135.327314,26.1754836 134.743227,26.1754836 C134.271543,26.1754836 133.829966,26.2959137 133.420503,26.536774 C133.011041,26.7776342 132.681865,27.0686736 132.432976,27.4098922 L132.432976,33.8107525 L130.477994,33.8107525 L130.477994,24.8166306 L132.432976,24.8166306 L132.432976,26.0450177 C132.768174,25.6475983 133.215772,25.3063797 133.773765,25.0213618 C134.331758,24.7363438 134.93993,24.5938349 135.598281,24.5938349 C136.553693,24.5938349 137.276274,24.8427238 137.76803,25.3384944 C138.25778,25.834265 138.504661,26.548817 138.504661,27.4801431 L138.504661,33.8127597 L136.549679,33.8127597 L136.549679,28.074265 Z M120.851614,34.7240139 C121.198854,35.1334763 121.60631,35.42853 122.071973,35.6091752 C122.537636,35.7898203 123.081578,35.8801429 123.701794,35.8801429 C124.446453,35.8801429 125.076704,35.6814332 125.592546,35.2820067 C126.108389,34.8845874 126.365306,34.2563437 126.365306,33.4032971 L126.365306,32.3234405 C126.006023,32.783082 125.576489,33.1463795 125.080718,33.4133329 C124.584948,33.6802863 124.051041,33.8127594 123.478998,33.8127594 C122.708245,33.8127594 122.023801,33.6341214 121.42165,33.2748383 C120.8195,32.9155552 120.347815,32.389677 120.006596,31.6951968 C119.665378,31.0007165 119.494768,30.1717559 119.494768,29.2043008 C119.494768,28.2629388 119.665378,27.4420069 120.006596,26.7415051 C120.347815,26.0410034 120.8195,25.5091037 121.42165,25.1437991 C122.023801,24.7784944 122.710252,24.5958421 123.478998,24.5958421 C124.049034,24.5958421 124.582941,24.7243009 125.080718,24.9772041 C125.576489,25.2321145 126.006023,25.595412 126.365306,26.0670965 L126.365306,24.8186378 L128.320288,24.8186378 L128.320288,33.3470964 C128.320288,34.8243723 127.876704,35.8801429 126.989536,36.512401 C126.102367,37.1466662 125.006453,37.4617916 123.701794,37.4617916 C122.906955,37.4617916 122.214482,37.3614332 121.626381,37.1587092 C121.036274,36.9559852 120.474267,36.6147665 119.94036,36.1370605 L120.851614,34.7240139 Z M126.363299,27.4440141 C126.140503,27.0927596 125.811327,26.7936915 125.375772,26.5468098 C124.940216,26.2999281 124.500646,26.1754836 124.053048,26.1754836 C123.282295,26.1754836 122.668102,26.4524729 122.20846,27.0044442 C121.748819,27.5584227 121.520001,28.289032 121.520001,29.2002865 C121.520001,30.1115409 121.748819,30.8441574 122.20846,31.3961287 C122.668102,31.9501072 123.282295,32.2250893 124.053048,32.2250893 C124.500646,32.2250893 124.940216,32.1006448 125.375772,31.8537631 C125.80932,31.6068814 126.138496,31.3078133 126.363299,30.9565588 L126.363299,27.4440141 Z M116.056488,23.0844443 C115.813621,22.8496056 115.693191,22.5625805 115.693191,22.2273834 C115.693191,21.8921862 115.813621,21.6071683 116.056488,21.3703224 C116.299356,21.1354837 116.580359,21.0170607 116.903513,21.0170607 C117.238711,21.0170607 117.523729,21.1354837 117.760574,21.3703224 C117.995413,21.6071683 118.113836,21.8921862 118.113836,22.2273834 C118.113836,22.5625805 117.995413,22.8475984 117.760574,23.0844443 C117.523729,23.3212902 117.238711,23.437706 116.903513,23.437706 C116.580359,23.437706 116.297349,23.3192831 116.056488,23.0844443 Z M115.934051,24.8166307 L117.889033,24.8166307 L117.889033,33.8107528 L115.934051,33.8107528 L115.934051,24.8166307 Z M107.628388,31.2957703 C107.963585,31.6430104 108.417205,31.9420785 108.987241,32.1889602 C109.557277,32.4378491 110.123298,32.5622936 110.681291,32.5622936 C111.251327,32.5622936 111.688889,32.4559136 111.993979,32.2451609 C112.297061,32.0324011 112.449606,31.7353402 112.449606,31.3539782 C112.449606,30.958566 112.274982,30.6615051 111.927742,30.4627954 C111.580502,30.2640857 111.070681,30.0834405 110.400287,29.9188527 C109.691757,29.7743366 109.111685,29.6217918 108.658065,29.4592112 C108.204445,29.2966305 107.817062,29.0377058 107.493907,28.682437 C107.170753,28.3271682 107.01018,27.8494621 107.01018,27.2473115 C107.01018,26.7655911 107.150682,26.3240141 107.429678,25.9205732 C107.708674,25.5171324 108.11613,25.1959854 108.650036,24.9551252 C109.183943,24.714265 109.816201,24.5938349 110.548818,24.5938349 C111.927742,24.5938349 113.093907,24.9952686 114.049319,25.8001431 L113.230395,27.1630105 C112.945377,26.8398564 112.566022,26.5789245 112.094337,26.3802148 C111.622653,26.1815051 111.112832,26.0831539 110.566882,26.0831539 C110.045018,26.0831539 109.635556,26.1754836 109.338495,26.3621503 C109.041434,26.5488169 108.890897,26.8017202 108.890897,27.1228671 C108.890897,27.4440141 109.05147,27.6888886 109.374624,27.8554836 C109.697778,28.0220786 110.187527,28.182652 110.845879,28.337204 C111.554409,28.4857345 112.142509,28.6523295 112.614194,28.8329746 C113.085878,29.0136198 113.489319,29.2966305 113.824516,29.684014 C114.159714,30.0693904 114.328316,30.5932613 114.328316,31.2536197 C114.328316,32.0765588 113.99914,32.7489602 113.340789,33.270824 C112.682438,33.794695 111.763155,34.0556269 110.584947,34.0556269 C109.814194,34.0556269 109.095628,33.9392111 108.425234,33.7063796 C107.754839,33.473548 107.188818,33.1403581 106.731183,32.710824 L107.628388,31.2957703 Z M97.5443734,26.9341933 C97.9357712,26.2196413 98.4777067,25.6496055 99.1741942,25.2260929 C99.8686745,24.8025804 100.65147,24.5918277 101.520574,24.5918277 C102.401721,24.5918277 103.178495,24.8025804 103.84889,25.2240857 C104.519284,25.6455911 105.037133,26.22767 105.404445,26.966308 C105.76975,27.704946 105.954409,28.5459496 105.954409,29.4893188 L105.954409,29.9549819 L99.0075992,29.9549819 C99.0818644,30.6996414 99.3729039,31.3198565 99.8827247,31.8176343 C100.392545,32.3134049 101.056918,32.5622938 101.875843,32.5622938 C102.335485,32.5622938 102.797133,32.4759856 103.262796,32.3013619 C103.72846,32.1267382 104.115843,31.885878 104.426954,31.5747669 L105.320144,32.8392831 C104.872546,33.2326881 104.332617,33.5317562 103.700359,33.7405017 C103.068101,33.9472401 102.389678,34.0516128 101.671112,34.0516128 C100.777922,34.0516128 99.9730473,33.8549103 99.2605024,33.4635125 C98.5459504,33.0721146 97.9839433,32.5161289 97.5744809,31.7935483 C97.1650185,31.0709676 96.9602873,30.2440142 96.9602873,29.312688 C96.9582801,28.4415769 97.1549827,27.6487453 97.5443734,26.9341933 Z M99.7141225,26.7997129 C99.2785669,27.277419 99.0397139,27.8334047 98.9975633,28.4656627 L104.053621,28.4656627 C104.041578,28.0802864 103.941219,27.7049459 103.75656,27.3396412 C103.569893,26.9743366 103.290897,26.6732613 102.919571,26.4364154 C102.546237,26.2015767 102.080574,26.0831538 101.522581,26.0831538 C100.751829,26.0831538 100.149678,26.3220068 99.7141225,26.7997129 Z M84.7225812,21.3883869 L89.3410757,21.3883869 C90.619642,21.3883869 91.7496778,21.651326 92.7311832,22.1792113 C93.7126885,22.7070966 94.4754125,23.4437274 95.0213623,24.3850894 C95.5673122,25.3284585 95.8402871,26.4022936 95.8402871,27.6065947 C95.8402871,28.8108958 95.5673122,29.8807165 95.0213623,30.8180642 C94.4754125,31.7554118 93.7106814,32.4880283 92.7311832,33.0159136 C91.7496778,33.5437989 90.619642,33.806738 89.3410757,33.806738 L84.7225812,33.806738 L84.7225812,21.3883869 Z M89.3410757,32.0605012 C90.2101796,32.0605012 90.9668821,31.8637987 91.6131903,31.4703937 C92.2594986,31.0769887 92.7512548,30.5410748 93.0944806,29.864659 C93.4356992,29.1882433 93.6063086,28.4355551 93.6063086,27.6106089 C93.6063086,26.7716125 93.4417208,26.01491 93.1125451,25.3364871 C92.7833695,24.6600714 92.2956276,24.1241574 91.6513265,23.7307524 C91.0050183,23.3373474 90.2362728,23.1406449 89.3430829,23.1406449 L86.9043733,23.1406449 L86.9043733,32.0605012 L89.3410757,32.0605012 Z" id="Design-System" fill-rule="nonzero"></path>
                        <path d="M61.0761284,55.8213623 L61.0761284,54.0249465 L60.3535477,55.8213623 L60.2451606,55.8213623 L59.5185656,54.0249465 L59.5185656,55.8213623 L59.2536194,55.8213623 L59.2536194,53.685735 L59.6349814,53.685735 L60.3013613,55.3316132 L60.9637269,53.685735 L61.3450889,53.685735 L61.3450889,55.8213623 L61.0761284,55.8213623 Z M57.987096,55.8213623 L57.987096,53.9225809 L57.3106803,53.9225809 L57.3106803,53.685735 L58.9304652,53.685735 L58.9304652,53.9225809 L58.2520423,53.9225809 L58.2520423,55.8213623 L57.987096,55.8213623 Z" id="TM" fill-rule="nonzero"></path>
                        <path d="M0.0120430104,55.9999979 L0.0120430104,0.0435555541 L55.9568466,0.0435555541 L55.9568466,55.9999979 L0.0120430104,55.9999979 Z M10.4242293,23.1468671 L10.4242293,34.6174331 L13.9646736,34.6174331 L13.9646736,28.9060354 C13.9646736,27.4189244 14.2476843,25.9793832 16.0888599,25.9793832 C17.9061502,25.9793832 17.9300355,27.6784512 17.9300355,29.0003723 L17.9300355,34.6174331 L21.4698776,34.6174331 L21.4698776,28.292444 C21.4698776,25.2236843 20.8087163,22.863455 17.221505,22.8636557 C14.4132757,22.8640571 13.8229675,24.2006306 13.8229675,24.2006306 L13.8229675,23.1468671 L10.4242293,23.1468671 Z M23.3596273,21.1172185 L23.3596273,34.6174335 L26.8998709,34.6174335 L26.8998709,25.9793834 L29.5194263,25.9793834 L29.5194263,23.1468673 L26.8998709,23.1468673 L26.8998709,21.3297777 C26.8998709,19.8191827 27.4660931,19.4651182 28.5989389,19.4651182 C29.0238565,19.4651182 29.3540357,19.5594551 29.7554693,19.7011612 L29.92086,16.7038566 C29.2603009,16.5384659 28.5515697,16.4912974 27.8436414,16.4912974 C23.9967025,16.4912974 23.3596273,18.6150824 23.3596273,21.1172185 Z M36.3528316,31.7855196 C34.5819069,31.7855196 33.5207169,30.6051039 33.5207169,28.8823512 C33.5207169,27.1591971 34.5819069,25.9793834 36.3528316,25.9793834 C38.1227528,25.9793834 39.1851471,27.1591971 39.1851471,28.8823512 C39.1851471,30.6051039 38.1227528,31.7855196 36.3528316,31.7855196 Z M36.3528318,22.8640573 C32.8119859,22.8640573 29.9800719,25.2238852 29.9800719,28.8823511 C29.9800719,32.5404156 32.8119859,34.9004442 36.3528318,34.9004442 C39.8924734,34.9004442 42.7251903,32.5404156 42.7251903,28.8823511 C42.7251903,25.2238852 39.8924734,22.8640573 36.3528318,22.8640573 Z M44.1121429,23.1468673 L44.1121429,34.6174335 L47.6521859,34.6174335 L47.6521859,29.9521719 C47.6521859,27.663197 47.9829672,25.7274838 50.6733758,25.7274838 C51.1924296,25.7274838 51.6879995,25.8218207 52.1839708,25.9633261 L52.1839708,22.8556272 C48.5756841,22.7006738 47.6521859,24.1496487 47.6521859,24.1496487 L47.6521859,23.1468673 L44.1121429,23.1468673 Z M4.99443723,34.6178347 L8.53468102,34.6178347 L8.53468102,23.147068 L4.99443723,23.147068 L4.99443723,34.6178347 Z M4.99443723,19.3669677 L4.99443723,21.2575196 L8.53468102,21.2575196 L8.53468102,16.9413046 L4.99443723,19.3669677 Z" id="Fill-2"></path>
                    </g>
                </g>
            </g>
        </g>
    </g>
</svg>