<?xml version="1.0" encoding="UTF-8"?>
<svg width="245px" height="56px" viewBox="0 0 245 56" version="1.1" xmlns="http://www.w3.org/2000/svg" xmlns:xlink="http://www.w3.org/1999/xlink">
    <!-- Generator: Sketch 53 (72520) - https://sketchapp.com -->
    <title>Logo</title>
    <desc>Created with Sketch.</desc>
    <g id="Symbols" stroke="none" stroke-width="1" fill="none" fill-rule="evenodd">
        <g id="Sections/Footer" transform="translate(-48.000000, -272.000000)" fill="#323036">
            <g id="Sub-Footer" transform="translate(0.000000, 240.000000)">
                <path d="M289.136306,54.0133767 C290.077723,54.4358723 290.803307,55.034955 291.31232,55.8113544 C291.821333,56.5877539 292.075472,57.5071743 292.075472,58.5696156 C292.075472,59.6189224 291.821333,60.5346943 291.31232,61.3176611 C290.803307,62.1006278 290.077723,62.7004402 289.136306,63.1156388 C288.194153,63.5308374 287.084047,63.7388015 285.805252,63.7388015 L282.897025,63.7388015 L282.897025,67.6820935 L279.555658,67.6820935 L279.555658,53.3799982 L285.805252,53.3799982 C287.084047,53.3799982 288.194153,53.5908812 289.136306,54.0133767 Z M287.909076,60.3982407 C288.431348,59.9691778 288.692117,59.3598794 288.692117,58.5696156 C288.692117,57.7662173 288.431348,57.1496219 287.909076,56.720559 C287.386066,56.2914962 286.622915,56.0769648 285.61962,56.0769648 L282.897025,56.0769648 L282.897025,61.041835 L285.61962,61.041835 C286.622915,61.041835 287.386066,60.8273035 287.909076,60.3982407 Z M264.130693,66.9642448 C262.927771,66.324299 261.985617,65.4420932 261.304232,64.3183571 C260.62432,63.1946211 260.283995,61.9315126 260.283995,60.5283019 C260.283995,59.1258209 260.62432,57.8619827 261.304232,56.7382466 C261.985617,55.6145106 262.927771,54.7330345 264.130693,54.092359 C265.333614,53.4524132 266.684599,53.1320755 268.183647,53.1320755 C269.681959,53.1320755 271.029997,53.4524132 272.226289,54.092359 C273.422581,54.7330345 274.363998,55.6145106 275.051276,56.7382466 C275.739291,57.8619827 276.083299,59.1258209 276.083299,60.5283019 C276.083299,61.9315126 275.739291,63.1946211 275.051276,64.3183571 C274.363998,65.4420932 273.422581,66.324299 272.226289,66.9642448 C271.029997,67.6049203 269.681959,67.9245283 268.183647,67.9245283 C266.684599,67.9245283 265.333614,67.6049203 264.130693,66.9642448 Z M270.493728,64.5226728 C271.181007,64.1344731 271.720959,63.5930366 272.112847,62.8983634 C272.503999,62.2036902 272.70068,61.4141562 272.70068,60.5283019 C272.70068,59.6431773 272.503999,58.8529136 272.112847,58.1582404 C271.720959,57.4635672 271.181007,56.9221307 270.493728,56.533931 C269.805713,56.1457313 269.035931,55.9516314 268.183647,55.9516314 C267.330626,55.9516314 266.560845,56.1457313 265.873566,56.533931 C265.185551,56.9221307 264.646336,57.4635672 264.254447,58.1582404 C263.862558,58.8529136 263.665877,59.6431773 263.665877,60.5283019 C263.665877,61.4141562 263.862558,62.2036902 264.254447,62.8983634 C264.646336,63.5930366 265.185551,64.1344731 265.873566,64.5226728 C266.560845,64.9108725 267.330626,65.1049724 268.183647,65.1049724 C269.035931,65.1049724 269.805713,64.9108725 270.493728,64.5226728 Z M245.609874,66.9642448 C244.406952,66.324299 243.464799,65.4420932 242.783413,64.3183571 C242.103501,63.1946211 241.763177,61.9315126 241.763177,60.5283019 C241.763177,59.1258209 242.103501,57.8619827 242.783413,56.7382466 C243.464799,55.6145106 244.406952,54.7330345 245.609874,54.092359 C246.812796,53.4524132 248.16378,53.1320755 249.662828,53.1320755 C251.16114,53.1320755 252.509178,53.4524132 253.70547,54.092359 C254.901762,54.7330345 255.843179,55.6145106 256.530458,56.7382466 C257.218473,57.8619827 257.56248,59.1258209 257.56248,60.5283019 C257.56248,61.9315126 257.218473,63.1946211 256.530458,64.3183571 C255.843179,65.4420932 254.901762,66.324299 253.70547,66.9642448 C252.509178,67.6049203 251.16114,67.9245283 249.662828,67.9245283 C248.16378,67.9245283 246.812796,67.6049203 245.609874,66.9642448 Z M251.972909,64.5226728 C252.660188,64.1344731 253.20014,63.5930366 253.592029,62.8983634 C253.983181,62.2036902 254.179862,61.4141562 254.179862,60.5283019 C254.179862,59.6431773 253.983181,58.8529136 253.592029,58.1582404 C253.20014,57.4635672 252.660188,56.9221307 251.972909,56.533931 C251.284894,56.1457313 250.515113,55.9516314 249.662828,55.9516314 C248.809808,55.9516314 248.040026,56.1457313 247.352748,56.533931 C246.664732,56.9221307 246.125517,57.4635672 245.733628,58.1582404 C245.34174,58.8529136 245.145059,59.6431773 245.145059,60.5283019 C245.145059,61.4141562 245.34174,62.2036902 245.733628,62.8983634 C246.125517,63.5930366 246.664732,64.1344731 247.352748,64.5226728 C248.040026,64.9108725 248.809808,65.1049724 249.662828,65.1049724 C250.515113,65.1049724 251.284894,64.9108725 251.972909,64.5226728 Z M229.499391,53.3799982 L232.840758,53.3799982 L232.840758,64.985127 L240.080387,64.985127 L240.080387,67.6820935 L229.499391,67.6820935 L229.499391,53.3799982 Z M208.315039,62.0345441 C208.519148,62.2084098 208.818284,62.5674737 208.94755,62.7492076 C209.191364,63.0917715 209.194487,63.5401464 208.87673,63.8188246 C208.774435,63.9085465 208.670458,63.9973877 208.56492,64.0849957 C206.992472,65.3897805 205.555176,66.0240582 204.17092,66.0240582 C201.024404,66.0240582 198.464506,63.52165 198.464506,60.4457965 C198.464506,57.3699429 201.024404,54.8675347 204.17092,54.8675347 C205.555176,54.8675347 206.992472,55.5018124 208.56492,56.8065972 C209.285249,57.4042933 209.933017,58.0603556 210.47795,58.6530019 C211.022702,58.060473 211.670591,57.4044694 212.391161,56.8065972 C213.963548,55.5018124 215.400844,54.8675347 216.7851,54.8675347 C219.931617,54.8675347 222.491514,57.3699429 222.491514,60.4457965 C222.491514,63.52165 219.931617,66.0240582 216.7851,66.0240582 C215.400844,66.0240582 213.963548,65.3897805 212.391161,64.0849957 C211.206809,63.1022822 210.216897,61.9607936 209.5618,61.2054383 C208.526356,60.0114554 206.102392,57.2162765 204.17092,57.2162765 C202.349253,57.2162765 200.867207,58.6650392 200.867207,60.4457965 C200.867207,62.2265538 202.349253,63.6753164 204.17092,63.6753164 C205.192248,63.6753164 206.351191,62.8937139 207.369756,61.9806992 C207.643964,61.7349034 208.034583,61.7956184 208.315039,62.0345441 Z M216.691631,63.5448308 C218.509635,63.5448308 219.988701,62.0989949 219.988701,60.3218351 C219.988701,58.5446753 218.509635,57.0988394 216.691631,57.0988394 C215.104901,57.0988394 213.185287,58.9889213 211.979698,60.3218351 C213.185466,61.6549247 215.104961,63.5448308 216.691631,63.5448308 Z M184.952965,62.0634132 L183.014147,64.0657065 L183.014147,67.6820935 L179.693406,67.6820935 L179.693406,53.3799982 L183.014147,53.3799982 L183.014147,60.0611199 L189.408122,53.3799982 L193.120752,53.3799982 L187.139292,59.7546464 L193.471389,67.6820935 L189.573127,67.6820935 L184.952965,62.0634132 Z M164.018159,66.9642448 C162.815238,66.324299 161.873084,65.4420932 161.191699,64.3183571 C160.511787,63.1946211 160.171462,61.9315126 160.171462,60.5283019 C160.171462,59.1258209 160.511787,57.8619827 161.191699,56.7382466 C161.873084,55.6145106 162.815238,54.7330345 164.018159,54.092359 C165.221081,53.4524132 166.572066,53.1320755 168.071114,53.1320755 C169.569425,53.1320755 170.917464,53.4524132 172.113756,54.092359 C173.310048,54.7330345 174.251464,55.6145106 174.938743,56.7382466 C175.626758,57.8619827 175.970766,59.1258209 175.970766,60.5283019 C175.970766,61.9315126 175.626758,63.1946211 174.938743,64.3183571 C174.251464,65.4420932 173.310048,66.324299 172.113756,66.9642448 C170.917464,67.6049203 169.569425,67.9245283 168.071114,67.9245283 C166.572066,67.9245283 165.221081,67.6049203 164.018159,66.9642448 Z M170.381195,64.5226728 C171.068473,64.1344731 171.608425,63.5930366 172.000314,62.8983634 C172.391466,62.2036902 172.588147,61.4141562 172.588147,60.5283019 C172.588147,59.6431773 172.391466,58.8529136 172.000314,58.1582404 C171.608425,57.4635672 171.068473,56.9221307 170.381195,56.533931 C169.69318,56.1457313 168.923398,55.9516314 168.071114,55.9516314 C167.218093,55.9516314 166.448312,56.1457313 165.761033,56.533931 C165.073018,56.9221307 164.533802,57.4635672 164.141914,58.1582404 C163.750025,58.8529136 163.553344,59.6431773 163.553344,60.5283019 C163.553344,61.4141562 163.750025,62.2036902 164.141914,62.8983634 C164.533802,63.5930366 165.073018,64.1344731 165.761033,64.5226728 C166.448312,64.9108725 167.218093,65.1049724 168.071114,65.1049724 C168.923398,65.1049724 169.69318,64.9108725 170.381195,64.5226728 Z M145.747622,66.9642448 C144.5447,66.324299 143.602547,65.4420932 142.921161,64.3183571 C142.241249,63.1946211 141.900925,61.9315126 141.900925,60.5283019 C141.900925,59.1258209 142.241249,57.8619827 142.921161,56.7382466 C143.602547,55.6145106 144.5447,54.7330345 145.747622,54.092359 C146.950544,53.4524132 148.301529,53.1320755 149.800577,53.1320755 C151.298888,53.1320755 152.646926,53.4524132 153.843218,54.092359 C155.03951,54.7330345 155.980927,55.6145106 156.668206,56.7382466 C157.356221,57.8619827 157.700228,59.1258209 157.700228,60.5283019 C157.700228,61.9315126 157.356221,63.1946211 156.668206,64.3183571 C155.980927,65.4420932 155.03951,66.324299 153.843218,66.9642448 C152.646926,67.6049203 151.298888,67.9245283 149.800577,67.9245283 C148.301529,67.9245283 146.950544,67.6049203 145.747622,66.9642448 Z M152.110658,64.5226728 C152.797936,64.1344731 153.337888,63.5930366 153.729777,62.8983634 C154.120929,62.2036902 154.31761,61.4141562 154.31761,60.5283019 C154.31761,59.6431773 154.120929,58.8529136 153.729777,58.1582404 C153.337888,57.4635672 152.797936,56.9221307 152.110658,56.533931 C151.422642,56.1457313 150.652861,55.9516314 149.800577,55.9516314 C148.947556,55.9516314 148.177774,56.1457313 147.490496,56.533931 C146.80248,56.9221307 146.263265,57.4635672 145.871376,58.1582404 C145.479488,58.8529136 145.282807,59.6431773 145.282807,60.5283019 C145.282807,61.4141562 145.479488,62.2036902 145.871376,62.8983634 C146.263265,63.5930366 146.80248,64.1344731 147.490496,64.5226728 C148.177774,64.9108725 148.947556,65.1049724 149.800577,65.1049724 C150.652861,65.1049724 151.422642,64.9108725 152.110658,64.5226728 Z M138.37379,53.3799982 L138.37379,67.6820935 L135.032422,67.6820935 L135.032422,61.8182344 L128.474179,61.8182344 L128.474179,67.6820935 L125.132075,67.6820935 L125.132075,53.3799982 L128.474179,53.3799982 L128.474179,59.0191101 L135.032422,59.0191101 L135.032422,53.3799982 L138.37379,53.3799982 Z M105.765343,88 L105.765343,86.1217549 L105.056604,86.1217549 L105.056604,85.8867925 L106.756651,85.8867925 L106.756651,86.1217549 L106.044051,86.1217549 L106.044051,88 L105.765343,88 Z M109.00431,88 L109.00431,86.2228688 L108.246932,88 L108.134213,88 L107.369887,86.2228688 L107.369887,88 L107.089634,88 L107.089634,85.8867925 L107.491871,85.8867925 L108.189029,87.5147988 L108.885415,85.8867925 L109.283019,85.8867925 L109.283019,88 L109.00431,88 Z M48,88 L48,32 L104,32 L104,88 L48,88 Z M100.225621,57.9394545 L100.225621,54.829489 C96.6147372,54.6741012 95.6890017,56.1234055 95.6890017,56.1234055 L95.6890017,55.1211173 L92.145136,55.1211173 L92.145136,66.6021409 L95.6890017,66.6021409 L95.6890017,61.9338786 C95.6890017,59.6413561 96.0196741,57.7060046 98.7121872,57.7060046 C99.2328673,57.7060046 99.7277713,57.798059 100.225621,57.9394545 Z M78.0035508,60.8601562 C78.0035508,64.5231846 80.8382014,66.8834591 84.3798577,66.8834591 C87.9222504,66.8834591 90.7591105,64.5231846 90.7591105,60.8601562 C90.7591105,57.1986008 87.9222504,54.8383262 84.3798577,54.8383262 C80.8382014,54.8383262 78.0035508,57.1986008 78.0035508,60.8601562 Z M81.5300145,60.9257601 C81.5300145,59.2025019 82.5912594,58.0219964 84.3631922,58.0219964 C86.135125,58.0219964 87.1963699,59.2025019 87.1963699,60.9257601 C87.1963699,62.6519641 86.135125,63.833206 84.3631922,63.833206 C82.5912594,63.833206 81.5300145,62.6519641 81.5300145,60.9257601 Z M77.7759834,51.673128 L77.9424243,48.6721549 C77.2825524,48.5094027 76.5740738,48.4578522 75.8633859,48.4578522 C72.0146241,48.4578522 71.378319,50.5861498 71.378319,53.0900292 L71.378319,66.6021409 L74.9185023,66.6021409 L74.9185023,57.9556561 L77.5425242,57.9556561 L77.5425242,55.1211173 L74.9185023,55.1211173 L74.9185023,53.3013861 C74.9185023,51.7931669 75.4870527,51.4374688 76.6204711,51.4374688 C77.0468838,51.4374688 77.3768198,51.5324689 77.7759834,51.673128 Z M69.487079,66.6021409 L69.487079,60.2717446 C69.487079,57.1986008 68.8220518,54.8383262 65.2354713,54.8383262 C62.423651,54.8383262 61.8330067,56.1749559 61.8330067,56.1749559 L61.8330067,55.1211173 L58.4312787,55.1211173 L58.4312787,66.6021409 L61.9758808,66.6021409 L61.9758808,60.8859315 C61.9758808,59.3953868 62.2579466,57.9556561 64.1013164,57.9556561 C65.9196465,57.9556561 65.9439498,59.6546119 65.9439498,60.9794587 L65.9439498,66.6021409 L69.487079,66.6021409 Z M52.9991189,66.6021409 L56.5393022,66.6021409 L56.5393022,55.1211173 L52.9991189,55.1211173 L52.9991189,66.6021409 Z M56.5393022,53.2299519 L56.5393022,48.9137056 L52.9998553,51.3387865 L52.9998553,53.2299519 L56.5393022,53.2299519 Z" id="Logo"></path>
            </g>
        </g>
    </g>
</svg>