<?xml version="1.0" encoding="UTF-8"?>
<svg width="210px" height="48px" viewBox="0 0 210 48" version="1.1" xmlns="http://www.w3.org/2000/svg" xmlns:xlink="http://www.w3.org/1999/xlink">
    <!-- Generator: sketchtool 55 (78076) - https://sketchapp.com -->
    <title>DF36D520-80E1-492B-B36B-F3D43E97FB99</title>
    <desc>Created with sketchtool.</desc>
    <defs>
        <polygon id="path-1" points="0.0103225807 0.0373333331 47.9630132 0.0373333331 47.9630132 48 0.0103225807 48"></polygon>
    </defs>
    <g id="Landing-Page" stroke="none" stroke-width="1" fill="none" fill-rule="evenodd">
        <g id="IDS_Blog_Landing_LG" transform="translate(-48.000000, -2828.000000)">
            <g id="Footer" transform="translate(0.000000, 2488.000000)">
                <g id="Sub-Footer" transform="translate(0.000000, 304.000000)">
                    <g id="Logos/Infor-Hook&amp;Loop" transform="translate(48.000000, 36.000000)">
                        <path d="M138.07668,25.6946222 C138.251434,25.8448985 138.507549,26.1552462 138.618223,26.3123233 C138.826971,26.6084098 138.829646,26.9959511 138.557589,27.2368195 C138.470006,27.3143684 138.380983,27.391156 138.290623,27.4668778 C136.944326,28.5946353 135.713743,29.1428571 134.528571,29.1428571 C131.834589,29.1428571 129.642857,26.9799643 129.642857,24.3214286 C129.642857,21.6628929 131.834589,19.5 134.528571,19.5 C135.713743,19.5 136.944326,20.0482218 138.290623,21.1759793 C138.907354,21.6925827 139.46196,22.2596335 139.92852,22.7718722 C140.394926,22.259735 140.949634,21.692735 141.566571,21.1759793 C142.912817,20.0482218 144.1434,19.5 145.328571,19.5 C148.022554,19.5 150.214286,21.6628929 150.214286,24.3214286 C150.214286,26.9799643 148.022554,29.1428571 145.328571,29.1428571 C144.1434,29.1428571 142.912817,28.5946353 141.566571,27.4668778 C140.552554,26.6174944 139.705011,25.6308778 139.144131,24.9780056 C138.257606,23.9460169 136.182257,21.5300752 134.528571,21.5300752 C132.968897,21.5300752 131.7,22.7822763 131.7,24.3214286 C131.7,25.8605808 132.968897,27.112782 134.528571,27.112782 C135.403011,27.112782 136.395274,26.4372237 137.267349,25.6480827 C137.50212,25.4356353 137.83656,25.4881128 138.07668,25.6946222 Z M145.248545,27 C146.805083,27 148.071429,25.7503286 148.071429,24.2142857 C148.071429,22.6782429 146.805083,21.4285714 145.248545,21.4285714 C143.89002,21.4285714 142.246486,23.0622156 141.214286,24.2142857 C142.24664,25.3665078 143.890071,27 145.248545,27 Z M78.1944253,18.2142857 L78.1944253,30.5759378 L75.3336157,30.5759378 L75.3336157,25.5076605 L69.7185831,25.5076605 L69.7185831,30.5759378 L66.8571429,30.5759378 L66.8571429,18.2142857 L69.7185831,18.2142857 L69.7185831,23.0883085 L75.3336157,23.0883085 L75.3336157,18.2142857 L78.1944253,18.2142857 Z M89.9556484,27.8451731 C90.5440821,27.5096426 91.0063779,27.0416657 91.3419049,26.4412426 C91.6768013,25.8408195 91.8451955,25.1584058 91.8451955,24.3927402 C91.8451955,23.6277053 91.6768013,22.9446609 91.3419049,22.3442378 C91.0063779,21.7438146 90.5440821,21.2758378 89.9556484,20.9403072 C89.366584,20.6047767 88.707513,20.4370114 87.9778047,20.4370114 C87.2474657,20.4370114 86.5883947,20.6047767 85.999961,20.9403072 C85.4108966,21.2758378 84.9492315,21.7438146 84.6137044,22.3442378 C84.2781774,22.9446609 84.1097832,23.6277053 84.1097832,24.3927402 C84.1097832,25.1584058 84.2781774,25.8408195 84.6137044,26.4412426 C84.9492315,27.0416657 85.4108966,27.5096426 85.999961,27.8451731 C86.5883947,28.1807037 87.2474657,28.348469 87.9778047,28.348469 C88.707513,28.348469 89.366584,28.1807037 89.9556484,27.8451731 Z M84.5077487,29.9554833 C83.477832,29.4023625 82.6711795,28.6398504 82.0877913,27.6685777 C81.5056645,26.6973051 81.2142857,25.6055694 81.2142857,24.39274 C81.2142857,23.1805413 81.5056645,22.0881749 82.0877913,21.1169022 C82.6711795,20.1456296 83.477832,19.3837482 84.5077487,18.8299966 C85.5376654,18.2768758 86.6943508,18 87.9778049,18 C89.2606282,18 90.4147909,18.2768758 91.4390314,18.8299966 C92.4632719,19.3837482 93.2692936,20.1456296 93.8577274,21.1169022 C94.4467918,22.0881749 94.741324,23.1805413 94.741324,24.39274 C94.741324,25.6055694 94.4467918,26.6973051 93.8577274,27.6685777 C93.2692936,28.6398504 92.4632719,29.4023625 91.4390314,29.9554833 C90.4147909,30.5092349 89.2606282,30.78548 87.9778049,30.78548 C86.6943508,30.78548 85.5376654,30.5092349 84.5077487,29.9554833 Z M105.598506,27.8451731 C106.186939,27.5096426 106.649235,27.0416657 106.984762,26.4412426 C107.319658,25.8408195 107.488053,25.1584058 107.488053,24.3927402 C107.488053,23.6277053 107.319658,22.9446609 106.984762,22.3442378 C106.649235,21.7438146 106.186939,21.2758378 105.598506,20.9403072 C105.009441,20.6047767 104.35037,20.4370114 103.620662,20.4370114 C102.890323,20.4370114 102.231252,20.6047767 101.642818,20.9403072 C101.053754,21.2758378 100.592089,21.7438146 100.256562,22.3442378 C99.9210345,22.9446609 99.7526403,23.6277053 99.7526403,24.3927402 C99.7526403,25.1584058 99.9210345,25.8408195 100.256562,26.4412426 C100.592089,27.0416657 101.053754,27.5096426 101.642818,27.8451731 C102.231252,28.1807037 102.890323,28.348469 103.620662,28.348469 C104.35037,28.348469 105.009441,28.1807037 105.598506,27.8451731 Z M100.150606,29.9554833 C99.1206891,29.4023625 98.3140367,28.6398504 97.7306485,27.6685777 C97.1485216,26.6973051 96.8571429,25.6055694 96.8571429,24.39274 C96.8571429,23.1805413 97.1485216,22.0881749 97.7306485,21.1169022 C98.3140367,20.1456296 99.1206891,19.3837482 100.150606,18.8299966 C101.180523,18.2768758 102.337208,18 103.620662,18 C104.903485,18 106.057648,18.2768758 107.081889,18.8299966 C108.106129,19.3837482 108.912151,20.1456296 109.500585,21.1169022 C110.089649,22.0881749 110.384181,23.1805413 110.384181,24.39274 C110.384181,25.6055694 110.089649,26.6973051 109.500585,27.6685777 C108.912151,28.6398504 108.106129,29.4023625 107.081889,29.9554833 C106.057648,30.5092349 104.903485,30.78548 103.620662,30.78548 C102.337208,30.78548 101.180523,30.5092349 100.150606,29.9554833 Z M118.074555,25.7195745 L116.414579,27.4502058 L116.414579,30.5759378 L113.571429,30.5759378 L113.571429,18.2142857 L116.414579,18.2142857 L116.414579,23.9889432 L121.888967,18.2142857 L125.067644,18.2142857 L119.946442,23.7240507 L125.367853,30.5759378 L122.030242,30.5759378 L118.074555,25.7195745 Z M156.214286,18.2142857 L159.075095,18.2142857 L159.075095,28.2448834 L165.273516,28.2448834 L165.273516,30.5759378 L156.214286,30.5759378 L156.214286,18.2142857 Z M175.455648,27.8451731 C176.044082,27.5096426 176.506378,27.0416657 176.841905,26.4412426 C177.176801,25.8408195 177.345195,25.1584058 177.345195,24.3927402 C177.345195,23.6277053 177.176801,22.9446609 176.841905,22.3442378 C176.506378,21.7438146 176.044082,21.2758378 175.455648,20.9403072 C174.866584,20.6047767 174.207513,20.4370114 173.477805,20.4370114 C172.747466,20.4370114 172.088395,20.6047767 171.499961,20.9403072 C170.910897,21.2758378 170.449232,21.7438146 170.113704,22.3442378 C169.778177,22.9446609 169.609783,23.6277053 169.609783,24.3927402 C169.609783,25.1584058 169.778177,25.8408195 170.113704,26.4412426 C170.449232,27.0416657 170.910897,27.5096426 171.499961,27.8451731 C172.088395,28.1807037 172.747466,28.348469 173.477805,28.348469 C174.207513,28.348469 174.866584,28.1807037 175.455648,27.8451731 Z M170.007749,29.9554833 C168.977832,29.4023625 168.17118,28.6398504 167.587791,27.6685777 C167.005664,26.6973051 166.714286,25.6055694 166.714286,24.39274 C166.714286,23.1805413 167.005664,22.0881749 167.587791,21.1169022 C168.17118,20.1456296 168.977832,19.3837482 170.007749,18.8299966 C171.037665,18.2768758 172.194351,18 173.477805,18 C174.760628,18 175.914791,18.2768758 176.939031,18.8299966 C177.963272,19.3837482 178.769294,20.1456296 179.357727,21.1169022 C179.946792,22.0881749 180.241324,23.1805413 180.241324,24.39274 C180.241324,25.6055694 179.946792,26.6973051 179.357727,27.6685777 C178.769294,28.6398504 177.963272,29.4023625 176.939031,29.9554833 C175.914791,30.5092349 174.760628,30.78548 173.477805,30.78548 C172.194351,30.78548 171.037665,30.5092349 170.007749,29.9554833 Z M191.312791,27.8451731 C191.901225,27.5096426 192.363521,27.0416657 192.699048,26.4412426 C193.033944,25.8408195 193.202338,25.1584058 193.202338,24.3927402 C193.202338,23.6277053 193.033944,22.9446609 192.699048,22.3442378 C192.363521,21.7438146 191.901225,21.2758378 191.312791,20.9403072 C190.723727,20.6047767 190.064656,20.4370114 189.334948,20.4370114 C188.604609,20.4370114 187.945538,20.6047767 187.357104,20.9403072 C186.768039,21.2758378 186.306374,21.7438146 185.970847,22.3442378 C185.63532,22.9446609 185.466926,23.6277053 185.466926,24.3927402 C185.466926,25.1584058 185.63532,25.8408195 185.970847,26.4412426 C186.306374,27.0416657 186.768039,27.5096426 187.357104,27.8451731 C187.945538,28.1807037 188.604609,28.348469 189.334948,28.348469 C190.064656,28.348469 190.723727,28.1807037 191.312791,27.8451731 Z M185.864892,29.9554833 C184.834975,29.4023625 184.028322,28.6398504 183.444934,27.6685777 C182.862807,26.6973051 182.571429,25.6055694 182.571429,24.39274 C182.571429,23.1805413 182.862807,22.0881749 183.444934,21.1169022 C184.028322,20.1456296 184.834975,19.3837482 185.864892,18.8299966 C186.894808,18.2768758 188.051494,18 189.334948,18 C190.617771,18 191.771934,18.2768758 192.796174,18.8299966 C193.820415,19.3837482 194.626437,20.1456296 195.21487,21.1169022 C195.803935,22.0881749 196.098467,23.1805413 196.098467,24.39274 C196.098467,25.6055694 195.803935,26.6973051 195.21487,27.6685777 C194.626437,28.6398504 193.820415,29.4023625 192.796174,29.9554833 C191.771934,30.5092349 190.617771,30.78548 189.334948,30.78548 C188.051494,30.78548 186.894808,30.5092349 185.864892,29.9554833 Z M206.223453,24.2803251 C206.670612,23.9094756 206.893876,23.3828439 206.893876,22.6997996 C206.893876,22.0054027 206.670612,21.4724641 206.223453,21.1016145 C205.775663,20.7307649 205.122268,20.5453401 204.263268,20.5453401 L201.932238,20.5453401 L201.932238,24.8365995 L204.263268,24.8365995 C205.122268,24.8365995 205.775663,24.6511747 206.223453,24.2803251 Z M207.274182,18.7617303 C208.080204,19.1269036 208.701434,19.6447055 209.13724,20.3157666 C209.573047,20.9868277 209.790635,21.7815053 209.790635,22.6997995 C209.790635,23.6067411 209.573047,24.3982652 209.13724,25.0750026 C208.701434,25.75174 208.080204,26.2701726 207.274182,26.6290389 C206.46753,26.9879052 205.51708,27.1676537 204.422202,27.1676537 L201.932238,27.1676537 L201.932238,30.5759378 L199.071429,30.5759378 L199.071429,18.2142857 L204.422202,18.2142857 C205.51708,18.2142857 206.46753,18.396557 207.274182,18.7617303 Z" id="Hook&amp;Loop" fill="#686C75"></path>
                        <path d="M52.342913,47.9592987 L52.342913,46.4185071 L51.7242061,47.9592987 L51.6321254,47.9592987 L51.0077423,46.4185071 L51.0077423,47.9592987 L50.7788018,47.9592987 L50.7788018,46.1271253 L51.1073913,46.1271253 L51.6769044,47.5386241 L52.2457867,46.1271253 L52.5705921,46.1271253 L52.5705921,47.9592987 L52.342913,47.9592987 Z M49.6969794,47.9592987 L49.6969794,46.3308403 L49.118006,46.3308403 L49.118006,46.1271253 L50.5067853,46.1271253 L50.5067853,46.3308403 L49.9246585,46.3308403 L49.9246585,47.9592987 L49.6969794,47.9592987 Z" id="TM" fill="#686C75"></path>
                        <g id="Logos/Infor">
                            <g id="Infor_Logo_RGB_073112">
                                <g id="Group-3">
                                    <mask id="mask-2" fill="white">
                                        <use xlink:href="#path-1"></use>
                                    </mask>
                                    <g id="Clip-2"></g>
                                    <polygon id="Fill-1" fill="#C2242B" mask="url(#mask-2)" points="0.0103225807 48 47.9630132 48 47.9630132 0.0373333331 0.0103225807 0.0373333331"></polygon>
                                </g>
                                <polygon id="Fill-4" fill="#FFFFFE" points="4.28094619 29.67243 7.31544074 29.67243 7.31544074 19.8403438 4.28094619 19.8403438"></polygon>
                                <path d="M8.93505375,19.8401724 L11.848258,19.8401724 L11.848258,20.7433982 C11.848258,20.7433982 12.3542365,19.5977638 14.7612902,19.5974197 C17.8360428,19.5972476 18.4027525,21.6203014 18.4027525,24.2506671 L18.4027525,29.6720865 L15.368602,29.6720865 L15.368602,24.8574628 C15.368602,23.7243875 15.3481289,22.2680434 13.7904515,22.2680434 C12.212301,22.2680434 11.9697204,23.5019359 11.9697204,24.7766026 L11.9697204,29.6720865 L8.93505375,29.6720865 L8.93505375,19.8401724" id="Fill-5" fill="#FFFFFE"></path>
                                <path d="M20.0225375,18.1004728 C20.0225375,15.9557846 20.5686021,14.1353974 23.8659784,14.1353974 C24.4727741,14.1353974 25.080258,14.1758276 25.6464515,14.317591 L25.5046881,16.8867093 C25.1606021,16.765247 24.8775913,16.6843867 24.5133763,16.6843867 C23.5423655,16.6843867 23.0570322,16.9878706 23.0570322,18.2826663 L23.0570322,19.8401717 L25.3023655,19.8401717 L25.3023655,22.2680427 L23.0570322,22.2680427 L23.0570322,29.6720859 L20.0225375,29.6720859 L20.0225375,18.1004728" id="Fill-6" fill="#FFFFFE"></path>
                                <path d="M31.1595689,27.2447309 C32.6766442,27.2447309 33.5872679,26.2329459 33.5872679,24.7563007 C33.5872679,23.2793115 32.6766442,22.2680426 31.1595689,22.2680426 C29.6416334,22.2680426 28.732042,23.2793115 28.732042,24.7563007 C28.732042,26.2329459 29.6416334,27.2447309 31.1595689,27.2447309 M31.1595687,19.5977632 C34.1935471,19.5977632 36.62159,21.6204729 36.62159,24.7563009 C36.62159,27.8917848 34.1935471,29.9146665 31.1595687,29.9146665 C28.1245581,29.9146665 25.6972033,27.8917848 25.6972033,24.7563009 C25.6972033,21.6204729 28.1245581,19.5977632 31.1595687,19.5977632" id="Fill-7" fill="#FFFFFE"></path>
                                <path d="M37.810408,19.840172 L40.8447305,19.840172 L40.8447305,20.6996988 C40.8447305,20.6996988 41.6363004,19.4577204 44.7291176,19.5905376 L44.7291176,22.2542795 C44.3039993,22.1329892 43.8792251,22.0521289 43.4343219,22.0521289 C41.1282574,22.0521289 40.8447305,23.7113117 40.8447305,25.6732902 L40.8447305,29.6720859 L37.810408,29.6720859 L37.810408,19.840172" id="Fill-8" fill="#FFFFFE"></path>
                                <polyline id="Fill-9" fill="#FFFFFE" points="4.28094619 16.6002583 7.31544074 14.5211186 7.31544074 18.2207314 4.28094619 18.2207314 4.28094619 16.6002583"></polyline>
                            </g>
                        </g>
                    </g>
                </g>
            </g>
        </g>
    </g>
</svg>