<?xml version="1.0" encoding="UTF-8" standalone="no"?>
<svg width="1321px" height="948px" viewBox="0 0 1321 948" version="1.1" xmlns="http://www.w3.org/2000/svg" xmlns:xlink="http://www.w3.org/1999/xlink">
    <!-- Generator: Sketch 48.2 (47327) - http://www.bohemiancoding.com/sketch -->
    <title>Elements</title>
    <desc>Created with Sketch.</desc>
    <defs>
        <rect id="path-1" x="0" y="0" width="278" height="48"></rect>
        <rect id="path-2" x="0" y="0" width="278" height="48"></rect>
        <rect id="path-3" x="0" y="0" width="278" height="48"></rect>
        <rect id="path-4" x="0" y="0" width="278" height="48"></rect>
        <rect id="path-5" x="0" y="0" width="278" height="48"></rect>
        <rect id="path-6" x="0" y="0" width="278" height="48"></rect>
        <rect id="path-7" x="0" y="0" width="278" height="48"></rect>
        <rect id="path-8" x="0" y="0" width="278" height="48"></rect>
        <rect id="path-9" x="0" y="0" width="278" height="48"></rect>
        <rect id="path-10" x="0" y="0" width="278" height="48"></rect>
        <rect id="path-11" x="0" y="0" width="278" height="48"></rect>
        <rect id="path-12" x="0" y="0" width="278" height="48"></rect>
        <rect id="path-13" x="0" y="0" width="278" height="40"></rect>
        <rect id="path-14" x="0" y="0" width="280" height="48"></rect>
        <rect id="path-15" x="0" y="0" width="280" height="48"></rect>
        <rect id="path-16" x="0" y="0" width="280" height="48"></rect>
        <rect id="path-17" x="0" y="0" width="280" height="48"></rect>
        <rect id="path-18" x="0" y="0" width="280" height="48"></rect>
        <rect id="path-19" x="0" y="0" width="280" height="48"></rect>
        <rect id="path-20" x="0" y="0" width="280" height="48"></rect>
        <rect id="path-21" x="0" y="0" width="280" height="48"></rect>
        <rect id="path-22" x="0" y="0" width="280" height="48"></rect>
        <rect id="path-23" x="0" y="0" width="280" height="48"></rect>
        <rect id="path-24" x="0" y="0" width="280" height="48"></rect>
        <rect id="path-25" x="0" y="0" width="280" height="48"></rect>
        <rect id="path-26" x="0" y="0" width="280" height="40"></rect>
        <rect id="path-27" x="0" y="0" width="280" height="48"></rect>
        <rect id="path-28" x="0" y="0" width="280" height="48"></rect>
        <rect id="path-29" x="0" y="0" width="280" height="48"></rect>
        <rect id="path-30" x="0" y="0" width="280" height="48"></rect>
        <rect id="path-31" x="0" y="0" width="280" height="48"></rect>
        <rect id="path-32" x="0" y="0" width="280" height="48"></rect>
        <rect id="path-33" x="0" y="0" width="280" height="48"></rect>
        <rect id="path-34" x="0" y="0" width="280" height="48"></rect>
        <rect id="path-35" x="0" y="0" width="280" height="48"></rect>
        <rect id="path-36" x="0" y="0" width="280" height="48"></rect>
        <rect id="path-37" x="0" y="0" width="280" height="48"></rect>
        <rect id="path-38" x="0" y="0" width="280" height="48"></rect>
        <rect id="path-39" x="0" y="0" width="280" height="40"></rect>
        <rect id="path-40" x="0" y="0" width="215" height="48"></rect>
        <rect id="path-41" x="0" y="0" width="215" height="48"></rect>
        <rect id="path-42" x="0" y="0" width="215" height="48"></rect>
        <rect id="path-43" x="0" y="0" width="215" height="48"></rect>
        <rect id="path-44" x="0" y="0" width="215" height="48"></rect>
        <rect id="path-45" x="0" y="0" width="215" height="48"></rect>
        <rect id="path-46" x="0" y="0" width="215" height="48"></rect>
        <rect id="path-47" x="0" y="0" width="215" height="48"></rect>
        <rect id="path-48" x="0" y="0" width="215" height="48"></rect>
        <rect id="path-49" x="0" y="0" width="215" height="48"></rect>
        <rect id="path-50" x="0" y="0" width="215" height="48"></rect>
        <rect id="path-51" x="0" y="0" width="215" height="48"></rect>
        <rect id="path-52" x="0" y="0" width="215" height="40"></rect>
        <rect id="path-53" x="0" y="0" width="280" height="48"></rect>
        <rect id="path-54" x="0" y="0" width="280" height="48"></rect>
        <rect id="path-55" x="0" y="0" width="280" height="48"></rect>
        <rect id="path-56" x="0" y="0" width="280" height="48"></rect>
        <rect id="path-57" x="0" y="0" width="280" height="48"></rect>
        <rect id="path-58" x="0" y="0" width="280" height="40"></rect>
        <rect id="path-59" x="0" y="0" width="280" height="48"></rect>
        <rect id="path-60" x="0" y="0" width="280" height="48"></rect>
        <rect id="path-61" x="0" y="0" width="280" height="48"></rect>
        <rect id="path-62" x="0" y="0" width="280" height="48"></rect>
        <rect id="path-63" x="0" y="0" width="280" height="48"></rect>
        <rect id="path-64" x="0" y="0" width="280" height="40"></rect>
    </defs>
    <g id="Page-1" stroke="none" stroke-width="1" fill="none" fill-rule="evenodd">
        <g id="Elements">
            <rect id="Rectangle-Copy-11" fill="#D8D8D8" opacity="0.542459239" x="981" y="97" width="317" height="825"></rect>
            <g id="LowFi/Contextual-Bar/In-Page" transform="translate(16.000000, 17.000000)">
                <rect id="Header-BG" fill="#000000" x="-2.84217094e-14" y="0" width="1280" height="80"></rect>
                <rect id="Rectangle-Copy-3" fill="#D8D8D8" x="66" y="32" width="121" height="16"></rect>
                <path d="M41.01,34 C41.557,34 42,34.443 42,34.99 L42,35.01 C42,35.557 41.557,36 41.01,36 L24.99,36 C24.444,36 24,35.557 24,35.01 L24,34.99 C24,34.443 24.444,34 24.99,34 L41.01,34 Z M41.01,44 C41.557,44 42,44.443 42,44.99 L42,45.01 C42,45.557 41.557,46 41.01,46 L24.99,46 C24.444,46 24,45.557 24,45.01 L24,44.99 C24,44.443 24.444,44 24.99,44 L41.01,44 Z M41.01,39 C41.557,39 42,39.443 42,39.99 L42,40.01 C42,40.557 41.557,41 41.01,41 L24.99,41 C24.444,41 24,40.557 24,40.01 L24,39.99 C24,39.443 24.444,39 24.99,39 L41.01,39 Z" id="menu" fill="#FFFFFF" opacity="0.7"></path>
                <path d="M1240,38 C1238.896,38 1238,38.896 1238,40 C1238,41.105 1238.896,42 1240,42 C1241.105,42 1242,41.105 1242,40 C1242,38.896 1241.105,38 1240,38 M1247,38 C1245.896,38 1245,38.896 1245,40 C1245,41.105 1245.896,42 1247,42 C1248.104,42 1249,41.105 1249,40 C1249,38.896 1248.104,38 1247,38 M1254,38 C1252.896,38 1252,38.896 1252,40 C1252,41.105 1252.896,42 1254,42 C1255.104,42 1256,41.105 1256,40 C1256,38.896 1255.104,38 1254,38" id="more" fill="#FFFFFF" opacity="0.7"></path>
            </g>
            <g id="LowFi/Data-Table/Single-Select/List" transform="translate(34.000000, 193.000000)">
                <g id="LowFi/Data-Table/Single-Select/Row" transform="translate(0.000000, 39.000000)">
                    <g id="border">
                        <use fill="#FFFFFF" fill-rule="evenodd" xlink:href="#path-1"></use>
                        <rect stroke="#D5D5D5" stroke-width="1" x="0.5" y="0.5" width="277" height="47"></rect>
                    </g>
                    <rect id="Rectangle" fill="#D5D5D5" fill-rule="evenodd" x="0" y="0" width="1" height="48"></rect>
                    <rect id="Rectangle-Copy-3" fill="#D8D8D8" fill-rule="evenodd" x="15.8857143" y="16" width="89.3571429" height="16"></rect>
                </g>
                <g id="LowFi/Data-Table/Single-Select/Row" transform="translate(0.000000, 275.000000)">
                    <g id="border">
                        <use fill="#FFFFFF" fill-rule="evenodd" xlink:href="#path-2"></use>
                        <rect stroke="#D5D5D5" stroke-width="1" x="0.5" y="0.5" width="277" height="47"></rect>
                    </g>
                    <rect id="Rectangle" fill="#D5D5D5" fill-rule="evenodd" x="0" y="0" width="1" height="48"></rect>
                    <rect id="Rectangle-Copy-3" fill="#D8D8D8" fill-rule="evenodd" x="15.8857143" y="16" width="89.3571429" height="16"></rect>
                </g>
                <g id="LowFi/Data-Table/Single-Select/Row" transform="translate(0.000000, 511.000000)">
                    <g id="border">
                        <use fill="#FFFFFF" fill-rule="evenodd" xlink:href="#path-3"></use>
                        <rect stroke="#D5D5D5" stroke-width="1" x="0.5" y="0.5" width="277" height="47"></rect>
                    </g>
                    <rect id="Rectangle" fill="#D5D5D5" fill-rule="evenodd" x="0" y="0" width="1" height="48"></rect>
                    <rect id="Rectangle-Copy-3" fill="#D8D8D8" fill-rule="evenodd" x="15.8857143" y="16" width="89.3571429" height="16"></rect>
                </g>
                <g id="LowFi/Data-Table/Single-Select/Row" transform="translate(0.000000, 86.000000)">
                    <g id="border">
                        <use fill="#FFFFFF" fill-rule="evenodd" xlink:href="#path-4"></use>
                        <rect stroke="#D5D5D5" stroke-width="1" x="0.5" y="0.5" width="277" height="47"></rect>
                    </g>
                    <rect id="Rectangle" fill="#D5D5D5" fill-rule="evenodd" x="0" y="0" width="1" height="48"></rect>
                    <rect id="Rectangle-Copy-3" fill="#D8D8D8" fill-rule="evenodd" x="15.8857143" y="16" width="89.3571429" height="16"></rect>
                </g>
                <g id="LowFi/Data-Table/Single-Select/Row" transform="translate(0.000000, 322.000000)">
                    <g id="border">
                        <use fill="#FFFFFF" fill-rule="evenodd" xlink:href="#path-5"></use>
                        <rect stroke="#D5D5D5" stroke-width="1" x="0.5" y="0.5" width="277" height="47"></rect>
                    </g>
                    <rect id="Rectangle" fill="#D5D5D5" fill-rule="evenodd" x="0" y="0" width="1" height="48"></rect>
                    <rect id="Rectangle-Copy-3" fill="#D8D8D8" fill-rule="evenodd" x="15.8857143" y="16" width="89.3571429" height="16"></rect>
                </g>
                <g id="LowFi/Data-Table/Single-Select/Row" transform="translate(0.000000, 558.000000)">
                    <g id="border">
                        <use fill="#FFFFFF" fill-rule="evenodd" xlink:href="#path-6"></use>
                        <rect stroke="#D5D5D5" stroke-width="1" x="0.5" y="0.5" width="277" height="47"></rect>
                    </g>
                    <rect id="Rectangle" fill="#D5D5D5" fill-rule="evenodd" x="0" y="0" width="1" height="48"></rect>
                    <rect id="Rectangle-Copy-3" fill="#D8D8D8" fill-rule="evenodd" x="15.8857143" y="16" width="89.3571429" height="16"></rect>
                </g>
                <g id="LowFi/Data-Table/Single-Select/Row" transform="translate(0.000000, 133.000000)">
                    <g id="border">
                        <use fill="#FFFFFF" fill-rule="evenodd" xlink:href="#path-7"></use>
                        <rect stroke="#D5D5D5" stroke-width="1" x="0.5" y="0.5" width="277" height="47"></rect>
                    </g>
                    <rect id="Rectangle" fill="#D5D5D5" fill-rule="evenodd" x="0" y="0" width="1" height="48"></rect>
                    <rect id="Rectangle-Copy-3" fill="#D8D8D8" fill-rule="evenodd" x="15.8857143" y="16" width="89.3571429" height="16"></rect>
                </g>
                <g id="LowFi/Data-Table/Single-Select/Row" transform="translate(0.000000, 369.000000)">
                    <g id="border">
                        <use fill="#FFFFFF" fill-rule="evenodd" xlink:href="#path-8"></use>
                        <rect stroke="#D5D5D5" stroke-width="1" x="0.5" y="0.5" width="277" height="47"></rect>
                    </g>
                    <rect id="Rectangle" fill="#D5D5D5" fill-rule="evenodd" x="0" y="0" width="1" height="48"></rect>
                    <rect id="Rectangle-Copy-3" fill="#D8D8D8" fill-rule="evenodd" x="15.8857143" y="16" width="89.3571429" height="16"></rect>
                </g>
                <g id="LowFi/Data-Table/Single-Select/Row" opacity="0.900000036" transform="translate(0.000000, 180.000000)">
                    <g id="border">
                        <use fill="#FFFFFF" fill-rule="evenodd" xlink:href="#path-9"></use>
                        <rect stroke="#D5D5D5" stroke-width="1" x="0.5" y="0.5" width="277" height="47"></rect>
                    </g>
                    <rect id="Rectangle" fill="#D5D5D5" fill-rule="evenodd" x="0" y="0" width="1" height="48"></rect>
                    <rect id="Rectangle-Copy-3" fill="#D8D8D8" fill-rule="evenodd" x="15.8857143" y="16" width="89.3571429" height="16"></rect>
                </g>
                <g id="LowFi/Data-Table/Single-Select/Row" opacity="0.900000036" transform="translate(0.000000, 416.000000)">
                    <g id="border">
                        <use fill="#FFFFFF" fill-rule="evenodd" xlink:href="#path-10"></use>
                        <rect stroke="#D5D5D5" stroke-width="1" x="0.5" y="0.5" width="277" height="47"></rect>
                    </g>
                    <rect id="Rectangle" fill="#D5D5D5" fill-rule="evenodd" x="0" y="0" width="1" height="48"></rect>
                    <rect id="Rectangle-Copy-3" fill="#D8D8D8" fill-rule="evenodd" x="15.8857143" y="16" width="89.3571429" height="16"></rect>
                </g>
                <g id="LowFi/Data-Table/Single-Select/Row" opacity="0.900000036" transform="translate(0.000000, 227.000000)">
                    <g id="border">
                        <use fill="#FFFFFF" fill-rule="evenodd" xlink:href="#path-11"></use>
                        <rect stroke="#D5D5D5" stroke-width="1" x="0.5" y="0.5" width="277" height="47"></rect>
                    </g>
                    <rect id="Rectangle" fill="#D5D5D5" fill-rule="evenodd" x="0" y="0" width="1" height="48"></rect>
                    <rect id="Rectangle-Copy-3" fill="#D8D8D8" fill-rule="evenodd" x="15.8857143" y="16" width="89.3571429" height="16"></rect>
                </g>
                <g id="LowFi/Data-Table/Single-Select/Row" opacity="0.900000036" transform="translate(0.000000, 463.000000)">
                    <g id="border">
                        <use fill="#FFFFFF" fill-rule="evenodd" xlink:href="#path-12"></use>
                        <rect stroke="#D5D5D5" stroke-width="1" x="0.5" y="0.5" width="277" height="47"></rect>
                    </g>
                    <rect id="Rectangle" fill="#D5D5D5" fill-rule="evenodd" x="0" y="0" width="1" height="48"></rect>
                    <rect id="Rectangle-Copy-3" fill="#D8D8D8" fill-rule="evenodd" x="15.8857143" y="16" width="89.3571429" height="16"></rect>
                </g>
                <g id="LowFi/Data-Table/Single-Select/Header">
                    <g id="bg">
                        <use fill="#6C6C6C" fill-rule="evenodd" xlink:href="#path-13"></use>
                        <rect stroke="#D5D5D5" stroke-width="1" x="0.5" y="0.5" width="277" height="39"></rect>
                    </g>
                    <rect id="Rectangle-Copy-3" fill="#D8D8D8" fill-rule="evenodd" x="15.8857143" y="12" width="89.3571429" height="16"></rect>
                </g>
            </g>
            <g id="LowFi/Data-Table/Single-Select/List" transform="translate(272.000000, 193.000000)">
                <g id="LowFi/Data-Table/Single-Select/Row" transform="translate(0.000000, 39.000000)">
                    <g id="border">
                        <use fill="#FFFFFF" fill-rule="evenodd" xlink:href="#path-14"></use>
                        <rect stroke="#D5D5D5" stroke-width="1" x="0.5" y="0.5" width="279" height="47"></rect>
                    </g>
                    <rect id="Rectangle" fill="#D5D5D5" fill-rule="evenodd" x="0" y="0" width="1" height="48"></rect>
                    <rect id="Rectangle-Copy-3" fill="#D8D8D8" fill-rule="evenodd" x="16" y="16" width="90" height="16"></rect>
                </g>
                <g id="LowFi/Data-Table/Single-Select/Row" transform="translate(0.000000, 275.000000)">
                    <g id="border">
                        <use fill="#FFFFFF" fill-rule="evenodd" xlink:href="#path-15"></use>
                        <rect stroke="#D5D5D5" stroke-width="1" x="0.5" y="0.5" width="279" height="47"></rect>
                    </g>
                    <rect id="Rectangle" fill="#D5D5D5" fill-rule="evenodd" x="0" y="0" width="1" height="48"></rect>
                    <rect id="Rectangle-Copy-3" fill="#D8D8D8" fill-rule="evenodd" x="16" y="16" width="90" height="16"></rect>
                </g>
                <g id="LowFi/Data-Table/Single-Select/Row" transform="translate(0.000000, 511.000000)">
                    <g id="border">
                        <use fill="#FFFFFF" fill-rule="evenodd" xlink:href="#path-16"></use>
                        <rect stroke="#D5D5D5" stroke-width="1" x="0.5" y="0.5" width="279" height="47"></rect>
                    </g>
                    <rect id="Rectangle" fill="#D5D5D5" fill-rule="evenodd" x="0" y="0" width="1" height="48"></rect>
                    <rect id="Rectangle-Copy-3" fill="#D8D8D8" fill-rule="evenodd" x="16" y="16" width="90" height="16"></rect>
                </g>
                <g id="LowFi/Data-Table/Single-Select/Row" transform="translate(0.000000, 86.000000)">
                    <g id="border">
                        <use fill="#FFFFFF" fill-rule="evenodd" xlink:href="#path-17"></use>
                        <rect stroke="#D5D5D5" stroke-width="1" x="0.5" y="0.5" width="279" height="47"></rect>
                    </g>
                    <rect id="Rectangle" fill="#D5D5D5" fill-rule="evenodd" x="0" y="0" width="1" height="48"></rect>
                    <rect id="Rectangle-Copy-3" fill="#D8D8D8" fill-rule="evenodd" x="16" y="16" width="90" height="16"></rect>
                </g>
                <g id="LowFi/Data-Table/Single-Select/Row" transform="translate(0.000000, 322.000000)">
                    <g id="border">
                        <use fill="#FFFFFF" fill-rule="evenodd" xlink:href="#path-18"></use>
                        <rect stroke="#D5D5D5" stroke-width="1" x="0.5" y="0.5" width="279" height="47"></rect>
                    </g>
                    <rect id="Rectangle" fill="#D5D5D5" fill-rule="evenodd" x="0" y="0" width="1" height="48"></rect>
                    <rect id="Rectangle-Copy-3" fill="#D8D8D8" fill-rule="evenodd" x="16" y="16" width="90" height="16"></rect>
                </g>
                <g id="LowFi/Data-Table/Single-Select/Row" transform="translate(0.000000, 558.000000)">
                    <g id="border">
                        <use fill="#FFFFFF" fill-rule="evenodd" xlink:href="#path-19"></use>
                        <rect stroke="#D5D5D5" stroke-width="1" x="0.5" y="0.5" width="279" height="47"></rect>
                    </g>
                    <rect id="Rectangle" fill="#D5D5D5" fill-rule="evenodd" x="0" y="0" width="1" height="48"></rect>
                    <rect id="Rectangle-Copy-3" fill="#D8D8D8" fill-rule="evenodd" x="16" y="16" width="90" height="16"></rect>
                </g>
                <g id="LowFi/Data-Table/Single-Select/Row" transform="translate(0.000000, 133.000000)">
                    <g id="border">
                        <use fill="#FFFFFF" fill-rule="evenodd" xlink:href="#path-20"></use>
                        <rect stroke="#D5D5D5" stroke-width="1" x="0.5" y="0.5" width="279" height="47"></rect>
                    </g>
                    <rect id="Rectangle" fill="#D5D5D5" fill-rule="evenodd" x="0" y="0" width="1" height="48"></rect>
                    <rect id="Rectangle-Copy-3" fill="#D8D8D8" fill-rule="evenodd" x="16" y="16" width="90" height="16"></rect>
                </g>
                <g id="LowFi/Data-Table/Single-Select/Row" transform="translate(0.000000, 369.000000)">
                    <g id="border">
                        <use fill="#FFFFFF" fill-rule="evenodd" xlink:href="#path-21"></use>
                        <rect stroke="#D5D5D5" stroke-width="1" x="0.5" y="0.5" width="279" height="47"></rect>
                    </g>
                    <rect id="Rectangle" fill="#D5D5D5" fill-rule="evenodd" x="0" y="0" width="1" height="48"></rect>
                    <rect id="Rectangle-Copy-3" fill="#D8D8D8" fill-rule="evenodd" x="16" y="16" width="90" height="16"></rect>
                </g>
                <g id="LowFi/Data-Table/Single-Select/Row" opacity="0.900000036" transform="translate(0.000000, 180.000000)">
                    <g id="border">
                        <use fill="#FFFFFF" fill-rule="evenodd" xlink:href="#path-22"></use>
                        <rect stroke="#D5D5D5" stroke-width="1" x="0.5" y="0.5" width="279" height="47"></rect>
                    </g>
                    <rect id="Rectangle" fill="#D5D5D5" fill-rule="evenodd" x="0" y="0" width="1" height="48"></rect>
                    <rect id="Rectangle-Copy-3" fill="#D8D8D8" fill-rule="evenodd" x="16" y="16" width="90" height="16"></rect>
                </g>
                <g id="LowFi/Data-Table/Single-Select/Row" opacity="0.900000036" transform="translate(0.000000, 416.000000)">
                    <g id="border">
                        <use fill="#FFFFFF" fill-rule="evenodd" xlink:href="#path-23"></use>
                        <rect stroke="#D5D5D5" stroke-width="1" x="0.5" y="0.5" width="279" height="47"></rect>
                    </g>
                    <rect id="Rectangle" fill="#D5D5D5" fill-rule="evenodd" x="0" y="0" width="1" height="48"></rect>
                    <rect id="Rectangle-Copy-3" fill="#D8D8D8" fill-rule="evenodd" x="16" y="16" width="90" height="16"></rect>
                </g>
                <g id="LowFi/Data-Table/Single-Select/Row" opacity="0.900000036" transform="translate(0.000000, 227.000000)">
                    <g id="border">
                        <use fill="#FFFFFF" fill-rule="evenodd" xlink:href="#path-24"></use>
                        <rect stroke="#D5D5D5" stroke-width="1" x="0.5" y="0.5" width="279" height="47"></rect>
                    </g>
                    <rect id="Rectangle" fill="#D5D5D5" fill-rule="evenodd" x="0" y="0" width="1" height="48"></rect>
                    <rect id="Rectangle-Copy-3" fill="#D8D8D8" fill-rule="evenodd" x="16" y="16" width="90" height="16"></rect>
                </g>
                <g id="LowFi/Data-Table/Single-Select/Row" opacity="0.900000036" transform="translate(0.000000, 463.000000)">
                    <g id="border">
                        <use fill="#FFFFFF" fill-rule="evenodd" xlink:href="#path-25"></use>
                        <rect stroke="#D5D5D5" stroke-width="1" x="0.5" y="0.5" width="279" height="47"></rect>
                    </g>
                    <rect id="Rectangle" fill="#D5D5D5" fill-rule="evenodd" x="0" y="0" width="1" height="48"></rect>
                    <rect id="Rectangle-Copy-3" fill="#D8D8D8" fill-rule="evenodd" x="16" y="16" width="90" height="16"></rect>
                </g>
                <g id="LowFi/Data-Table/Single-Select/Header">
                    <g id="bg">
                        <use fill="#6C6C6C" fill-rule="evenodd" xlink:href="#path-26"></use>
                        <rect stroke="#D5D5D5" stroke-width="1" x="0.5" y="0.5" width="279" height="39"></rect>
                    </g>
                    <rect id="Rectangle-Copy-3" fill="#D8D8D8" fill-rule="evenodd" x="16" y="12" width="90" height="16"></rect>
                </g>
            </g>
            <g id="LowFi/Data-Table/Single-Select/List" transform="translate(472.000000, 193.000000)">
                <g id="LowFi/Data-Table/Single-Select/Row" transform="translate(0.000000, 39.000000)">
                    <g id="border">
                        <use fill="#FFFFFF" fill-rule="evenodd" xlink:href="#path-27"></use>
                        <rect stroke="#D5D5D5" stroke-width="1" x="0.5" y="0.5" width="279" height="47"></rect>
                    </g>
                    <rect id="Rectangle" fill="#D5D5D5" fill-rule="evenodd" x="0" y="0" width="1" height="48"></rect>
                    <rect id="Rectangle-Copy-3" fill="#D8D8D8" fill-rule="evenodd" x="16" y="16" width="90" height="16"></rect>
                </g>
                <g id="LowFi/Data-Table/Single-Select/Row" transform="translate(0.000000, 275.000000)">
                    <g id="border">
                        <use fill="#FFFFFF" fill-rule="evenodd" xlink:href="#path-28"></use>
                        <rect stroke="#D5D5D5" stroke-width="1" x="0.5" y="0.5" width="279" height="47"></rect>
                    </g>
                    <rect id="Rectangle" fill="#D5D5D5" fill-rule="evenodd" x="0" y="0" width="1" height="48"></rect>
                    <rect id="Rectangle-Copy-3" fill="#D8D8D8" fill-rule="evenodd" x="16" y="16" width="90" height="16"></rect>
                </g>
                <g id="LowFi/Data-Table/Single-Select/Row" transform="translate(0.000000, 511.000000)">
                    <g id="border">
                        <use fill="#FFFFFF" fill-rule="evenodd" xlink:href="#path-29"></use>
                        <rect stroke="#D5D5D5" stroke-width="1" x="0.5" y="0.5" width="279" height="47"></rect>
                    </g>
                    <rect id="Rectangle" fill="#D5D5D5" fill-rule="evenodd" x="0" y="0" width="1" height="48"></rect>
                    <rect id="Rectangle-Copy-3" fill="#D8D8D8" fill-rule="evenodd" x="16" y="16" width="90" height="16"></rect>
                </g>
                <g id="LowFi/Data-Table/Single-Select/Row" transform="translate(0.000000, 86.000000)">
                    <g id="border">
                        <use fill="#FFFFFF" fill-rule="evenodd" xlink:href="#path-30"></use>
                        <rect stroke="#D5D5D5" stroke-width="1" x="0.5" y="0.5" width="279" height="47"></rect>
                    </g>
                    <rect id="Rectangle" fill="#D5D5D5" fill-rule="evenodd" x="0" y="0" width="1" height="48"></rect>
                    <rect id="Rectangle-Copy-3" fill="#D8D8D8" fill-rule="evenodd" x="16" y="16" width="90" height="16"></rect>
                </g>
                <g id="LowFi/Data-Table/Single-Select/Row" transform="translate(0.000000, 322.000000)">
                    <g id="border">
                        <use fill="#FFFFFF" fill-rule="evenodd" xlink:href="#path-31"></use>
                        <rect stroke="#D5D5D5" stroke-width="1" x="0.5" y="0.5" width="279" height="47"></rect>
                    </g>
                    <rect id="Rectangle" fill="#D5D5D5" fill-rule="evenodd" x="0" y="0" width="1" height="48"></rect>
                    <rect id="Rectangle-Copy-3" fill="#D8D8D8" fill-rule="evenodd" x="16" y="16" width="90" height="16"></rect>
                </g>
                <g id="LowFi/Data-Table/Single-Select/Row" transform="translate(0.000000, 558.000000)">
                    <g id="border">
                        <use fill="#FFFFFF" fill-rule="evenodd" xlink:href="#path-32"></use>
                        <rect stroke="#D5D5D5" stroke-width="1" x="0.5" y="0.5" width="279" height="47"></rect>
                    </g>
                    <rect id="Rectangle" fill="#D5D5D5" fill-rule="evenodd" x="0" y="0" width="1" height="48"></rect>
                    <rect id="Rectangle-Copy-3" fill="#D8D8D8" fill-rule="evenodd" x="16" y="16" width="90" height="16"></rect>
                </g>
                <g id="LowFi/Data-Table/Single-Select/Row" transform="translate(0.000000, 133.000000)">
                    <g id="border">
                        <use fill="#FFFFFF" fill-rule="evenodd" xlink:href="#path-33"></use>
                        <rect stroke="#D5D5D5" stroke-width="1" x="0.5" y="0.5" width="279" height="47"></rect>
                    </g>
                    <rect id="Rectangle" fill="#D5D5D5" fill-rule="evenodd" x="0" y="0" width="1" height="48"></rect>
                    <rect id="Rectangle-Copy-3" fill="#D8D8D8" fill-rule="evenodd" x="16" y="16" width="90" height="16"></rect>
                </g>
                <g id="LowFi/Data-Table/Single-Select/Row" transform="translate(0.000000, 369.000000)">
                    <g id="border">
                        <use fill="#FFFFFF" fill-rule="evenodd" xlink:href="#path-34"></use>
                        <rect stroke="#D5D5D5" stroke-width="1" x="0.5" y="0.5" width="279" height="47"></rect>
                    </g>
                    <rect id="Rectangle" fill="#D5D5D5" fill-rule="evenodd" x="0" y="0" width="1" height="48"></rect>
                    <rect id="Rectangle-Copy-3" fill="#D8D8D8" fill-rule="evenodd" x="16" y="16" width="90" height="16"></rect>
                </g>
                <g id="LowFi/Data-Table/Single-Select/Row" opacity="0.900000036" transform="translate(0.000000, 180.000000)">
                    <g id="border">
                        <use fill="#FFFFFF" fill-rule="evenodd" xlink:href="#path-35"></use>
                        <rect stroke="#D5D5D5" stroke-width="1" x="0.5" y="0.5" width="279" height="47"></rect>
                    </g>
                    <rect id="Rectangle" fill="#D5D5D5" fill-rule="evenodd" x="0" y="0" width="1" height="48"></rect>
                    <rect id="Rectangle-Copy-3" fill="#D8D8D8" fill-rule="evenodd" x="16" y="16" width="90" height="16"></rect>
                </g>
                <g id="LowFi/Data-Table/Single-Select/Row" opacity="0.900000036" transform="translate(0.000000, 416.000000)">
                    <g id="border">
                        <use fill="#FFFFFF" fill-rule="evenodd" xlink:href="#path-36"></use>
                        <rect stroke="#D5D5D5" stroke-width="1" x="0.5" y="0.5" width="279" height="47"></rect>
                    </g>
                    <rect id="Rectangle" fill="#D5D5D5" fill-rule="evenodd" x="0" y="0" width="1" height="48"></rect>
                    <rect id="Rectangle-Copy-3" fill="#D8D8D8" fill-rule="evenodd" x="16" y="16" width="90" height="16"></rect>
                </g>
                <g id="LowFi/Data-Table/Single-Select/Row" opacity="0.900000036" transform="translate(0.000000, 227.000000)">
                    <g id="border">
                        <use fill="#FFFFFF" fill-rule="evenodd" xlink:href="#path-37"></use>
                        <rect stroke="#D5D5D5" stroke-width="1" x="0.5" y="0.5" width="279" height="47"></rect>
                    </g>
                    <rect id="Rectangle" fill="#D5D5D5" fill-rule="evenodd" x="0" y="0" width="1" height="48"></rect>
                    <rect id="Rectangle-Copy-3" fill="#D8D8D8" fill-rule="evenodd" x="16" y="16" width="90" height="16"></rect>
                </g>
                <g id="LowFi/Data-Table/Single-Select/Row" opacity="0.900000036" transform="translate(0.000000, 463.000000)">
                    <g id="border">
                        <use fill="#FFFFFF" fill-rule="evenodd" xlink:href="#path-38"></use>
                        <rect stroke="#D5D5D5" stroke-width="1" x="0.5" y="0.5" width="279" height="47"></rect>
                    </g>
                    <rect id="Rectangle" fill="#D5D5D5" fill-rule="evenodd" x="0" y="0" width="1" height="48"></rect>
                    <rect id="Rectangle-Copy-3" fill="#D8D8D8" fill-rule="evenodd" x="16" y="16" width="90" height="16"></rect>
                </g>
                <g id="LowFi/Data-Table/Single-Select/Header">
                    <g id="bg">
                        <use fill="#6C6C6C" fill-rule="evenodd" xlink:href="#path-39"></use>
                        <rect stroke="#D5D5D5" stroke-width="1" x="0.5" y="0.5" width="279" height="39"></rect>
                    </g>
                    <rect id="Rectangle-Copy-3" fill="#D8D8D8" fill-rule="evenodd" x="16" y="12" width="90" height="16"></rect>
                </g>
            </g>
            <g id="LowFi/Data-Table/Single-Select/List" transform="translate(752.000000, 193.000000)">
                <g id="LowFi/Data-Table/Single-Select/Row" transform="translate(0.000000, 39.000000)">
                    <g id="border">
                        <use fill="#FFFFFF" fill-rule="evenodd" xlink:href="#path-40"></use>
                        <rect stroke="#D5D5D5" stroke-width="1" x="0.5" y="0.5" width="214" height="47"></rect>
                    </g>
                    <rect id="Rectangle" fill="#D5D5D5" fill-rule="evenodd" x="0" y="0" width="1" height="48"></rect>
                    <rect id="Rectangle-Copy-3" fill="#D8D8D8" fill-rule="evenodd" x="12.2857143" y="16" width="69.1071429" height="16"></rect>
                </g>
                <g id="LowFi/Data-Table/Single-Select/Row" transform="translate(0.000000, 275.000000)">
                    <g id="border">
                        <use fill="#FFFFFF" fill-rule="evenodd" xlink:href="#path-41"></use>
                        <rect stroke="#D5D5D5" stroke-width="1" x="0.5" y="0.5" width="214" height="47"></rect>
                    </g>
                    <rect id="Rectangle" fill="#D5D5D5" fill-rule="evenodd" x="0" y="0" width="1" height="48"></rect>
                    <rect id="Rectangle-Copy-3" fill="#D8D8D8" fill-rule="evenodd" x="12.2857143" y="16" width="69.1071429" height="16"></rect>
                </g>
                <g id="LowFi/Data-Table/Single-Select/Row" transform="translate(0.000000, 511.000000)">
                    <g id="border">
                        <use fill="#FFFFFF" fill-rule="evenodd" xlink:href="#path-42"></use>
                        <rect stroke="#D5D5D5" stroke-width="1" x="0.5" y="0.5" width="214" height="47"></rect>
                    </g>
                    <rect id="Rectangle" fill="#D5D5D5" fill-rule="evenodd" x="0" y="0" width="1" height="48"></rect>
                    <rect id="Rectangle-Copy-3" fill="#D8D8D8" fill-rule="evenodd" x="12.2857143" y="16" width="69.1071429" height="16"></rect>
                </g>
                <g id="LowFi/Data-Table/Single-Select/Row" transform="translate(0.000000, 86.000000)">
                    <g id="border">
                        <use fill="#FFFFFF" fill-rule="evenodd" xlink:href="#path-43"></use>
                        <rect stroke="#D5D5D5" stroke-width="1" x="0.5" y="0.5" width="214" height="47"></rect>
                    </g>
                    <rect id="Rectangle" fill="#D5D5D5" fill-rule="evenodd" x="0" y="0" width="1" height="48"></rect>
                    <rect id="Rectangle-Copy-3" fill="#D8D8D8" fill-rule="evenodd" x="12.2857143" y="16" width="69.1071429" height="16"></rect>
                </g>
                <g id="LowFi/Data-Table/Single-Select/Row" transform="translate(0.000000, 322.000000)">
                    <g id="border">
                        <use fill="#FFFFFF" fill-rule="evenodd" xlink:href="#path-44"></use>
                        <rect stroke="#D5D5D5" stroke-width="1" x="0.5" y="0.5" width="214" height="47"></rect>
                    </g>
                    <rect id="Rectangle" fill="#D5D5D5" fill-rule="evenodd" x="0" y="0" width="1" height="48"></rect>
                    <rect id="Rectangle-Copy-3" fill="#D8D8D8" fill-rule="evenodd" x="12.2857143" y="16" width="69.1071429" height="16"></rect>
                </g>
                <g id="LowFi/Data-Table/Single-Select/Row" transform="translate(0.000000, 558.000000)">
                    <g id="border">
                        <use fill="#FFFFFF" fill-rule="evenodd" xlink:href="#path-45"></use>
                        <rect stroke="#D5D5D5" stroke-width="1" x="0.5" y="0.5" width="214" height="47"></rect>
                    </g>
                    <rect id="Rectangle" fill="#D5D5D5" fill-rule="evenodd" x="0" y="0" width="1" height="48"></rect>
                    <rect id="Rectangle-Copy-3" fill="#D8D8D8" fill-rule="evenodd" x="12.2857143" y="16" width="69.1071429" height="16"></rect>
                </g>
                <g id="LowFi/Data-Table/Single-Select/Row" transform="translate(0.000000, 133.000000)">
                    <g id="border">
                        <use fill="#FFFFFF" fill-rule="evenodd" xlink:href="#path-46"></use>
                        <rect stroke="#D5D5D5" stroke-width="1" x="0.5" y="0.5" width="214" height="47"></rect>
                    </g>
                    <rect id="Rectangle" fill="#D5D5D5" fill-rule="evenodd" x="0" y="0" width="1" height="48"></rect>
                    <rect id="Rectangle-Copy-3" fill="#D8D8D8" fill-rule="evenodd" x="12.2857143" y="16" width="69.1071429" height="16"></rect>
                </g>
                <g id="LowFi/Data-Table/Single-Select/Row" transform="translate(0.000000, 369.000000)">
                    <g id="border">
                        <use fill="#FFFFFF" fill-rule="evenodd" xlink:href="#path-47"></use>
                        <rect stroke="#D5D5D5" stroke-width="1" x="0.5" y="0.5" width="214" height="47"></rect>
                    </g>
                    <rect id="Rectangle" fill="#D5D5D5" fill-rule="evenodd" x="0" y="0" width="1" height="48"></rect>
                    <rect id="Rectangle-Copy-3" fill="#D8D8D8" fill-rule="evenodd" x="12.2857143" y="16" width="69.1071429" height="16"></rect>
                </g>
                <g id="LowFi/Data-Table/Single-Select/Row" opacity="0.900000036" transform="translate(0.000000, 180.000000)">
                    <g id="border">
                        <use fill="#FFFFFF" fill-rule="evenodd" xlink:href="#path-48"></use>
                        <rect stroke="#D5D5D5" stroke-width="1" x="0.5" y="0.5" width="214" height="47"></rect>
                    </g>
                    <rect id="Rectangle" fill="#D5D5D5" fill-rule="evenodd" x="0" y="0" width="1" height="48"></rect>
                    <rect id="Rectangle-Copy-3" fill="#D8D8D8" fill-rule="evenodd" x="12.2857143" y="16" width="69.1071429" height="16"></rect>
                </g>
                <g id="LowFi/Data-Table/Single-Select/Row" opacity="0.900000036" transform="translate(0.000000, 416.000000)">
                    <g id="border">
                        <use fill="#FFFFFF" fill-rule="evenodd" xlink:href="#path-49"></use>
                        <rect stroke="#D5D5D5" stroke-width="1" x="0.5" y="0.5" width="214" height="47"></rect>
                    </g>
                    <rect id="Rectangle" fill="#D5D5D5" fill-rule="evenodd" x="0" y="0" width="1" height="48"></rect>
                    <rect id="Rectangle-Copy-3" fill="#D8D8D8" fill-rule="evenodd" x="12.2857143" y="16" width="69.1071429" height="16"></rect>
                </g>
                <g id="LowFi/Data-Table/Single-Select/Row" opacity="0.900000036" transform="translate(0.000000, 227.000000)">
                    <g id="border">
                        <use fill="#FFFFFF" fill-rule="evenodd" xlink:href="#path-50"></use>
                        <rect stroke="#D5D5D5" stroke-width="1" x="0.5" y="0.5" width="214" height="47"></rect>
                    </g>
                    <rect id="Rectangle" fill="#D5D5D5" fill-rule="evenodd" x="0" y="0" width="1" height="48"></rect>
                    <rect id="Rectangle-Copy-3" fill="#D8D8D8" fill-rule="evenodd" x="12.2857143" y="16" width="69.1071429" height="16"></rect>
                </g>
                <g id="LowFi/Data-Table/Single-Select/Row" opacity="0.900000036" transform="translate(0.000000, 463.000000)">
                    <g id="border">
                        <use fill="#FFFFFF" fill-rule="evenodd" xlink:href="#path-51"></use>
                        <rect stroke="#D5D5D5" stroke-width="1" x="0.5" y="0.5" width="214" height="47"></rect>
                    </g>
                    <rect id="Rectangle" fill="#D5D5D5" fill-rule="evenodd" x="0" y="0" width="1" height="48"></rect>
                    <rect id="Rectangle-Copy-3" fill="#D8D8D8" fill-rule="evenodd" x="12.2857143" y="16" width="69.1071429" height="16"></rect>
                </g>
                <g id="LowFi/Data-Table/Single-Select/Header">
                    <g id="bg">
                        <use fill="#6C6C6C" fill-rule="evenodd" xlink:href="#path-52"></use>
                        <rect stroke="#D5D5D5" stroke-width="1" x="0.5" y="0.5" width="214" height="39"></rect>
                    </g>
                    <rect id="Rectangle-Copy-3" fill="#D8D8D8" fill-rule="evenodd" x="12.2857143" y="12" width="69.1071429" height="16"></rect>
                </g>
            </g>
            <g id="LowFi/Data-Table/Single-Select/List" transform="translate(1000.000000, 196.000000)">
                <g id="LowFi/Data-Table/Single-Select/Row" transform="translate(0.000000, 39.000000)">
                    <g id="border">
                        <use fill="#FFFFFF" fill-rule="evenodd" xlink:href="#path-53"></use>
                        <rect stroke="#D5D5D5" stroke-width="1" x="0.5" y="0.5" width="279" height="47"></rect>
                    </g>
                    <rect id="Rectangle" fill="#D5D5D5" fill-rule="evenodd" x="0" y="0" width="1" height="48"></rect>
                    <rect id="Rectangle-Copy-3" fill="#D8D8D8" fill-rule="evenodd" x="16" y="16" width="90" height="16"></rect>
                </g>
                <g id="LowFi/Data-Table/Single-Select/Row" transform="translate(0.000000, 86.000000)">
                    <g id="border">
                        <use fill="#FFFFFF" fill-rule="evenodd" xlink:href="#path-54"></use>
                        <rect stroke="#D5D5D5" stroke-width="1" x="0.5" y="0.5" width="279" height="47"></rect>
                    </g>
                    <rect id="Rectangle" fill="#D5D5D5" fill-rule="evenodd" x="0" y="0" width="1" height="48"></rect>
                    <rect id="Rectangle-Copy-3" fill="#D8D8D8" fill-rule="evenodd" x="16" y="16" width="90" height="16"></rect>
                </g>
                <g id="LowFi/Data-Table/Single-Select/Row" transform="translate(0.000000, 133.000000)">
                    <g id="border">
                        <use fill="#FFFFFF" fill-rule="evenodd" xlink:href="#path-55"></use>
                        <rect stroke="#D5D5D5" stroke-width="1" x="0.5" y="0.5" width="279" height="47"></rect>
                    </g>
                    <rect id="Rectangle" fill="#D5D5D5" fill-rule="evenodd" x="0" y="0" width="1" height="48"></rect>
                    <rect id="Rectangle-Copy-3" fill="#D8D8D8" fill-rule="evenodd" x="16" y="16" width="90" height="16"></rect>
                </g>
                <g id="LowFi/Data-Table/Single-Select/Row" opacity="0.900000036" transform="translate(0.000000, 180.000000)">
                    <g id="border">
                        <use fill="#FFFFFF" fill-rule="evenodd" xlink:href="#path-56"></use>
                        <rect stroke="#D5D5D5" stroke-width="1" x="0.5" y="0.5" width="279" height="47"></rect>
                    </g>
                    <rect id="Rectangle" fill="#D5D5D5" fill-rule="evenodd" x="0" y="0" width="1" height="48"></rect>
                    <rect id="Rectangle-Copy-3" fill="#D8D8D8" fill-rule="evenodd" x="16" y="16" width="90" height="16"></rect>
                </g>
                <g id="LowFi/Data-Table/Single-Select/Row" opacity="0.900000036" transform="translate(0.000000, 227.000000)">
                    <g id="border">
                        <use fill="#FFFFFF" fill-rule="evenodd" xlink:href="#path-57"></use>
                        <rect stroke="#D5D5D5" stroke-width="1" x="0.5" y="0.5" width="279" height="47"></rect>
                    </g>
                    <rect id="Rectangle" fill="#D5D5D5" fill-rule="evenodd" x="0" y="0" width="1" height="48"></rect>
                    <rect id="Rectangle-Copy-3" fill="#D8D8D8" fill-rule="evenodd" x="16" y="16" width="90" height="16"></rect>
                </g>
                <g id="LowFi/Data-Table/Single-Select/Header">
                    <g id="bg">
                        <use fill="#6C6C6C" fill-rule="evenodd" xlink:href="#path-58"></use>
                        <rect stroke="#D5D5D5" stroke-width="1" x="0.5" y="0.5" width="279" height="39"></rect>
                    </g>
                    <rect id="Rectangle-Copy-3" fill="#D8D8D8" fill-rule="evenodd" x="16" y="12" width="90" height="16"></rect>
                </g>
            </g>
            <g id="LowFi/Data-Table/Single-Select/List" transform="translate(1000.000000, 521.000000)">
                <g id="LowFi/Data-Table/Single-Select/Row" transform="translate(0.000000, 39.000000)">
                    <g id="border">
                        <use fill="#FFFFFF" fill-rule="evenodd" xlink:href="#path-59"></use>
                        <rect stroke="#D5D5D5" stroke-width="1" x="0.5" y="0.5" width="279" height="47"></rect>
                    </g>
                    <rect id="Rectangle" fill="#D5D5D5" fill-rule="evenodd" x="0" y="0" width="1" height="48"></rect>
                    <rect id="Rectangle-Copy-3" fill="#D8D8D8" fill-rule="evenodd" x="16" y="16" width="90" height="16"></rect>
                </g>
                <g id="LowFi/Data-Table/Single-Select/Row" transform="translate(0.000000, 86.000000)">
                    <g id="border">
                        <use fill="#FFFFFF" fill-rule="evenodd" xlink:href="#path-60"></use>
                        <rect stroke="#D5D5D5" stroke-width="1" x="0.5" y="0.5" width="279" height="47"></rect>
                    </g>
                    <rect id="Rectangle" fill="#D5D5D5" fill-rule="evenodd" x="0" y="0" width="1" height="48"></rect>
                    <rect id="Rectangle-Copy-3" fill="#D8D8D8" fill-rule="evenodd" x="16" y="16" width="90" height="16"></rect>
                </g>
                <g id="LowFi/Data-Table/Single-Select/Row" transform="translate(0.000000, 133.000000)">
                    <g id="border">
                        <use fill="#FFFFFF" fill-rule="evenodd" xlink:href="#path-61"></use>
                        <rect stroke="#D5D5D5" stroke-width="1" x="0.5" y="0.5" width="279" height="47"></rect>
                    </g>
                    <rect id="Rectangle" fill="#D5D5D5" fill-rule="evenodd" x="0" y="0" width="1" height="48"></rect>
                    <rect id="Rectangle-Copy-3" fill="#D8D8D8" fill-rule="evenodd" x="16" y="16" width="90" height="16"></rect>
                </g>
                <g id="LowFi/Data-Table/Single-Select/Row" opacity="0.900000036" transform="translate(0.000000, 180.000000)">
                    <g id="border">
                        <use fill="#FFFFFF" fill-rule="evenodd" xlink:href="#path-62"></use>
                        <rect stroke="#D5D5D5" stroke-width="1" x="0.5" y="0.5" width="279" height="47"></rect>
                    </g>
                    <rect id="Rectangle" fill="#D5D5D5" fill-rule="evenodd" x="0" y="0" width="1" height="48"></rect>
                    <rect id="Rectangle-Copy-3" fill="#D8D8D8" fill-rule="evenodd" x="16" y="16" width="90" height="16"></rect>
                </g>
                <g id="LowFi/Data-Table/Single-Select/Row" opacity="0.900000036" transform="translate(0.000000, 227.000000)">
                    <g id="border">
                        <use fill="#FFFFFF" fill-rule="evenodd" xlink:href="#path-63"></use>
                        <rect stroke="#D5D5D5" stroke-width="1" x="0.5" y="0.5" width="279" height="47"></rect>
                    </g>
                    <rect id="Rectangle" fill="#D5D5D5" fill-rule="evenodd" x="0" y="0" width="1" height="48"></rect>
                    <rect id="Rectangle-Copy-3" fill="#D8D8D8" fill-rule="evenodd" x="16" y="16" width="90" height="16"></rect>
                </g>
                <g id="LowFi/Data-Table/Single-Select/Header">
                    <g id="bg">
                        <use fill="#6C6C6C" fill-rule="evenodd" xlink:href="#path-64"></use>
                        <rect stroke="#D5D5D5" stroke-width="1" x="0.5" y="0.5" width="279" height="39"></rect>
                    </g>
                    <rect id="Rectangle-Copy-3" fill="#D8D8D8" fill-rule="evenodd" x="16" y="12" width="90" height="16"></rect>
                </g>
            </g>
        </g>
    </g>
</svg>