<?xml version="1.0" encoding="UTF-8"?>
<svg width="794px" height="502px" viewBox="0 0 794 502" version="1.1" xmlns="http://www.w3.org/2000/svg" xmlns:xlink="http://www.w3.org/1999/xlink">
    <!-- Generator: Sketch 48.2 (47327) - http://www.bohemiancoding.com/sketch -->
    <title>Components</title>
    <desc>Created with Sketch.</desc>
    <defs></defs>
    <g id="IDS_Home_Landing-page-Copy-30" stroke="none" stroke-width="1" fill="none" fill-rule="evenodd" transform="translate(-263.000000, -1922.000000)">
        <g id="Group" transform="translate(72.000000, 1922.000000)">
            <g id="Components" transform="translate(191.000000, 0.000000)">
                <g id="Page-1">
                    <polygon id="Fill-1" fill="#FFFFFF" points="1 74.5930359 1 426 658 352.406964 658 1"></polygon>
                    <polygon id="Stroke-2" stroke="#000000" points="658 352.406964 1 426 1 74.5930359 658 1"></polygon>
                    <path d="M1,424.845 L15,424 L1,424.845 Z" id="Fill-4" fill="#000000"></path>
                    <g id="Group-13">
                        <path d="M1.27252632,425.748629 L15.3793315,424.520656" id="Stroke-5" stroke="#FFFFFF" stroke-width="2"></path>
                        <path d="M0.512170822,426.189452 L7.60109049,433.287311" id="Stroke-7" stroke="#000000"></path>
                        <path d="M0.965194829,74.1441826 L15.686663,88.8827645" id="Stroke-9" stroke="#000000"></path>
                        <path d="M658.206916,0.752460201 L658.206916,16.7204669" id="Stroke-11" stroke="#FFFFFF" stroke-width="2"></path>
                    </g>
                    <path d="M658,1 L663,6" id="Fill-14" fill="#FFFFFF"></path>
                    <path d="M658,1 L663,6" id="Stroke-15" stroke="#000000"></path>
                    <polygon id="Fill-17" fill="#FFFFFF" points="664 357.408162 7 431 7 79.5918375 664 6"></polygon>
                    <polygon id="Stroke-18" stroke="#000000" points="664 357.408162 7 431 7 79.5918375 664 6"></polygon>
                    <path d="M8,82 L664,359" id="Stroke-19" stroke="#000000"></path>
                    <path d="M7,431 L664,6" id="Stroke-20" stroke="#000000"></path>
                    <polygon id="Fill-21" fill="#ABAEB7" points="49 119 49 470.17909 55 477 55 125.017001"></polygon>
                    <polygon id="Fill-22" fill="#C8CBD4" points="708 50.8181818 700.746844 45 49 119.417455 55.2159547 125"></polygon>
                    <polygon id="Fill-23" fill="#DEE1E8" points="708 51 55 125.874186 55 477 706.548905 402.125814"></polygon>
                    <polygon id="Fill-24" fill="#133C59" points="147 165 147 480.865645 152 487 152 170.412155"></polygon>
                    <polygon id="Fill-25" fill="#134D71" points="739 104.237158 732.484065 99 147 165.975592 152.583222 171"></polygon>
                    <polygon id="Fill-26" fill="#134D71" points="740 103 153 170.314826 153 486 738.696107 418.683723"></polygon>
                    <polygon id="Fill-27" fill="#5D3E70" points="211 216 211.319094 280.840668 217 288 217 223.058393"></polygon>
                    <polygon id="Fill-28" fill="#6E5282" points="769 155.265784 758.59946 149 211 215.362321 217.700348 222"></polygon>
                    <polygon id="Fill-29" fill="#806594" points="758.137717 157.246288 217.078418 223.157997 217.004357 273.226963 217 288 768.923035 219.65117 769 156"></polygon>
                    <polygon id="Fill-30" fill="#5D3E70" points="211 493.775552 218 502 218 465.749789 211 459"></polygon>
                    <polygon id="Fill-31" fill="#6E5282" points="768 395.735373 755.213063 389 211 458.552352 217.565402 465"></polygon>
                    <polygon id="Fill-32" fill="#806594" points="756.406998 398.28047 218.172705 465.547836 218 502 767.918727 431.781042 768 397"></polygon>
                    <polygon id="Fill-33" fill="#5D3E70" points="211 298 211 444.22469 218 453 218 304.96944"></polygon>
                    <polygon id="Fill-34" fill="#6E5282" points="562 261.485592 553.635641 256 211 297.806406 217.223965 304"></polygon>
                    <polygon id="Fill-35" fill="#806594" points="550.165674 263.235937 217.078216 304.962562 217.004345 437.348212 217 452 560.923233 407.856495 561 262"></polygon>
                    <polygon id="Fill-36" fill="#5D3E70" points="570 254 570 400.228103 576 407 576 258.430581"></polygon>
                    <polygon id="Fill-37" fill="#6E5282" points="769 237.041471 761.187134 233 570 253.672912 576.156162 258"></polygon>
                    <polygon id="Fill-38" fill="#806594" points="757.139339 238.234954 575.078416 258.080981 575.002904 390.359868 575 405 767.923036 382.740463 768 237"></polygon>
                    <polygon id="Fill-39" fill="#206B62" points="291 328 291 469.82908 298 478 298 334.415985"></polygon>
                    <polygon id="Fill-40" fill="#317C73" points="644 294.037187 636.627675 288 291 328.675603 297.708453 335"></polygon>
                    <polygon id="Fill-41" fill="#448D83" points="298.078329 335.527543 298 479 642.609804 435.927263 643 295"></polygon>
                    <polygon id="Fill-42" fill="#BDBDBD" points="383 373 383 385.87656 389 391 389 377.001749"></polygon>
                    <polygon id="Fill-43" fill="#D8D8D8" points="628 348.434783 619.301775 344 383 373.565217 388.798817 378"></polygon>
                    <polygon id="Fill-44" fill="#F0F0F0" points="389 376.359933 389.242663 391 629 360.9 629 348"></polygon>
                    <polygon id="Fill-45" fill="#BDBDBD" points="383 404 383 416.87656 389 422 389 408.001749"></polygon>
                    <polygon id="Fill-46" fill="#D8D8D8" points="628 380.434783 619.301775 376 383 405.565217 388.798817 410"></polygon>
                    <polygon id="Fill-47" fill="#F0F0F0" points="389 408.359933 389.242663 423 629 392.9 629 380"></polygon>
                    <polygon id="Fill-48" fill="#BDBDBD" points="383 438 383 450.87656 389 456 389 442.001749"></polygon>
                    <polygon id="Fill-49" fill="#D8D8D8" points="628 413.434783 619.301775 409 383 438.565217 388.798817 443"></polygon>
                    <polygon id="Fill-50" fill="#F0F0F0" points="389 442.359933 389.242663 457 629 426.9 629 414"></polygon>
                    <polygon id="Fill-51" fill="#206B62" points="651 285 651 426.827715 657.643148 435 659 291.417367"></polygon>
                    <polygon id="Fill-52" fill="#317C73" points="651 284.072683 658.001527 290 794 275.118127 786.563318 270"></polygon>
                    <polygon id="Fill-53" fill="#448D83" points="657.957971 290.884469 657 435 792.624638 414.177168 794 276"></polygon>
                    <g id="Group-64" transform="translate(700.000000, 334.000000)">
                        <path d="M21.4803483,55.4129393 C27.4069202,55.4129393 32.324029,52.5478843 38.2506009,47.3135936 L38.2506009,30.4947666 C17.6970566,32.986873 10.7624848,37.9710858 10.7624848,45.6945918 C10.7624848,52.5478843 15.4264964,55.4129393 21.4803483,55.4129393 M38.2506009,23.7672358 C38.2506009,16.0437298 35.6011263,8.56741071 25.6410914,8.56741071 C18.4548853,8.56741071 12.1493991,11.8068599 7.3581074,15.0463091 L3.1973643,7.94438412 C8.8708389,4.3319863 17.4454224,0.095116357 27.281103,0.095116357 C42.2855269,0.095116357 48.5895501,9.93778011 48.5895501,25.013289 L48.5895501,62.1404701 L40.0149666,62.1404701 L39.1327837,54.9142289 L38.8811495,54.9142289 C32.9545776,59.6483637 26.1443599,63.6351557 18.5807025,63.6351557 C8.24029028,63.6351557 0.547889695,57.2805736 0.547889695,46.4419346 C0.547889695,33.2355054 12.1493991,26.6337364 38.2506009,23.7672358" id="Fill-54" fill="#C8CBD4"></path>
                        <path d="M28.7266833,55.4129393 C34.6532552,55.4129393 39.570364,52.5478843 45.4969358,47.3135936 L45.4969358,30.4947666 C24.9433916,32.986873 18.0088197,37.9710858 18.0088197,45.6945918 C18.0088197,52.5478843 22.6742943,55.4129393 28.7266833,55.4129393 M45.4969358,23.7672358 C45.4969358,16.0437298 42.8489242,8.56741071 32.8874264,8.56741071 C25.7012203,8.56741071 19.3957341,11.8068599 14.6044424,15.0463091 L10.4436993,7.94438412 C16.1171739,4.3319863 24.6917573,0.095116357 34.527438,0.095116357 C49.5318618,0.095116357 55.8358851,9.93778011 55.8358851,25.013289 L55.8358851,62.1404701 L47.2627646,62.1404701 L46.3791187,54.9142289 L46.1274845,54.9142289 C40.2009126,59.6483637 33.3906949,63.6351557 25.8270374,63.6351557 C15.4866253,63.6351557 7.79422467,57.2805736 7.79422467,46.4419346 C7.79422467,33.2355054 19.3957341,26.6337364 45.4969358,23.7672358" id="Fill-56" fill="#F0F0F0"></path>
                        <polygon id="Fill-58" fill="#ABAEB7" points="3.02575559 8.00957785 10.6537846 8.00957785 14.4677991 15.1693243 7.98529115 15.1693243"></polygon>
                        <path d="M7.79480987,46.4419346 C7.79480987,33.2355054 19.3963193,26.6337364 45.4960581,23.7672358 C45.4960581,16.0437298 42.8480464,8.56741071 32.8865486,8.56741071 C31.542061,8.56741071 30.2282961,8.68160816 28.949643,8.88687446 C36.2031466,10.3873422 38.2498694,16.980438 38.2498694,23.7672358 C12.1501306,26.6337364 0.54862119,33.2355054 0.54862119,46.4419346 C0.54862119,57.2805736 8.24102177,63.6366012 18.579971,63.6366012 C19.7796226,63.6366012 20.9602554,63.5339681 22.1218694,63.3460482 C13.7023628,61.9944708 7.79480987,55.9405604 7.79480987,46.4419346" id="Fill-60" fill="#BDBDBD"></path>
                        <path d="M10.443553,7.94467322 C15.3855327,4.79773843 22.529312,1.17811293 30.7878897,0.297780692 C29.6745544,0.167682332 28.5100145,0.0954054645 27.281103,0.0954054645 C17.4454224,0.0954054645 8.8708389,4.33227541 3.1973643,7.94467322 L3.23393904,8.0097224 L10.4801277,8.0097224 L10.443553,7.94467322 Z" id="Fill-62" fill="#D8D8D8"></path>
                    </g>
                </g>
            </g>
        </g>
    </g>
</svg>