<?xml version="1.0" encoding="UTF-8" standalone="no"?>
<svg width="16px" height="16px" viewBox="0 0 16 16" version="1.1" xmlns="http://www.w3.org/2000/svg" xmlns:xlink="http://www.w3.org/1999/xlink">
    <!-- Generator: Sketch 46.2 (44496) - http://www.bohemiancoding.com/sketch -->
    <title>Icon - Search</title>
    <desc>Created with Sketch.</desc>
    <defs></defs>
    <g id="Design-Page" stroke="none" stroke-width="1" fill="none" fill-rule="evenodd">
        <g id="Page-Type---Design---Inline-Index" transform="translate(-1224.000000, -42.000000)" fill="#1F1F1F">
            <g id="header-bar">
                <path d="M1234.60525,51.5387944 L1239.77973,56.7132726 C1240.07114,57.0046809 1240.07533,57.4863444 1239.78084,57.7808377 C1239.48429,58.0773841 1239.00838,58.0748337 1238.71327,57.7797271 L1233.53879,52.6052489 C1232.53817,53.3792463 1231.28283,53.8398214 1229.91991,53.8398214 C1226.65043,53.8398214 1224,51.1893871 1224,47.9199107 C1224,44.6504343 1226.65043,42 1229.91991,42 C1233.18939,42 1235.83982,44.6504343 1235.83982,47.9199107 C1235.83982,49.2828294 1235.37925,50.5381749 1234.60525,51.5387944 Z M1229.91991,52.6210163 C1232.51626,52.6210163 1234.62102,50.5162596 1234.62102,47.9199107 C1234.62102,45.3235618 1232.51626,43.2188051 1229.91991,43.2188051 C1227.32356,43.2188051 1225.21881,45.3235618 1225.21881,47.9199107 C1225.21881,50.5162596 1227.32356,52.6210163 1229.91991,52.6210163 Z" id="Icon---Search"></path>
            </g>
        </g>
    </g>
</svg>