<?xml version="1.0" encoding="UTF-8" standalone="no"?>
<svg width="95px" height="94px" viewBox="0 0 95 94" version="1.1" xmlns="http://www.w3.org/2000/svg" xmlns:xlink="http://www.w3.org/1999/xlink">
    <!-- Generator: Sketch 49 (51002) - http://www.bohemiancoding.com/sketch -->
    <title>Sketch file resource</title>
    <desc>Created with Sketch.</desc>
    <defs>
        <polygon id="path-1" points="0 0 2.0347 0 2.0347 2.0346 0 2.0346"></polygon>
        <polygon id="path-3" points="0.0212 0 2.0562 0 2.0562 2.0346 0.0212 2.0346"></polygon>
        <polygon id="path-5" points="0 0.0211 2.0347 0.0211 2.0347 2.0571 0 2.0571"></polygon>
        <polygon id="path-7" points="0.0431 0 2.0781 0 2.0781 2.0346 0.0431 2.0346"></polygon>
        <polygon id="path-9" points="0.0646 0 2.0996 0 2.0996 2.0346 0.0646 2.0346"></polygon>
        <polygon id="path-11" points="0 0.0425 2.0347 0.0425 2.0347 2.0785 0 2.0785"></polygon>
        <polygon id="path-13" points="0 0.064 2.0347 0.064 2.0347 2.1 0 2.1"></polygon>
        <polygon id="path-15" points="0 0.4927 2.0347 0.4927 2.0347 2.5287 0 2.5287"></polygon>
        <polygon id="path-17" points="0 0.5152 2.0347 0.5152 2.0347 2.5502 0 2.5502"></polygon>
        <polygon id="path-19" points="0 0.9429 2.0347 0.9429 2.0347 2.9789 0 2.9789"></polygon>
        <polygon id="path-21" points="0 0.9654 2.0347 0.9654 2.0347 3 0 3"></polygon>
        <polygon id="path-23" points="0.0212 0.9654 2.0562 0.9654 2.0562 3 0.0212 3"></polygon>
        <polygon id="path-25" points="0.0431 0.9654 2.0781 0.9654 2.0781 3 0.0431 3"></polygon>
        <polygon id="path-27" points="0.0646 0.9654 2.0996 0.9654 2.0996 3 0.0646 3"></polygon>
        <polygon id="path-29" points="0.4933 0 2.5283 0 2.5283 2.0346 0.4933 2.0346"></polygon>
        <polygon id="path-31" points="0.5148 0 2.5498 0 2.5498 2.0346 0.5148 2.0346"></polygon>
        <polygon id="path-33" points="0.5363 0 2.5713 0 2.5713 2.0346 0.5363 2.0346"></polygon>
        <polygon id="path-35" points="0.5583 0 2.593 0 2.593 2.0346 0.5583 2.0346"></polygon>
        <polygon id="path-37" points="0.5583 0.0211 2.593 0.0211 2.593 2.0571 0.5583 2.0571"></polygon>
        <polygon id="path-39" points="0.5583 0.0425 2.593 0.0425 2.593 2.0785 0.5583 2.0785"></polygon>
        <polygon id="path-41" points="0.5583 0.064 2.593 0.064 2.593 2.1 0.5583 2.1"></polygon>
        <polygon id="path-43" points="0.5583 0.4927 2.593 0.4927 2.593 2.5287 0.5583 2.5287"></polygon>
        <polygon id="path-45" points="0.5583 0.5152 2.593 0.5152 2.593 2.5502 0.5583 2.5502"></polygon>
        <polygon id="path-47" points="0.4933 0.9654 2.5283 0.9654 2.5283 3 0.4933 3"></polygon>
        <polygon id="path-49" points="0.5148 0.9654 2.5498 0.9654 2.5498 3 0.5148 3"></polygon>
        <polygon id="path-51" points="0.5583 0.9429 2.593 0.9429 2.593 2.9789 0.5583 2.9789"></polygon>
        <polygon id="path-53" points="0.5363 0.9654 2.5713 0.9654 2.5713 3 0.5363 3"></polygon>
        <polygon id="path-55" points="0.5583 0.9654 2.593 0.9654 2.593 3 0.5583 3"></polygon>
    </defs>
    <g id="XL" stroke="none" stroke-width="1" fill="none" fill-rule="evenodd">
        <g id="IDS_Home_Landing-page-XL" transform="translate(-1077.000000, -3787.000000)">
            <g id="Tools-and-Resources" transform="translate(121.000000, 3659.000000)">
                <g id="Sketch" transform="translate(815.000000, 128.000000)">
                    <g id="Icon/-Sketch-file-resource" transform="translate(142.000000, 0.000000)">
                        <g id="Page-1">
                            <g id="Group-3">
                                <mask id="mask-2" fill="white">
                                    <use xlink:href="#path-1"></use>
                                </mask>
                                <g id="Clip-2"></g>
                                <path d="M2.0347,1.0176 C2.0347,1.5796 1.5787,2.0346 1.0167,2.0346 C0.4557,2.0346 -0.0003,1.5796 -0.0003,1.0176 C-0.0003,0.4556 0.4557,-0.0004 1.0167,-0.0004 C1.5787,-0.0004 2.0347,0.4556 2.0347,1.0176" id="Fill-1" fill="#13333F" mask="url(#mask-2)"></path>
                            </g>
                            <g id="Group-6" transform="translate(13.000000, 0.000000)">
                                <mask id="mask-4" fill="white">
                                    <use xlink:href="#path-3"></use>
                                </mask>
                                <g id="Clip-5"></g>
                                <path d="M2.0562,1.0176 C2.0562,1.5796 1.6002,2.0346 1.0392,2.0346 C0.4772,2.0346 0.0212,1.5796 0.0212,1.0176 C0.0212,0.4556 0.4772,-0.0004 1.0392,-0.0004 C1.6002,-0.0004 2.0562,0.4556 2.0562,1.0176" id="Fill-4" fill="#13333F" mask="url(#mask-4)"></path>
                            </g>
                            <g id="Group-9" transform="translate(0.000000, 13.000000)">
                                <mask id="mask-6" fill="white">
                                    <use xlink:href="#path-5"></use>
                                </mask>
                                <g id="Clip-8"></g>
                                <path d="M2.0347,1.0391 C2.0347,1.6011 1.5787,2.0571 1.0167,2.0571 C0.4557,2.0571 -0.0003,1.6011 -0.0003,1.0391 C-0.0003,0.4771 0.4557,0.0211 1.0167,0.0211 C1.5787,0.0211 2.0347,0.4771 2.0347,1.0391" id="Fill-7" fill="#13333F" mask="url(#mask-6)"></path>
                            </g>
                            <path d="M15.0562,14.0391 C15.0562,14.6011 14.6002,15.0571 14.0392,15.0571 C13.4772,15.0571 13.0212,14.6011 13.0212,14.0391 C13.0212,13.4771 13.4772,13.0211 14.0392,13.0211 C14.6002,13.0211 15.0562,13.4771 15.0562,14.0391" id="Fill-10" fill="#13333F"></path>
                            <g id="Group-14" transform="translate(26.000000, 0.000000)">
                                <mask id="mask-8" fill="white">
                                    <use xlink:href="#path-7"></use>
                                </mask>
                                <g id="Clip-13"></g>
                                <path d="M2.0781,1.0176 C2.0781,1.5796 1.6221,2.0346 1.0601,2.0346 C0.4981,2.0346 0.0431,1.5796 0.0431,1.0176 C0.0431,0.4556 0.4981,-0.0004 1.0601,-0.0004 C1.6221,-0.0004 2.0781,0.4556 2.0781,1.0176" id="Fill-12" fill="#13333F" mask="url(#mask-8)"></path>
                            </g>
                            <g id="Group-17" transform="translate(39.000000, 0.000000)">
                                <mask id="mask-10" fill="white">
                                    <use xlink:href="#path-9"></use>
                                </mask>
                                <g id="Clip-16"></g>
                                <path d="M2.0996,1.0176 C2.0996,1.5796 1.6436,2.0346 1.0816,2.0346 C0.5206,2.0346 0.0646,1.5796 0.0646,1.0176 C0.0646,0.4556 0.5206,-0.0004 1.0816,-0.0004 C1.6436,-0.0004 2.0996,0.4556 2.0996,1.0176" id="Fill-15" fill="#13333F" mask="url(#mask-10)"></path>
                            </g>
                            <path d="M28.0781,14.0391 C28.0781,14.6011 27.6221,15.0571 27.0601,15.0571 C26.4981,15.0571 26.0431,14.6011 26.0431,14.0391 C26.0431,13.4771 26.4981,13.0211 27.0601,13.0211 C27.6221,13.0211 28.0781,13.4771 28.0781,14.0391" id="Fill-18" fill="#13333F"></path>
                            <path d="M41.0996,14.0391 C41.0996,14.6011 40.6436,15.0571 40.0816,15.0571 C39.5206,15.0571 39.0646,14.6011 39.0646,14.0391 C39.0646,13.4771 39.5206,13.0211 40.0816,13.0211 C40.6436,13.0211 41.0996,13.4771 41.0996,14.0391" id="Fill-20" fill="#13333F"></path>
                            <g id="Group-24" transform="translate(0.000000, 26.000000)">
                                <mask id="mask-12" fill="white">
                                    <use xlink:href="#path-11"></use>
                                </mask>
                                <g id="Clip-23"></g>
                                <path d="M2.0347,1.0605 C2.0347,1.6225 1.5787,2.0785 1.0167,2.0785 C0.4557,2.0785 -0.0003,1.6225 -0.0003,1.0605 C-0.0003,0.4985 0.4557,0.0425 1.0167,0.0425 C1.5787,0.0425 2.0347,0.4985 2.0347,1.0605" id="Fill-22" fill="#13333F" mask="url(#mask-12)"></path>
                            </g>
                            <path d="M15.0562,27.0605 C15.0562,27.6225 14.6002,28.0785 14.0392,28.0785 C13.4772,28.0785 13.0212,27.6225 13.0212,27.0605 C13.0212,26.4985 13.4772,26.0425 14.0392,26.0425 C14.6002,26.0425 15.0562,26.4985 15.0562,27.0605" id="Fill-25" fill="#13333F"></path>
                            <g id="Group-29" transform="translate(0.000000, 39.000000)">
                                <mask id="mask-14" fill="white">
                                    <use xlink:href="#path-13"></use>
                                </mask>
                                <g id="Clip-28"></g>
                                <path d="M2.0347,1.082 C2.0347,1.644 1.5787,2.1 1.0167,2.1 C0.4557,2.1 -0.0003,1.644 -0.0003,1.082 C-0.0003,0.52 0.4557,0.064 1.0167,0.064 C1.5787,0.064 2.0347,0.52 2.0347,1.082" id="Fill-27" fill="#13333F" mask="url(#mask-14)"></path>
                            </g>
                            <path d="M15.0562,40.082 C15.0562,40.644 14.6002,41.1 14.0392,41.1 C13.4772,41.1 13.0212,40.644 13.0212,40.082 C13.0212,39.52 13.4772,39.064 14.0392,39.064 C14.6002,39.064 15.0562,39.52 15.0562,40.082" id="Fill-30" fill="#13333F"></path>
                            <path d="M28.0781,27.0605 C28.0781,27.6225 27.6221,28.0785 27.0601,28.0785 C26.4981,28.0785 26.0431,27.6225 26.0431,27.0605 C26.0431,26.4985 26.4981,26.0425 27.0601,26.0425 C27.6221,26.0425 28.0781,26.4985 28.0781,27.0605" id="Fill-32" fill="#13333F"></path>
                            <path d="M41.0996,27.0605 C41.0996,27.6225 40.6436,28.0785 40.0816,28.0785 C39.5206,28.0785 39.0646,27.6225 39.0646,27.0605 C39.0646,26.4985 39.5206,26.0425 40.0816,26.0425 C40.6436,26.0425 41.0996,26.4985 41.0996,27.0605" id="Fill-34" fill="#13333F"></path>
                            <path d="M28.0781,40.082 C28.0781,40.644 27.6221,41.1 27.0601,41.1 C26.4981,41.1 26.0431,40.644 26.0431,40.082 C26.0431,39.52 26.4981,39.064 27.0601,39.064 C27.6221,39.064 28.0781,39.52 28.0781,40.082" id="Fill-36" fill="#13333F"></path>
                            <path d="M41.0996,40.082 C41.0996,40.644 40.6436,41.1 40.0816,41.1 C39.5206,41.1 39.0646,40.644 39.0646,40.082 C39.0646,39.52 39.5206,39.064 40.0816,39.064 C40.6436,39.064 41.0996,39.52 41.0996,40.082" id="Fill-38" fill="#13333F"></path>
                            <g id="Group-42" transform="translate(0.000000, 52.000000)">
                                <mask id="mask-16" fill="white">
                                    <use xlink:href="#path-15"></use>
                                </mask>
                                <g id="Clip-41"></g>
                                <path d="M2.0347,1.5107 C2.0347,2.0727 1.5787,2.5287 1.0167,2.5287 C0.4557,2.5287 -0.0003,2.0727 -0.0003,1.5107 C-0.0003,0.9487 0.4557,0.4927 1.0167,0.4927 C1.5787,0.4927 2.0347,0.9487 2.0347,1.5107" id="Fill-40" fill="#13333F" mask="url(#mask-16)"></path>
                            </g>
                            <path d="M15.0562,53.5107 C15.0562,54.0727 14.6002,54.5287 14.0392,54.5287 C13.4772,54.5287 13.0212,54.0727 13.0212,53.5107 C13.0212,52.9487 13.4772,52.4927 14.0392,52.4927 C14.6002,52.4927 15.0562,52.9487 15.0562,53.5107" id="Fill-43" fill="#13333F"></path>
                            <g id="Group-47" transform="translate(0.000000, 65.000000)">
                                <mask id="mask-18" fill="white">
                                    <use xlink:href="#path-17"></use>
                                </mask>
                                <g id="Clip-46"></g>
                                <path d="M2.0347,1.5322 C2.0347,2.0942 1.5787,2.5502 1.0167,2.5502 C0.4557,2.5502 -0.0003,2.0942 -0.0003,1.5322 C-0.0003,0.9702 0.4557,0.5152 1.0167,0.5152 C1.5787,0.5152 2.0347,0.9702 2.0347,1.5322" id="Fill-45" fill="#13333F" mask="url(#mask-18)"></path>
                            </g>
                            <path d="M15.0562,66.5322 C15.0562,67.0942 14.6002,67.5502 14.0392,67.5502 C13.4772,67.5502 13.0212,67.0942 13.0212,66.5322 C13.0212,65.9702 13.4772,65.5152 14.0392,65.5152 C14.6002,65.5152 15.0562,65.9702 15.0562,66.5322" id="Fill-48" fill="#13333F"></path>
                            <path d="M28.0781,53.5107 C28.0781,54.0727 27.6221,54.5287 27.0601,54.5287 C26.4981,54.5287 26.0431,54.0727 26.0431,53.5107 C26.0431,52.9487 26.4981,52.4927 27.0601,52.4927 C27.6221,52.4927 28.0781,52.9487 28.0781,53.5107" id="Fill-50" fill="#13333F"></path>
                            <path d="M41.0996,53.5107 C41.0996,54.0727 40.6436,54.5287 40.0816,54.5287 C39.5206,54.5287 39.0646,54.0727 39.0646,53.5107 C39.0646,52.9487 39.5206,52.4927 40.0816,52.4927 C40.6436,52.4927 41.0996,52.9487 41.0996,53.5107" id="Fill-52" fill="#13333F"></path>
                            <path d="M28.0781,66.5322 C28.0781,67.0942 27.6221,67.5502 27.0601,67.5502 C26.4981,67.5502 26.0431,67.0942 26.0431,66.5322 C26.0431,65.9702 26.4981,65.5152 27.0601,65.5152 C27.6221,65.5152 28.0781,65.9702 28.0781,66.5322" id="Fill-54" fill="#13333F"></path>
                            <path d="M41.0996,66.5322 C41.0996,67.0942 40.6436,67.5502 40.0816,67.5502 C39.5206,67.5502 39.0646,67.0942 39.0646,66.5322 C39.0646,65.9702 39.5206,65.5152 40.0816,65.5152 C40.6436,65.5152 41.0996,65.9702 41.0996,66.5322" id="Fill-56" fill="#13333F"></path>
                            <g id="Group-60" transform="translate(0.000000, 78.000000)">
                                <mask id="mask-20" fill="white">
                                    <use xlink:href="#path-19"></use>
                                </mask>
                                <g id="Clip-59"></g>
                                <path d="M2.0347,1.9609 C2.0347,2.5229 1.5787,2.9789 1.0167,2.9789 C0.4557,2.9789 -0.0003,2.5229 -0.0003,1.9609 C-0.0003,1.3989 0.4557,0.9429 1.0167,0.9429 C1.5787,0.9429 2.0347,1.3989 2.0347,1.9609" id="Fill-58" fill="#13333F" mask="url(#mask-20)"></path>
                            </g>
                            <path d="M15.0562,79.9609 C15.0562,80.5229 14.6002,80.9789 14.0392,80.9789 C13.4772,80.9789 13.0212,80.5229 13.0212,79.9609 C13.0212,79.3989 13.4772,78.9429 14.0392,78.9429 C14.6002,78.9429 15.0562,79.3989 15.0562,79.9609" id="Fill-61" fill="#13333F"></path>
                            <g id="Group-65" transform="translate(0.000000, 91.000000)">
                                <mask id="mask-22" fill="white">
                                    <use xlink:href="#path-21"></use>
                                </mask>
                                <g id="Clip-64"></g>
                                <path d="M2.0347,1.9824 C2.0347,2.5444 1.5787,3.0004 1.0167,3.0004 C0.4557,3.0004 -0.0003,2.5444 -0.0003,1.9824 C-0.0003,1.4204 0.4557,0.9654 1.0167,0.9654 C1.5787,0.9654 2.0347,1.4204 2.0347,1.9824" id="Fill-63" fill="#13333F" mask="url(#mask-22)"></path>
                            </g>
                            <g id="Group-68" transform="translate(13.000000, 91.000000)">
                                <mask id="mask-24" fill="white">
                                    <use xlink:href="#path-23"></use>
                                </mask>
                                <g id="Clip-67"></g>
                                <path d="M2.0562,1.9824 C2.0562,2.5444 1.6002,3.0004 1.0392,3.0004 C0.4772,3.0004 0.0212,2.5444 0.0212,1.9824 C0.0212,1.4204 0.4772,0.9654 1.0392,0.9654 C1.6002,0.9654 2.0562,1.4204 2.0562,1.9824" id="Fill-66" fill="#13333F" mask="url(#mask-24)"></path>
                            </g>
                            <path d="M28.0781,79.9609 C28.0781,80.5229 27.6221,80.9789 27.0601,80.9789 C26.4981,80.9789 26.0431,80.5229 26.0431,79.9609 C26.0431,79.3989 26.4981,78.9429 27.0601,78.9429 C27.6221,78.9429 28.0781,79.3989 28.0781,79.9609" id="Fill-69" fill="#13333F"></path>
                            <path d="M41.0996,79.9609 C41.0996,80.5229 40.6436,80.9789 40.0816,80.9789 C39.5206,80.9789 39.0646,80.5229 39.0646,79.9609 C39.0646,79.3989 39.5206,78.9429 40.0816,78.9429 C40.6436,78.9429 41.0996,79.3989 41.0996,79.9609" id="Fill-71" fill="#13333F"></path>
                            <g id="Group-75" transform="translate(26.000000, 91.000000)">
                                <mask id="mask-26" fill="white">
                                    <use xlink:href="#path-25"></use>
                                </mask>
                                <g id="Clip-74"></g>
                                <path d="M2.0781,1.9824 C2.0781,2.5444 1.6221,3.0004 1.0601,3.0004 C0.4981,3.0004 0.0431,2.5444 0.0431,1.9824 C0.0431,1.4204 0.4981,0.9654 1.0601,0.9654 C1.6221,0.9654 2.0781,1.4204 2.0781,1.9824" id="Fill-73" fill="#13333F" mask="url(#mask-26)"></path>
                            </g>
                            <g id="Group-78" transform="translate(39.000000, 91.000000)">
                                <mask id="mask-28" fill="white">
                                    <use xlink:href="#path-27"></use>
                                </mask>
                                <g id="Clip-77"></g>
                                <path d="M2.0996,1.9824 C2.0996,2.5444 1.6436,3.0004 1.0816,3.0004 C0.5206,3.0004 0.0646,2.5444 0.0646,1.9824 C0.0646,1.4204 0.5206,0.9654 1.0816,0.9654 C1.6436,0.9654 2.0996,1.4204 2.0996,1.9824" id="Fill-76" fill="#13333F" mask="url(#mask-28)"></path>
                            </g>
                            <g id="Group-81" transform="translate(52.000000, 0.000000)">
                                <mask id="mask-30" fill="white">
                                    <use xlink:href="#path-29"></use>
                                </mask>
                                <g id="Clip-80"></g>
                                <path d="M2.5283,1.0176 C2.5283,1.5796 2.0723,2.0346 1.5103,2.0346 C0.9483,2.0346 0.4933,1.5796 0.4933,1.0176 C0.4933,0.4556 0.9483,-0.0004 1.5103,-0.0004 C2.0723,-0.0004 2.5283,0.4556 2.5283,1.0176" id="Fill-79" fill="#13333F" mask="url(#mask-30)"></path>
                            </g>
                            <g id="Group-84" transform="translate(65.000000, 0.000000)">
                                <mask id="mask-32" fill="white">
                                    <use xlink:href="#path-31"></use>
                                </mask>
                                <g id="Clip-83"></g>
                                <path d="M2.5498,1.0176 C2.5498,1.5796 2.0938,2.0346 1.5318,2.0346 C0.9708,2.0346 0.5148,1.5796 0.5148,1.0176 C0.5148,0.4556 0.9708,-0.0004 1.5318,-0.0004 C2.0938,-0.0004 2.5498,0.4556 2.5498,1.0176" id="Fill-82" fill="#13333F" mask="url(#mask-32)"></path>
                            </g>
                            <path d="M54.5283,14.0391 C54.5283,14.6011 54.0723,15.0571 53.5103,15.0571 C52.9483,15.0571 52.4933,14.6011 52.4933,14.0391 C52.4933,13.4771 52.9483,13.0211 53.5103,13.0211 C54.0723,13.0211 54.5283,13.4771 54.5283,14.0391" id="Fill-85" fill="#13333F"></path>
                            <path d="M67.5498,14.0391 C67.5498,14.6011 67.0938,15.0571 66.5318,15.0571 C65.9708,15.0571 65.5148,14.6011 65.5148,14.0391 C65.5148,13.4771 65.9708,13.0211 66.5318,13.0211 C67.0938,13.0211 67.5498,13.4771 67.5498,14.0391" id="Fill-87" fill="#13333F"></path>
                            <g id="Group-91" transform="translate(78.000000, 0.000000)">
                                <mask id="mask-34" fill="white">
                                    <use xlink:href="#path-33"></use>
                                </mask>
                                <g id="Clip-90"></g>
                                <path d="M2.5713,1.0176 C2.5713,1.5796 2.1153,2.0346 1.5543,2.0346 C0.9923,2.0346 0.5363,1.5796 0.5363,1.0176 C0.5363,0.4556 0.9923,-0.0004 1.5543,-0.0004 C2.1153,-0.0004 2.5713,0.4556 2.5713,1.0176" id="Fill-89" fill="#13333F" mask="url(#mask-34)"></path>
                            </g>
                            <g id="Group-94" transform="translate(91.000000, 0.000000)">
                                <mask id="mask-36" fill="white">
                                    <use xlink:href="#path-35"></use>
                                </mask>
                                <g id="Clip-93"></g>
                                <path d="M2.5933,1.0176 C2.5933,1.5796 2.1373,2.0346 1.5753,2.0346 C1.0133,2.0346 0.5583,1.5796 0.5583,1.0176 C0.5583,0.4556 1.0133,-0.0004 1.5753,-0.0004 C2.1373,-0.0004 2.5933,0.4556 2.5933,1.0176" id="Fill-92" fill="#13333F" mask="url(#mask-36)"></path>
                            </g>
                            <path d="M80.5713,14.0391 C80.5713,14.6011 80.1153,15.0571 79.5543,15.0571 C78.9923,15.0571 78.5363,14.6011 78.5363,14.0391 C78.5363,13.4771 78.9923,13.0211 79.5543,13.0211 C80.1153,13.0211 80.5713,13.4771 80.5713,14.0391" id="Fill-95" fill="#13333F"></path>
                            <g id="Group-99" transform="translate(91.000000, 13.000000)">
                                <mask id="mask-38" fill="white">
                                    <use xlink:href="#path-37"></use>
                                </mask>
                                <g id="Clip-98"></g>
                                <path d="M2.5933,1.0391 C2.5933,1.6011 2.1373,2.0571 1.5753,2.0571 C1.0133,2.0571 0.5583,1.6011 0.5583,1.0391 C0.5583,0.4771 1.0133,0.0211 1.5753,0.0211 C2.1373,0.0211 2.5933,0.4771 2.5933,1.0391" id="Fill-97" fill="#13333F" mask="url(#mask-38)"></path>
                            </g>
                            <path d="M54.5283,27.0605 C54.5283,27.6225 54.0723,28.0785 53.5103,28.0785 C52.9483,28.0785 52.4933,27.6225 52.4933,27.0605 C52.4933,26.4985 52.9483,26.0425 53.5103,26.0425 C54.0723,26.0425 54.5283,26.4985 54.5283,27.0605" id="Fill-100" fill="#13333F"></path>
                            <path d="M67.5498,27.0605 C67.5498,27.6225 67.0938,28.0785 66.5318,28.0785 C65.9708,28.0785 65.5148,27.6225 65.5148,27.0605 C65.5148,26.4985 65.9708,26.0425 66.5318,26.0425 C67.0938,26.0425 67.5498,26.4985 67.5498,27.0605" id="Fill-102" fill="#13333F"></path>
                            <path d="M54.5283,40.082 C54.5283,40.644 54.0723,41.1 53.5103,41.1 C52.9483,41.1 52.4933,40.644 52.4933,40.082 C52.4933,39.52 52.9483,39.064 53.5103,39.064 C54.0723,39.064 54.5283,39.52 54.5283,40.082" id="Fill-104" fill="#13333F"></path>
                            <path d="M67.5498,40.082 C67.5498,40.644 67.0938,41.1 66.5318,41.1 C65.9708,41.1 65.5148,40.644 65.5148,40.082 C65.5148,39.52 65.9708,39.064 66.5318,39.064 C67.0938,39.064 67.5498,39.52 67.5498,40.082" id="Fill-106" fill="#13333F"></path>
                            <path d="M80.5713,27.0605 C80.5713,27.6225 80.1153,28.0785 79.5543,28.0785 C78.9923,28.0785 78.5363,27.6225 78.5363,27.0605 C78.5363,26.4985 78.9923,26.0425 79.5543,26.0425 C80.1153,26.0425 80.5713,26.4985 80.5713,27.0605" id="Fill-108" fill="#13333F"></path>
                            <g id="Group-112" transform="translate(91.000000, 26.000000)">
                                <mask id="mask-40" fill="white">
                                    <use xlink:href="#path-39"></use>
                                </mask>
                                <g id="Clip-111"></g>
                                <path d="M2.5933,1.0605 C2.5933,1.6225 2.1373,2.0785 1.5753,2.0785 C1.0133,2.0785 0.5583,1.6225 0.5583,1.0605 C0.5583,0.4985 1.0133,0.0425 1.5753,0.0425 C2.1373,0.0425 2.5933,0.4985 2.5933,1.0605" id="Fill-110" fill="#13333F" mask="url(#mask-40)"></path>
                            </g>
                            <path d="M80.5713,40.082 C80.5713,40.644 80.1153,41.1 79.5543,41.1 C78.9923,41.1 78.5363,40.644 78.5363,40.082 C78.5363,39.52 78.9923,39.064 79.5543,39.064 C80.1153,39.064 80.5713,39.52 80.5713,40.082" id="Fill-113" fill="#13333F"></path>
                            <g id="Group-117" transform="translate(91.000000, 39.000000)">
                                <mask id="mask-42" fill="white">
                                    <use xlink:href="#path-41"></use>
                                </mask>
                                <g id="Clip-116"></g>
                                <path d="M2.5933,1.082 C2.5933,1.644 2.1373,2.1 1.5753,2.1 C1.0133,2.1 0.5583,1.644 0.5583,1.082 C0.5583,0.52 1.0133,0.064 1.5753,0.064 C2.1373,0.064 2.5933,0.52 2.5933,1.082" id="Fill-115" fill="#13333F" mask="url(#mask-42)"></path>
                            </g>
                            <path d="M54.5283,53.5107 C54.5283,54.0727 54.0723,54.5287 53.5103,54.5287 C52.9483,54.5287 52.4933,54.0727 52.4933,53.5107 C52.4933,52.9487 52.9483,52.4927 53.5103,52.4927 C54.0723,52.4927 54.5283,52.9487 54.5283,53.5107" id="Fill-118" fill="#13333F"></path>
                            <path d="M67.5498,53.5107 C67.5498,54.0727 67.0938,54.5287 66.5318,54.5287 C65.9708,54.5287 65.5148,54.0727 65.5148,53.5107 C65.5148,52.9487 65.9708,52.4927 66.5318,52.4927 C67.0938,52.4927 67.5498,52.9487 67.5498,53.5107" id="Fill-120" fill="#13333F"></path>
                            <path d="M54.5283,66.5322 C54.5283,67.0942 54.0723,67.5502 53.5103,67.5502 C52.9483,67.5502 52.4933,67.0942 52.4933,66.5322 C52.4933,65.9702 52.9483,65.5152 53.5103,65.5152 C54.0723,65.5152 54.5283,65.9702 54.5283,66.5322" id="Fill-122" fill="#13333F"></path>
                            <path d="M67.5498,66.5322 C67.5498,67.0942 67.0938,67.5502 66.5318,67.5502 C65.9708,67.5502 65.5148,67.0942 65.5148,66.5322 C65.5148,65.9702 65.9708,65.5152 66.5318,65.5152 C67.0938,65.5152 67.5498,65.9702 67.5498,66.5322" id="Fill-124" fill="#13333F"></path>
                            <path d="M80.5713,53.5107 C80.5713,54.0727 80.1153,54.5287 79.5543,54.5287 C78.9923,54.5287 78.5363,54.0727 78.5363,53.5107 C78.5363,52.9487 78.9923,52.4927 79.5543,52.4927 C80.1153,52.4927 80.5713,52.9487 80.5713,53.5107" id="Fill-126" fill="#13333F"></path>
                            <g id="Group-130" transform="translate(91.000000, 52.000000)">
                                <mask id="mask-44" fill="white">
                                    <use xlink:href="#path-43"></use>
                                </mask>
                                <g id="Clip-129"></g>
                                <path d="M2.5933,1.5107 C2.5933,2.0727 2.1373,2.5287 1.5753,2.5287 C1.0133,2.5287 0.5583,2.0727 0.5583,1.5107 C0.5583,0.9487 1.0133,0.4927 1.5753,0.4927 C2.1373,0.4927 2.5933,0.9487 2.5933,1.5107" id="Fill-128" fill="#13333F" mask="url(#mask-44)"></path>
                            </g>
                            <path d="M80.5713,66.5322 C80.5713,67.0942 80.1153,67.5502 79.5543,67.5502 C78.9923,67.5502 78.5363,67.0942 78.5363,66.5322 C78.5363,65.9702 78.9923,65.5152 79.5543,65.5152 C80.1153,65.5152 80.5713,65.9702 80.5713,66.5322" id="Fill-131" fill="#13333F"></path>
                            <g id="Group-135" transform="translate(91.000000, 65.000000)">
                                <mask id="mask-46" fill="white">
                                    <use xlink:href="#path-45"></use>
                                </mask>
                                <g id="Clip-134"></g>
                                <path d="M2.5933,1.5322 C2.5933,2.0942 2.1373,2.5502 1.5753,2.5502 C1.0133,2.5502 0.5583,2.0942 0.5583,1.5322 C0.5583,0.9702 1.0133,0.5152 1.5753,0.5152 C2.1373,0.5152 2.5933,0.9702 2.5933,1.5322" id="Fill-133" fill="#13333F" mask="url(#mask-46)"></path>
                            </g>
                            <path d="M54.5283,79.9609 C54.5283,80.5229 54.0723,80.9789 53.5103,80.9789 C52.9483,80.9789 52.4933,80.5229 52.4933,79.9609 C52.4933,79.3989 52.9483,78.9429 53.5103,78.9429 C54.0723,78.9429 54.5283,79.3989 54.5283,79.9609" id="Fill-136" fill="#13333F"></path>
                            <path d="M67.5498,79.9609 C67.5498,80.5229 67.0938,80.9789 66.5318,80.9789 C65.9708,80.9789 65.5148,80.5229 65.5148,79.9609 C65.5148,79.3989 65.9708,78.9429 66.5318,78.9429 C67.0938,78.9429 67.5498,79.3989 67.5498,79.9609" id="Fill-138" fill="#13333F"></path>
                            <g id="Group-142" transform="translate(52.000000, 91.000000)">
                                <mask id="mask-48" fill="white">
                                    <use xlink:href="#path-47"></use>
                                </mask>
                                <g id="Clip-141"></g>
                                <path d="M2.5283,1.9824 C2.5283,2.5444 2.0723,3.0004 1.5103,3.0004 C0.9483,3.0004 0.4933,2.5444 0.4933,1.9824 C0.4933,1.4204 0.9483,0.9654 1.5103,0.9654 C2.0723,0.9654 2.5283,1.4204 2.5283,1.9824" id="Fill-140" fill="#13333F" mask="url(#mask-48)"></path>
                            </g>
                            <g id="Group-145" transform="translate(65.000000, 91.000000)">
                                <mask id="mask-50" fill="white">
                                    <use xlink:href="#path-49"></use>
                                </mask>
                                <g id="Clip-144"></g>
                                <path d="M2.5498,1.9824 C2.5498,2.5444 2.0938,3.0004 1.5318,3.0004 C0.9708,3.0004 0.5148,2.5444 0.5148,1.9824 C0.5148,1.4204 0.9708,0.9654 1.5318,0.9654 C2.0938,0.9654 2.5498,1.4204 2.5498,1.9824" id="Fill-143" fill="#13333F" mask="url(#mask-50)"></path>
                            </g>
                            <path d="M80.5713,79.9609 C80.5713,80.5229 80.1153,80.9789 79.5543,80.9789 C78.9923,80.9789 78.5363,80.5229 78.5363,79.9609 C78.5363,79.3989 78.9923,78.9429 79.5543,78.9429 C80.1153,78.9429 80.5713,79.3989 80.5713,79.9609" id="Fill-146" fill="#13333F"></path>
                            <g id="Group-150" transform="translate(91.000000, 78.000000)">
                                <mask id="mask-52" fill="white">
                                    <use xlink:href="#path-51"></use>
                                </mask>
                                <g id="Clip-149"></g>
                                <path d="M2.5933,1.9609 C2.5933,2.5229 2.1373,2.9789 1.5753,2.9789 C1.0133,2.9789 0.5583,2.5229 0.5583,1.9609 C0.5583,1.3989 1.0133,0.9429 1.5753,0.9429 C2.1373,0.9429 2.5933,1.3989 2.5933,1.9609" id="Fill-148" fill="#13333F" mask="url(#mask-52)"></path>
                            </g>
                            <g id="Group-153" transform="translate(78.000000, 91.000000)">
                                <mask id="mask-54" fill="white">
                                    <use xlink:href="#path-53"></use>
                                </mask>
                                <g id="Clip-152"></g>
                                <path d="M2.5713,1.9824 C2.5713,2.5444 2.1153,3.0004 1.5543,3.0004 C0.9923,3.0004 0.5363,2.5444 0.5363,1.9824 C0.5363,1.4204 0.9923,0.9654 1.5543,0.9654 C2.1153,0.9654 2.5713,1.4204 2.5713,1.9824" id="Fill-151" fill="#13333F" mask="url(#mask-54)"></path>
                            </g>
                            <g id="Group-156" transform="translate(91.000000, 91.000000)">
                                <mask id="mask-56" fill="white">
                                    <use xlink:href="#path-55"></use>
                                </mask>
                                <g id="Clip-155"></g>
                                <path d="M2.5933,1.9824 C2.5933,2.5444 2.1373,3.0004 1.5753,3.0004 C1.0133,3.0004 0.5583,2.5444 0.5583,1.9824 C0.5583,1.4204 1.0133,0.9654 1.5753,0.9654 C2.1373,0.9654 2.5933,1.4204 2.5933,1.9824" id="Fill-154" fill="#13333F" mask="url(#mask-56)"></path>
                            </g>
                            <path d="M0.208,0.4111 L92.474,92.6781" id="Stroke-157" stroke="#13333F" stroke-width="0.5"></path>
                            <path d="M13.7339,0.916 L93.0849,80.267" id="Stroke-159" stroke="#13333F" stroke-width="0.5"></path>
                            <path d="M0.7119,13.9375 L80.0629,93.2885" id="Stroke-161" stroke="#13333F" stroke-width="0.5"></path>
                            <path d="M0.7119,26.959 L66.4309,92.678" id="Stroke-163" stroke="#13333F" stroke-width="0.5"></path>
                            <path d="M26.959,0.7119 L92.677,66.4309" id="Stroke-165" stroke="#13333F" stroke-width="0.5"></path>
                            <path d="M0.7119,39.9805 L53.4089,92.6775" id="Stroke-167" stroke="#13333F" stroke-width="0.5"></path>
                            <path d="M0.7119,53.4092 L40.1839,92.8812" id="Stroke-169" stroke="#13333F" stroke-width="0.5"></path>
                            <path d="M53.8159,1.1191 L93.2879,40.5911" id="Stroke-171" stroke="#13333F" stroke-width="0.5"></path>
                            <path d="M66.2271,0.916 L92.8811,27.569" id="Stroke-173" stroke="#13333F" stroke-width="0.5"></path>
                            <path d="M79.6558,0.916 L92.8808,14.141" id="Stroke-175" stroke="#13333F" stroke-width="0.5"></path>
                            <path d="M27.5693,93.2881 L0.9153,66.6341" id="Stroke-177" stroke="#13333F" stroke-width="0.5"></path>
                            <path d="M14.5479,93.2881 L1.3219,80.0621" id="Stroke-179" stroke="#13333F" stroke-width="0.5"></path>
                            <path d="M40.5908,1.3223 L93.2878,54.0193" id="Stroke-181" stroke="#13333F" stroke-width="0.5"></path>
                        </g>
                    </g>
                </g>
            </g>
        </g>
    </g>
</svg>