<?xml version="1.0" encoding="UTF-8" standalone="no"?>
<svg width="120px" height="108px" viewBox="0 0 120 108" version="1.1" xmlns="http://www.w3.org/2000/svg" xmlns:xlink="http://www.w3.org/1999/xlink">
    <!-- Generator: Sketch 49.1 (51147) - http://www.bohemiancoding.com/sketch -->
    <title>icons/sketch</title>
    <desc>Created with Sketch.</desc>
    <defs></defs>
    <g id="XL" stroke="none" stroke-width="1" fill="none" fill-rule="evenodd">
        <g id="IDS_Home_Landing-page-XL" transform="translate(-1070.000000, -3786.000000)">
            <g id="Tools-and-Resources" transform="translate(121.000000, 3659.000000)">
                <g id="Sketch" transform="translate(815.000000, 127.000000)">
                    <g id="icon/sketch" transform="translate(134.000000, 0.000000)">
                        <g id="Page-1">
                            <polygon id="Fill-1" fill="#FDB300" points="59.9016393 0 26.1387753 3.55575665 0 38.5111362 59.9016393 108 119.803279 38.5111362 93.6641987 3.55575665"></polygon>
                            <polygon id="Fill-2" fill="#EA6C00" points="0 38.3606557 59.6065574 108 24.1436224 38.3606557"></polygon>
                            <polygon id="Fill-3" fill="#EA6C00" points="95.0694924 38.3606557 59.6065574 108 119.213115 38.3606557"></polygon>
                            <polygon id="Fill-4" fill="#FDAD00" points="24.1967213 38.3606557 59.9014867 108 95.6065574 38.3606557"></polygon>
                            <polygon id="Fill-5" fill="#FDD231" points="26.0603172 3.54186271 24.1967213 38.3606557 59.6065574 0"></polygon>
                            <polygon id="Fill-6" fill="#FDD231" points="95.0163934 38.3606557 93.1524948 3.54186271 59.6065574 0"></polygon>
                            <polygon id="Fill-7" fill="#FDAD00" points="95.1097829 38.3606557 119.213115 38.3606557 93.2459016 3.54098361"></polygon>
                            <polygon id="Fill-8" fill="#FDAD00" points="0 38.3606557 24.1038938 38.3606557 25.9672131 3.54098361"></polygon>
                            <polygon id="Fill-9" fill="#FEEEB7" points="59.9016393 0 24.1967213 38.3606557 95.6065574 38.3606557"></polygon>
                        </g>
                    </g>
                </g>
            </g>
        </g>
    </g>
</svg>