<?xml version="1.0" encoding="UTF-8" standalone="no"?>
<svg width="10px" height="16px" viewBox="0 0 10 16" version="1.1" xmlns="http://www.w3.org/2000/svg" xmlns:xlink="http://www.w3.org/1999/xlink">
    <!-- Generator: Sketch 50.2 (55047) - http://www.bohemiancoding.com/sketch -->
    <title>icon/standard/user</title>
    <desc>Created with Sketch.</desc>
    <defs></defs>
    <g id="6.-Designer-Workspace" stroke="none" stroke-width="1" fill="none" fill-rule="evenodd">
        <g id="Annotated-1440px---XL" transform="translate(-1422.000000, -791.000000)" fill="#FFFFFF">
            <g id="button" transform="translate(1407.000000, 779.000000)">
                <g id="icon/extended-set/help_white" transform="translate(15.000000, 12.000000)">
                    <path d="M5,0 C2.243,0 0,2.243 0,5 C0,5.552 0.448,6 1,6 C1.552,6 2,5.552 2,5 C2,3.346 3.346,2 5,2 C6.654,2 8,3.346 8,5 C8,6.654 6.654,8 5,8 C4.448,8 4,8.448 4,9 L4,11.5 C4,12.052 4.448,12.5 5,12.5 C5.552,12.5 6,12.052 6,11.5 L6,9.9 C8.279,9.435 10,7.415 10,5 C10,2.243 7.757,0 5,0 M5,14 C5.552,14 6,14.448 6,15 C6,15.552 5.552,16 5,16 C4.448,16 4,15.552 4,15 C4,14.448 4.448,14 5,14" id="help"></path>
                </g>
            </g>
        </g>
    </g>
</svg>